<svg xmlns="http://www.w3.org/2000/svg" viewBox="0 0 470 470"><defs><style>.cls-1{fill:#410099;}.cls-2{fill:none;}</style></defs><g id="Слой_2" data-name="Слой 2"><g id="Слой_1-2" data-name="Слой 1"><path class="cls-1" d="M229.08,87.21c-60.1,0-109,39.7-109,88.5,0,46.06,43.57,84,99,88.12v-14c-47.7-3.94-85-35.66-85-74.09,0-41.08,42.62-74.5,95-74.5s95,33.42,95,74.5c0,38.43-37.3,70.15-85,74.09v14c55.44-4.11,99-42.06,99-88.12C338.08,126.91,289.19,87.21,229.08,87.21Z"/><path class="cls-1" d="M214.08,261.21a4,4,0,0,1-4-4V239.34h-4.83a4,4,0,0,1-4-4V211.17a4,4,0,0,1,4-4h46.83a4,4,0,0,1,4,4v24a4,4,0,0,1-4,4h-4.87v17a4,4,0,0,1-8,0v-21a4,4,0,0,1,4-4h4.87v-16H209.25v16.17h4.83a4,4,0,0,1,4,4v21.87A4,4,0,0,1,214.08,261.21Z"/><path class="cls-1" d="M258.08,198.71a19.5,19.5,0,1,1,19.5-19.5A19.53,19.53,0,0,1,258.08,198.71Zm0-31a11.5,11.5,0,1,0,11.5,11.5A11.51,11.51,0,0,0,258.08,167.71Z"/><path class="cls-1" d="M200.08,198.71a19.5,19.5,0,1,1,19.5-19.5A19.53,19.53,0,0,1,200.08,198.71Zm0-31a11.5,11.5,0,1,0,11.5,11.5A11.51,11.51,0,0,0,200.08,167.71Z"/><path class="cls-1" d="M331.13,125.93,293.84,92.2l1.82-3.15a26.5,26.5,0,1,1,38.42,34.75ZM305.55,90.65l25.95,23.48a17.5,17.5,0,1,0-25.95-23.48Z"/><path class="cls-1" d="M127,125.93l-3-2.13a26.5,26.5,0,1,1,38.43-34.75l1.82,3.15Zm12.51-41.14a17.5,17.5,0,0,0-12.87,29.34l26-23.48a17.41,17.41,0,0,0-12.19-5.83Z"/><path class="cls-1" d="M309.25,394.21H150.06a4,4,0,0,1-3.92-4.76l24-124a4,4,0,0,1,5.79-2.78,117.4,117.4,0,0,0,54.15,13.54h.45a117.68,117.68,0,0,0,52.73-12.57,4,4,0,0,1,5.73,2.8l24.19,123a4,4,0,0,1-3.93,4.77Zm-154.34-8H304.39L282.13,273a125.55,125.55,0,0,1-51.61,11.17h-.47A125.4,125.4,0,0,1,177,272.14Z"/><path class="cls-1" d="M339.06,290a117.57,117.57,0,0,1-27-4.55,7,7,0,0,0-3.66-.07l2.94,14.38a131.46,131.46,0,0,0,27.75,4.25Z"/><path class="cls-1" d="M423.7,269.06a7,7,0,0,0-9.78-1.49,117.26,117.26,0,0,1-48.11,20.75c-3,.54-5.9.95-8.75,1.25v14.07q5.67-.52,11.26-1.55a131.35,131.35,0,0,0,53.89-23.24A7,7,0,0,0,423.7,269.06Z"/><path class="cls-1" d="M122.06,290a117.38,117.38,0,0,0,27-4.55,7,7,0,0,1,3.66-.07l-2.93,14.38a131.65,131.65,0,0,1-27.76,4.25Z"/><path class="cls-1" d="M37.42,269.06a7,7,0,0,1,9.79-1.49,117.21,117.21,0,0,0,48.11,20.75c3,.54,5.89.95,8.74,1.25v14.07c-3.77-.35-7.53-.87-11.25-1.55a131.29,131.29,0,0,1-53.89-23.24A7,7,0,0,1,37.42,269.06Z"/><path class="cls-1" d="M39.25,219a7,7,0,0,1-5-2l-13.5-13.5a7,7,0,0,1,9.9-9.9L44.2,207a7,7,0,0,1-5,11.95Z"/><path class="cls-1" d="M72.25,251a7,7,0,0,1-5-2l-13.5-13.5a7,7,0,0,1,9.9-9.9L77.2,239a7,7,0,0,1-5,11.95Z"/><path class="cls-1" d="M58.25,218.48a7,7,0,0,1-5-11.95L66.8,193a7,7,0,0,1,9.9,9.9l-13.5,13.5A7,7,0,0,1,58.25,218.48Z"/><path class="cls-1" d="M26.25,251.48a7,7,0,0,1-4.95-11.95L34.8,226a7,7,0,0,1,9.9,9.9l-13.5,13.5A7,7,0,0,1,26.25,251.48Z"/><path class="cls-1" d="M411.25,219a7,7,0,0,1-4.95-2l-13.5-13.5a7,7,0,0,1,9.9-9.9L416.2,207A7,7,0,0,1,411.25,219Z"/><path class="cls-1" d="M444.25,251a7,7,0,0,1-4.95-2l-13.5-13.5a7,7,0,0,1,9.9-9.9L449.2,239A7,7,0,0,1,444.25,251Z"/><path class="cls-1" d="M430.25,218.48a7,7,0,0,1-4.95-11.95L438.8,193a7,7,0,0,1,9.9,9.9l-13.5,13.5A7,7,0,0,1,430.25,218.48Z"/><path class="cls-1" d="M398.25,251.48a7,7,0,0,1-4.95-11.95L406.8,226a7,7,0,0,1,9.9,9.9l-13.5,13.5A7,7,0,0,1,398.25,251.48Z"/><rect class="cls-2" width="470" height="470"/></g></g></svg>