<svg xmlns="http://www.w3.org/2000/svg" viewBox="0 0 470 470"><defs><style>.cls-1{fill:#410099;}.cls-2{fill:none;}</style></defs><g id="Слой_2" data-name="Слой 2"><g id="Слой_1-2" data-name="Слой 1"><path class="cls-1" d="M365,257.26a32.56,32.56,0,0,0-26-30.51V210a7,7,0,0,0-.06-.91A105.13,105.13,0,0,0,235.05,118H235a105.11,105.11,0,0,0-103.9,91.09,7,7,0,0,0-.06.91v16.76a32.19,32.19,0,0,0,0,63.19v2.69a2,2,0,0,0,0,.25,48.28,48.28,0,0,0,2.34,13.29c3.87,11.86,11.4,18.85,16.89,23.95,12.05,11.19,25.69,18.18,40.56,20.77A75.47,75.47,0,0,0,203.76,352l1.35,0h58.07a84.68,84.68,0,0,0,12-1.09,86.75,86.75,0,0,0,44.65-21.79c4.88-4.55,11.58-10.8,15.75-21.59A51,51,0,0,0,339,291.23c0-.1,0-.2,0-.3v-1A32.59,32.59,0,0,0,365,257.26Zm-246,.47a18.41,18.41,0,0,1,12-16.46v34.15A18.45,18.45,0,0,1,119,257.73Zm206,33a37.18,37.18,0,0,1-2.45,11.7c-3,7.8-7.92,12.37-12.24,16.41a72.56,72.56,0,0,1-37.35,18.2A69.31,69.31,0,0,1,263,338H204.91a61.42,61.42,0,0,1-11.66-.9c-12.16-2.12-23.41-7.92-33.44-17.24-4.86-4.5-10.36-9.62-13.11-18A34.6,34.6,0,0,1,145,292.5v-82A91.13,91.13,0,0,1,208.57,136l.24,0c4.5.15,18.3,2.16,28,9.56,5.19,4,17.08,14.6,15.32,27.5A22.92,22.92,0,0,1,243,188.28a21.52,21.52,0,0,1-9.11,3.65l-.23,0a13.54,13.54,0,0,1-15.75-10.35,13,13,0,0,1,2.19-10.05,13.46,13.46,0,0,1,9-5.66A7,7,0,1,0,227,152.08a27.65,27.65,0,0,0-18.34,11.47,27.07,27.07,0,0,0,22.42,42.68,27.74,27.74,0,0,0,5.17-.49,35.26,35.26,0,0,0,14.86-6A36.9,36.9,0,0,0,266,174.94c2.75-20.18-13.55-35.05-20.69-40.51-1-.75-2-1.45-3-2.13A91.11,91.11,0,0,1,325,210.46Zm14-15.35V241.27a18.12,18.12,0,0,1,0,34.15Z"/><path class="cls-1" d="M255.86,275.65a30.26,30.26,0,0,1-41.72,0,6,6,0,0,0-8.28,8.69,42.27,42.27,0,0,0,58.28,0,6,6,0,0,0-8.28-8.69Z"/><circle class="cls-1" cx="181.5" cy="261.99" r="10.5"/><circle class="cls-1" cx="288.5" cy="261.99" r="10.5"/><rect class="cls-2" width="470" height="470"/></g></g></svg>