<svg xmlns="http://www.w3.org/2000/svg" viewBox="0 0 470 470"><defs><style>.cls-1{fill:#410099;}.cls-2{fill:none;}</style></defs><g id="Слой_2" data-name="Слой 2"><g id="Слой_1-2" data-name="Слой 1"><path class="cls-1" d="M245.61,329.72a20.84,20.84,0,0,0-30.08-27.09,7.47,7.47,0,0,0-1.07.88L204,313.94l17.24-83.06c0-.14,0-.28.07-.43a20.37,20.37,0,0,0-13.06-22.08,19.77,19.77,0,0,0-11.92-.44,20.4,20.4,0,0,0-11.55-17.34c-9.22-4.2-20.52-.35-26.09,8.75a19.94,19.94,0,0,0-2.64-1.63c-9.68-4.9-22.23-1-28.57,9a7,7,0,0,0-.93,2.23L125.2,215a19.75,19.75,0,0,0-4.45-1.83,20.37,20.37,0,0,0-22.13,8.32,7,7,0,0,0-.94,2l-3.19,11.14C88.66,255,84.25,270.4,79.18,288l-.11.38c-6.64,23.11-11,38.37-11.16,59.52a161.18,161.18,0,0,0,2.61,29.79A7,7,0,0,0,84.3,375.2,147.1,147.1,0,0,1,81.91,348C82,328.79,86,315,92.53,292.27l.11-.38c5.07-17.63,9.48-33,15.31-53.36l2.82-9.86a6.39,6.39,0,0,1,6.3-2,6.26,6.26,0,0,1,4.15,3.9L110.57,280a7,7,0,0,0,13.67,3l15.7-69.66c2.82-3.61,7.15-4.48,9.81-3.14a7.54,7.54,0,0,1,3.59,5.83l-15.77,74a7,7,0,0,0,13.67,3L171,206.16c2.11-3,5.73-3.88,8-2.83a6.48,6.48,0,0,1,3.38,5.54l-16.84,84.21a7,7,0,0,0,13.68,3L196,224.47a6.13,6.13,0,0,1,11.48,3.82L185.56,334a7,7,0,0,0,11.8,6.38L223.79,314a6.82,6.82,0,0,1,9.72,8.6l-61.37,70.27a7,7,0,1,0,10.54,9.21l62-71A7.29,7.29,0,0,0,245.61,329.72Z"/><path class="cls-1" d="M400.33,325.38c-2.84-18.3-8.47-30.95-23.52-64.77-7.09-15.92-14.35-32.18-21-47.07-4.68-10.21-16.46-14.9-26.26-10.46a18.56,18.56,0,0,0-5.8,4.14l-1.84-4.44a7.56,7.56,0,0,0-.73-1.34A20.53,20.53,0,0,0,296.73,194a19.43,19.43,0,0,0-5.86,3.79c-4.71-8.23-14.39-12.52-23.31-10.07a20.25,20.25,0,0,0-12.36,10,21.59,21.59,0,0,0-2.2,13.88,19.75,19.75,0,0,0-11.24,2.85,20.13,20.13,0,0,0-9.29,19.91,7.32,7.32,0,0,0,.36,1.45l33.5,92.34a7,7,0,0,0-1.72,11.37,109,109,0,0,0,11.76,9.63c5.14,3.62,8.53,6,13.54,7.11a25.16,25.16,0,0,0,5.43.59,30.61,30.61,0,0,0,13.05-3.09,7,7,0,0,0-6-12.67c-4.29,2-7.54,1.93-9.52,1.5s-3.77-1.57-8.46-4.88c-.4-.28-.79-.58-1.19-.87a7,7,0,0,0-.27-3.8L246.3,231.91a5.83,5.83,0,0,1,9.29-5.19l28.34,69.38A7,7,0,0,0,297,291l-30-80.87a7.44,7.44,0,0,1,.53-5.8,6.19,6.19,0,0,1,3.71-3.15,6.92,6.92,0,0,1,7.7,4L310.87,289A7,7,0,0,0,324,284.14l-25.49-72.55a6.24,6.24,0,0,1,3.56-4.67,6.46,6.46,0,0,1,7.2,2.05l28.65,69.17A7,7,0,0,0,351,273.05l-18.73-51.26a6,6,0,0,1,3-6c2.4-1.09,6.17.1,7.72,3.49,6.66,14.83,13.92,31.08,21,47,15.46,34.75,20,45.47,22.47,61.23a136.6,136.6,0,0,1,.95,34.25,7,7,0,0,0,6.3,7.64,5.17,5.17,0,0,0,.68,0,7,7,0,0,0,7-6.33A151.68,151.68,0,0,0,400.33,325.38Z"/><path class="cls-1" d="M350.56,336.72c-9.66-10.5-12.82-13.12-16.65-15.33-7.4-4.26-16.05-6.26-25.74-5.93a7,7,0,0,0,.24,14h.24c7-.25,13.17,1.13,18.26,4.07,2.1,1.21,4.28,2.82,13.35,12.68,5,5.45,10,11.1,14.81,16.78a7,7,0,0,0,10.69-9C360.83,348.11,355.72,342.32,350.56,336.72Z"/><path class="cls-1" d="M292.6,379.75A165.15,165.15,0,0,0,254,348.42a7,7,0,0,0-7.1,12.07,149.17,149.17,0,0,1,46.83,43,7,7,0,0,0,11.45-8.05A165,165,0,0,0,292.6,379.75Z"/><path class="cls-1" d="M240.43,160a7,7,0,0,0,7,6.5l.51,0a7,7,0,0,0,6.48-7.48L248,70a7,7,0,0,0-14,1Z"/><path class="cls-1" d="M284.81,173a7,7,0,0,0,9.1-3.9l12-30a7,7,0,0,0-13-5.2l-12,30A7,7,0,0,0,284.81,173Z"/><path class="cls-1" d="M203.12,175.53a7,7,0,0,0,12.58-6.14l-20-41a7,7,0,1,0-12.58,6.14Z"/><rect class="cls-2" width="470" height="470"/></g></g></svg>