<svg xmlns="http://www.w3.org/2000/svg" viewBox="0 0 470 470"><defs><style>.cls-1{fill:#410099;}.cls-2{fill:none;}</style></defs><g id="Слой_2" data-name="Слой 2"><g id="Слой_1-2" data-name="Слой 1"><path class="cls-1" d="M352.49,260.45a8,8,0,0,0,0-1A31.28,31.28,0,0,0,346,242.73a31.93,31.93,0,0,0-17.49-11.2V149a6.19,6.19,0,0,0-.08-1.05c-.41-2.68-3.13-16.45-16.51-24a33.86,33.86,0,0,0-27.1-2.51C232.62,96.62,180.59,98.31,151.66,126a75.5,75.5,0,0,0-18.74,29.66l-9,23.95a7,7,0,0,0,9.53,8.79l7-3.31v46.73A31.83,31.83,0,0,0,124,242.73a31.28,31.28,0,0,0-6.45,16.74,8,8,0,0,0,0,1,31.81,31.81,0,0,0,24,29.12,96.15,96.15,0,0,0,30.17,52.37A94.52,94.52,0,0,0,232.34,366c.71,0,1.41,0,2.12,0a94.42,94.42,0,0,0,61.17-22.7,96,96,0,0,0,31.8-53.53,31.85,31.85,0,0,0,25.06-29.37ZM305.05,136.11c7.18,4.08,9.09,11.46,9.49,13.52v65.5a23.66,23.66,0,0,1-12-3.26c-12-7.16-12.08-23.24-12.08-23.42V134.38A19.88,19.88,0,0,1,305.05,136.11ZM212.18,118c20.84-.26,43.71,5.23,66.32,15.92v23.64a7.49,7.49,0,0,0-.68.7c-7.38,9.19-20.18,21.51-39.28,28.09-36.5,12.59-71.83-7.73-85.32-17l-.32-.22a6.73,6.73,0,0,0-1.18-.63l-.47-.34a7,7,0,0,0-6.73-.42l-1.42.67,2.25-6a46.4,46.4,0,0,1,17-3.34h.1c6.53,0,11.46,1.51,16.24,3,4.31,1.3,8.72,2.63,13.73,2.63a27.9,27.9,0,0,0,6.42-.74c7.52-1.76,14.36-6.52,20.35-14.14a6,6,0,0,0-9.44-7.41c-4.26,5.42-8.85,8.74-13.65,9.86s-8.58-.07-13.94-1.69c-5.08-1.53-11.39-3.44-19.67-3.47a57.79,57.79,0,0,0-10.63,1,57.31,57.31,0,0,1,9.45-11.94C173.42,124.54,191,118.28,212.18,118ZM131.52,260.09a17.28,17.28,0,0,1,3.51-8.77,16.67,16.67,0,0,1,5.47-4.56v27.45a17.92,17.92,0,0,1-4-3.06A18.5,18.5,0,0,1,131.52,260.09ZM232.66,352c-38.81-.89-72.33-30.74-78.16-69.52V184.36c13.51,8,35.25,18,59.85,18a85.83,85.83,0,0,0,28.11-4.65,97.27,97.27,0,0,0,36-22.4v13.13c0,.94.14,23.11,17.92,33.74a35.61,35.61,0,0,0,18.12,5v55.38C308.42,323.11,273.32,353,232.66,352Zm100.82-80.88a17.58,17.58,0,0,1-4.94,3.55V246.29a17,17,0,0,1,6.43,5,17.28,17.28,0,0,1,3.51,8.77A18.5,18.5,0,0,1,333.48,271.15Z"/><path class="cls-1" d="M282.91,297.79C278.15,302.57,260.7,318,234.32,318h-.75c-26-.28-43.17-15.55-47.82-20.23a6,6,0,1,0-8.5,8.47c7,7,26.49,23.43,56.18,23.76h.89c31,0,51.51-18.16,57.09-23.77a6,6,0,1,0-8.5-8.47Z"/><path class="cls-1" d="M184.38,255.52a8.52,8.52,0,0,1,5.63,2.41,5.5,5.5,0,1,0,7.74-7.81,19.23,19.23,0,0,0-27.12,0,5.5,5.5,0,1,0,7.74,7.81A8.68,8.68,0,0,1,184.38,255.52Z"/><path class="cls-1" d="M284.62,244.53a19.33,19.33,0,0,0-14,5.59,5.5,5.5,0,1,0,7.74,7.81,8.65,8.65,0,0,1,6-2.41,8.52,8.52,0,0,1,5.63,2.41,5.5,5.5,0,1,0,7.74-7.81A19.5,19.5,0,0,0,284.62,244.53Z"/><rect class="cls-2" width="470" height="470"/></g></g></svg>