<svg xmlns="http://www.w3.org/2000/svg" viewBox="0 0 333.47 223.56"><defs><style>.cls-1{opacity:0.2;}.cls-2{fill:#eb9122;}.cls-3{fill:#f2b13e;}.cls-4{fill:#ed9a2a;}.cls-5{fill:#fbdb63;}.cls-6{fill:#f6e1b6;}.cls-7{fill:#e9be7f;}.cls-8{fill:#efcf99;}.cls-9{fill:#df6c3f;}.cls-10{fill:#ef954d;}.cls-11{fill:#f2ab51;}</style></defs><g id="Слой_2" data-name="Слой 2"><g id="Слой_1-2" data-name="Слой 1"><path class="cls-1" d="M333.14,55.58a10,10,0,0,0-5.75-6.66l-.18-.07-22.5-9.6a9.81,9.81,0,0,0-2.13-.64L297,36.1a9.89,9.89,0,0,0-1.47-.52L261.68,21a10.12,10.12,0,0,0-3.95-.81,9.87,9.87,0,0,0-3.05.48l-37.37,9.72a160.5,160.5,0,0,1-30.8-3c-15.65-3.1-23.51-4.65-32.3-10.18-1.89-1.18-3.45-2.31-5.1-3.51a63.22,63.22,0,0,0-14.88-8.51A69.53,69.53,0,0,0,110,0h-.91A63.66,63.66,0,0,0,83.77,5.28,10,10,0,0,0,78.08,17L90.6,64a10,10,0,0,0-3.28,3.66L72.43,96.08a10,10,0,0,0-.83,7.11l10.51,41.16a10,10,0,0,0,4.28,5.93l25.83,16.64a10,10,0,0,0,5.41,1.59h.18l12.32,47.55a10,10,0,0,0,9.67,7.5,9.59,9.59,0,0,0,1.07-.06,63.45,63.45,0,0,0,25.44-8.32,69.28,69.28,0,0,0,18.54-16.41A63.45,63.45,0,0,0,193.62,184c.85-1.86,1.65-3.61,2.71-5.57,4.94-9.14,11-14.36,23.12-24.76a160.1,160.1,0,0,1,27-18.71l35.32-9.29a10,10,0,0,0,5.42-3.63l5-6.6,17.71-23.15c.27-.3.52-.61.76-.93l.55-.78L331,64.76l.43-.56A10,10,0,0,0,333.14,55.58Z"/><path class="cls-2" d="M124.48,152.26l15.76,60.86a53.88,53.88,0,0,0,21.46-7,58.94,58.94,0,0,0,15.76-14c5.89-7.4,6.74-11.87,10.51-18.83,5.81-10.76,12.77-16.74,25.39-27.58a170.5,170.5,0,0,1,32.4-21.9Z"/><path class="cls-3" d="M131.48,150.45l13.06,50.41a44.55,44.55,0,0,0,17.78-5.8,48.65,48.65,0,0,0,13.05-11.61c4.88-6.13,5.59-9.83,8.71-15.59,4.82-8.92,10.59-13.87,21-22.86A141.62,141.62,0,0,1,232,126.87Z"/><path class="cls-2" d="M104.39,74.77,88.17,14a53.89,53.89,0,0,1,22.12-4.46A58.94,58.94,0,0,1,130.91,14c8.77,3.54,11.71,7,18.41,11.22,10.36,6.51,19.36,8.29,35.68,11.52a170.16,170.16,0,0,0,39,3.12Z"/><path class="cls-3" d="M111.38,72.91,98,22.59a44.43,44.43,0,0,1,18.32-3.69,48.54,48.54,0,0,1,17.08,3.68c7.27,2.93,9.71,5.81,15.26,9.29,8.58,5.39,16,6.87,29.55,9.55A140.82,140.82,0,0,0,210.45,44Z"/><polygon class="cls-4" points="81.72 100.28 92.23 141.44 118.06 158.08 279.63 115.61 323.42 57.84 258.17 29.79 96.61 71.83 81.72 100.28"/><polygon class="cls-5" points="320.42 61.84 323.42 57.84 258.31 29.99 96.75 72.02 81.86 100.48 88.75 127.43 320.42 61.84"/><polygon class="cls-3" points="81.73 100.31 92.23 141.44 92.31 141.49 293.92 87.9 302.93 85.16 322.42 57.84 293.34 44.8 81.73 100.31"/><polyline class="cls-6" points="279.62 115.6 323.42 57.84 258.16 29.78"/><polygon class="cls-7" points="268.39 70.33 279.68 115.48 323.47 58.25 268.39 70.33"/><polygon class="cls-8" points="263.71 52 304.56 62.39 273.78 92.72 263.71 52"/><polygon class="cls-3" points="301.21 48.01 308.24 78.15 323.9 57.69 301.21 48.01"/><polygon class="cls-4" points="304.56 62.39 308.24 78.15 323.9 57.69 323.71 57.61 304.56 62.39"/><path class="cls-9" d="M73.76,102.13l10.18,40c-3.73,3.2-20.22,16.65-44.66,15.72A65.43,65.43,0,0,1,0,142.54a65.56,65.56,0,0,1,26.9-32.46C47.89,97.35,68.94,101.14,73.76,102.13Z"/><path class="cls-10" d="M74.66,106.76l7.8,30.66c-2.86,2.45-15.49,12.75-34.2,12A50,50,0,0,1,18.18,137.7a50.17,50.17,0,0,1,20.6-24.85C54.85,103.1,71,106,74.66,106.76Z"/><path class="cls-11" d="M76.46,112.5l4.8,20.34a32.53,32.53,0,0,1-42.46-.53,33.11,33.11,0,0,1,13.89-16.19A33.5,33.5,0,0,1,76.46,112.5Z"/></g></g></svg>