<svg xmlns="http://www.w3.org/2000/svg" viewBox="0 0 255 255"><defs><style>.cls-1{fill:#eeec95;}.cls-2{fill:#6e8396;}.cls-3{fill:#5f5e42;}.cls-4{fill:#778aaa;}</style></defs><g id="Слой_2" data-name="Слой 2"><g id="Слой_1-2" data-name="Слой 1"><circle class="cls-1" cx="127.5" cy="127.5" r="127.5"/><path class="cls-2" d="M160,47c33,12.6,63.61,32,91.81,52a127.53,127.53,0,0,0-194-78.28C90,26,124.28,33.36,160,47Z"/><path class="cls-2" d="M120,133c32,7.79,73.44,22,122.3,50q1.92-3.94,3.57-8A699.65,699.65,0,0,0,131,107,699,699,0,0,0,16.34,65a126.65,126.65,0,0,0-14,37.92C59.15,119.78,100.18,128.18,120,133Z"/><path class="cls-2" d="M105,196c-29.9-14-63.2-19.16-95.71-20.66a127.56,127.56,0,0,0,178.84,64.34A935,935,0,0,0,105,196Z"/><circle class="cls-3" cx="112" cy="50" r="19"/><circle class="cls-4" cx="108" cy="50" r="19"/><circle class="cls-3" cx="44.43" cy="144.43" r="13.57"/><circle class="cls-4" cx="41.57" cy="144.43" r="13.57"/></g></g></svg>