<svg xmlns="http://www.w3.org/2000/svg" viewBox="0 0 1920 1080"><defs><style>.cls-1{fill:#fff;}.cls-2,.cls-5{fill:#ea96c0;}.cls-3{opacity:0.6;}.cls-4{fill:none;stroke:#ea96c0;stroke-miterlimit:10;stroke-width:5px;}.cls-5{opacity:0.5;}</style></defs><g id="Слой_2" data-name="Слой 2"><g id="Слой_1-2" data-name="Слой 1"><rect class="cls-1" width="1920" height="1080"/><path class="cls-2" d="M1003.78,360.61a.5.5,0,0,1,.93,0l2.67,7.19c0,.11.21.21.31.31l7.2,2.68a.5.5,0,0,1,0,.92l-7.2,2.67c-.1,0-.21.21-.31.31l-2.67,7.2a.51.51,0,0,1-.93,0l-2.67-7.2c0-.1-.21-.2-.31-.31l-7.2-2.67a.5.5,0,0,1,0-.92l7.2-2.68c.1,0,.21-.2.31-.31Zm15.42-3.4a.51.51,0,0,1,.93,0l.93,2.37c0,.1.2.2.3.31l2.37.92a.51.51,0,0,1,0,.93l-2.37.92c-.1,0-.2.21-.3.31l-.93,2.26a.51.51,0,0,1-.93,0l-.92-2.36c0-.11-.21-.21-.31-.31l-2.36-.93a.49.49,0,0,1,0-.92l2.36-.93c.1,0,.21-.2.31-.31Z"/><g id="mask1_135_77" data-name="mask1 135 77" class="cls-3"><path class="cls-4" d="M1776.58,35.16c-1.61,4,0,7.23,2,14.07,2,8.44,9.24,19.69,7.23,21.7s-7.23.81-9.65,0c-8.84-8-24.12-21.7-28.94-19.29-2.81,1.2-3.22,4.42-2.41,7.23,2.41,7.24,21.7,21.71,24.12,24.12,2.81,2.82,6.43,3.62,4.82,7.24-1.21,2.41-9.65-.41-17.69-3.22-6.43-2.41-12.86-4.82-13.66-4-2.41,2.41-4.42,8,7.23,12.06s24.12,9.65,21.71,9.65c-8.84-.81-26.93-1.61-28.94,2.41s9.64,7.24,14.47,7.24c8,0,24.12,2.81,24.12,14.47s-7.24,18.89-12.06,31c-10.86,29.74-26.53,76.77-26.53,76.77s-11.26,25.33-19.3,40.6c-14.47,30.15-43.41,90.05-45.42,86.43-2-4-12.86-2.42-19.29-4.83,2-7.63.8-22.51,9.64-31.35,7.24-11.25,18.49-26.93,9.65-30.95-9.65-4.82-16.48-24.12-19.29-26.53-2.42-2.41-21.71-2.41-21.71-2.41s7.23-21.31-2.42-16.89c-9.64,4.83-75.16-22.51-84-38.18,19.29,0,24.11-9.65,24.11-14.47C1494,173,1449.77,253,1437.71,296l7.24-52.66c-8,10.45-25.73,35.77-33.37,55.07s4.83,52.66,12.06,67.13c-12.06-4-35.37-10.05-33.36-2.42s20.1,12.87,28.94,14.48l-7.23,9.65c.8,8,3.21,21.7,7.23,12.06s11.26-13.67,14.47-14.48c2,34.57,33.77,56.68,69.54,62.31,22.51,3.62,88-5.63,57.49-9.65s-47.84-19.29-52.66-26.53c34.57,26.93,73.56,20.9,88.43,14.47,9.65-4.82,20.1-7.23,23.72-7.23,4.82,0,16.08,2.41,21.7,2.41-19.29,11.66-28.94,37.38-40.6,52.66-6.43,17.68-28.94,69.54-28.94,69.54s-14.07,62.71-16.08,70.34c-2,8-13.66,7.24-19.29,5.63-3.22-.8-12.06-.4-11.26,2.41s13.67,5.63,20.1,6.84c1.61.4-8,2-16.88,2.81s-8.44,4.82-7.24,6.83c.41.81,4.83.4,9.25-.4,6.43-.8,13.26-1.2,14.07.8.8,2.82-2.41,2.82-4.83,4-2,1.21-18.08,7.64-20.9,12.47-1.2,1.6-1.2,4,.4,5.22,2.82,2.41,16.08-4,23.72-8,2,0,5.63,0,6.84,1.61s-5.63,8-8.85,13.67c-2.41,4.42-4,6.43-3.62,9.64s5.23,2.82,8-3.21,22.51-41,45.83-18.49c0,0,4.82,2.81,5.63-.4,0,0,2.81-4-3.62-8s-17.69-15.68-15.28-24.93c2.41-10.85,23.72-46.62,23.72-46.62s24.92-47.44,35.77-56.68c6.44,6.83,13.27,6.43,16.89,4.82,22.91-22.91,20.9-5.63,24.12,2.41,13.26,19.3,13.66,57.48,12,74.37-12,25.73-33.36,74-24.11,62.31,9.64-11.66,18.49-11.26,21.7-9.65C1635.08,706.05,1648.75,774,1662,801.32c45.83-9.65,38.19,0,38.19,0a204,204,0,0,0-14.07,16.88c-7.23,9.64-39.8,64.72-59.89,90.85-9.65-2.42-29.75-5.23-33.37,2.41-4.82,9.64,0,59.89,35.78,98.08,28.94,30.55,29.75,8,26.53-7.24-6.43-7.23-17.29-27.33-9.65-50.24s72.76-98.09,102.91-126.63l-24.12,47.84c4,24.92-1.21,76-16.89,84-14.46,7.24-17.68,14.47-19.29,21.71,16.88,31,45,42.2,62.31,47.83,17.68,5.63,45,10,14.47-16.88s1.6-139.08,21.7-191.74c9.65,4.82,28.14,8,26.54-16.88-2-24.93,10.45-90.05,16.88-119.79.8-12.06,1.6-34.17.4-34.17,1.2-2.81-2.82-2.81-6.83-2.81-5.23,0-10.46,0-3.22-6,13.26-11.66,9.65-53.46,9.65-71.55-16.88-47.84-12.06-62.31-19.3-86.43-1.61-5.63-26.93-45.82-45.42-64.72,0,0-4.82,0-7.24-2.41s24.93-29.75,19.3-33.76-24.93-24.12-33.37-33.37c4,3.22,13.27,7.64,19.3,0,5.63-7.64,13.66-49.44,16.88-69.54,0,0,9.25-35,14.47-57.48,8.44-37,8.44-59.89,18.89-95.67,4.43-15.27,19.3-25.73,29-28.94s7.23-9.65,7.23-9.65c0-4.82-7.23-2.41-7.23-2.41-38.19,22.91-52.66-30.95-54.67-40.6-1.21-6.43-4.42-9.25-6.83-9.25C1778.18,33.15,1777,33.55,1776.58,35.16Z"/></g><path class="cls-2" d="M1608.88,744.91a2.37,2.37,0,0,1,4.37,0l4.35,11.15c0,.48,1,1,1.46,1.45l11.15,4.36a2.37,2.37,0,0,1,0,4.36l-11.15,4.36c-.48,0-1,1-1.46,1.46l-4.35,10.66a2.37,2.37,0,0,1-4.37,0l-4.36-11.15c0-.48-1-1-1.45-1.45l-11.14-4.36a2.36,2.36,0,0,1,0-4.36l11.14-4.37c.48,0,1-1,1.45-1.45Z"/><path class="cls-5" d="M1491.88,509.66a2.36,2.36,0,0,1,4.36,0l12.6,33.92c0,.48,1,1,1.46,1.45l33.92,12.6a2.37,2.37,0,0,1,0,4.36l-33.92,12.6c-.49,0-1,1-1.46,1.45L1496.24,610a2.36,2.36,0,0,1-4.36,0L1479.29,576c0-.48-1-1-1.46-1.45L1443.92,562a2.36,2.36,0,0,1,0-4.36l33.91-12.6c.49,0,1-1,1.46-1.45Z"/><path class="cls-2" d="M1136.88,956.91a2.37,2.37,0,0,1,4.37,0l4.35,11.15c0,.48,1,1,1.46,1.45l11.15,4.36a2.37,2.37,0,0,1,0,4.36l-11.15,4.36c-.48,0-1,1-1.46,1.46l-4.35,10.66a2.37,2.37,0,0,1-4.37,0l-4.36-11.15c0-.48-1-1-1.45-1.45l-11.14-4.36a2.36,2.36,0,0,1,0-4.36l11.14-4.37c.48,0,1-1,1.45-1.45Z"/><path class="cls-5" d="M1019.88,721.66a2.36,2.36,0,0,1,4.36,0l12.6,33.92c0,.48,1,1,1.46,1.45l33.92,12.6a2.37,2.37,0,0,1,0,4.36l-33.92,12.6c-.49,0-1,1-1.46,1.45L1024.24,822a2.36,2.36,0,0,1-4.36,0L1007.29,788c0-.48-1-1-1.46-1.45L971.92,774a2.36,2.36,0,0,1,0-4.36l33.91-12.6c.49,0,1-1,1.46-1.45Z"/><path class="cls-2" d="M1422.79,92.36a2.36,2.36,0,0,1,0-4.36l11.14-4.36c.49,0,1-1,1.46-1.46L1439.75,71a2.36,2.36,0,0,1,4.36,0l4.36,11.14c0,.49,1,1,1.45,1.46L1460.58,88a2.36,2.36,0,0,1,0,4.36l-11.14,4.36c-.49,0-1,1-1.45,1.45l-4.37,11.14a2.36,2.36,0,0,1-4.36,0l-4.36-11.14c0-.48-1-1-1.45-1.45Z"/><path class="cls-5" d="M1187.54,209.36a2.36,2.36,0,0,1,0-4.36l33.91-12.6c.49,0,1-1,1.46-1.45l12.6-33.92a2.36,2.36,0,0,1,4.36,0L1252.46,191c0,.48,1,1,1.46,1.45l33.92,12.6a2.37,2.37,0,0,1,0,4.36L1253.92,222c-.49,0-1,1-1.46,1.46l-12.59,33.91a2.36,2.36,0,0,1-4.36,0l-12.6-33.91c0-.49-1-1-1.46-1.46Z"/><path class="cls-2" d="M1331.59,821.65a.81.81,0,0,1,0-1.51l11.75-4.37c.17,0,.34-.34.51-.51l4.37-11.76a.82.82,0,0,1,1.51,0l4.37,11.76c0,.17.33.34.5.51l11.76,4.37a.82.82,0,0,1,0,1.51L1354.6,826c-.17,0-.34.34-.5.51l-4.37,11.76a.82.82,0,0,1-1.51,0l-4.37-11.76c0-.17-.34-.34-.51-.51Z"/></g></g></svg>