<svg width="34" height="34" viewBox="0 0 34 34" fill="none" xmlns="http://www.w3.org/2000/svg">
<path d="M17.48 24.12C16.4267 24.12 15.4533 23.9467 14.56 23.6C13.6667 23.24 12.8933 22.74 12.24 22.1C11.5867 21.46 11.0733 20.7067 10.7 19.84C10.34 18.9733 10.16 18.0267 10.16 17C10.16 15.9733 10.34 15.0267 10.7 14.16C11.0733 13.2933 11.5867 12.54 12.24 11.9C12.9067 11.26 13.6867 10.7667 14.58 10.42C15.4733 10.06 16.4467 9.88 17.5 9.88C18.5133 9.88 19.4667 10.0533 20.36 10.4C21.2533 10.7333 22.0067 11.24 22.62 11.92L21.68 12.86C21.1067 12.2733 20.4733 11.8533 19.78 11.6C19.0867 11.3333 18.34 11.2 17.54 11.2C16.7 11.2 15.92 11.3467 15.2 11.64C14.48 11.92 13.8533 12.3267 13.32 12.86C12.7867 13.38 12.3667 13.9933 12.06 14.7C11.7667 15.3933 11.62 16.16 11.62 17C11.62 17.84 11.7667 18.6133 12.06 19.32C12.3667 20.0133 12.7867 20.6267 13.32 21.16C13.8533 21.68 14.48 22.0867 15.2 22.38C15.92 22.66 16.7 22.8 17.54 22.8C18.34 22.8 19.0867 22.6667 19.78 22.4C20.4733 22.1333 21.1067 21.7067 21.68 21.12L22.62 22.06C22.0067 22.74 21.2533 23.2533 20.36 23.6C19.4667 23.9467 18.5067 24.12 17.48 24.12Z" fill="white"/>
<circle cx="17" cy="17" r="16.5" stroke="white"/>
</svg>
