<svg width="1540" height="306" viewBox="0 0 1540 306" fill="none" xmlns="http://www.w3.org/2000/svg">
<g clip-path="url(#clip0_17_3046)">
<path d="M187.345 81.2178H33.5542C29.1544 81.1994 24.7943 82.05 20.7242 83.7208C16.654 85.3915 12.9539 87.8495 9.83624 90.9538C6.7186 94.058 4.2448 97.7473 2.55683 101.81C0.868862 105.872 -3.85122e-05 110.228 1.28026e-09 114.628L1.28026e-09 272.59C1.28026e-09 281.451 3.52044 289.949 9.78686 296.214C16.0533 302.48 24.5524 306 33.4144 306H187.205C191.605 306.018 195.965 305.168 200.035 303.497C204.105 301.826 207.805 299.368 210.923 296.264C214.04 293.16 216.514 289.47 218.202 285.408C219.89 281.345 220.759 276.989 220.759 272.59V114.628C220.759 105.767 217.239 97.2689 210.972 91.0033C204.706 84.7378 196.207 81.2178 187.345 81.2178ZM145.402 236.664C145.421 237.752 145.22 238.833 144.812 239.843C144.405 240.852 143.798 241.769 143.028 242.538C142.258 243.308 141.341 243.915 140.332 244.322C139.323 244.73 138.241 244.931 137.153 244.912H83.8856C82.7971 244.931 81.716 244.73 80.7067 244.322C79.6973 243.915 78.7804 243.308 78.0107 242.538C77.2409 241.769 76.634 240.852 76.2262 239.843C75.8183 238.833 75.6179 237.752 75.6369 236.664V150.554C75.6369 148.366 76.5059 146.268 78.0529 144.722C79.5998 143.175 81.6979 142.306 83.8856 142.306H136.734C138.921 142.306 141.019 143.175 142.566 144.722C144.113 146.268 144.982 148.366 144.982 150.554L145.402 236.664Z" fill="#3C3C3B" fill-opacity="0.4"/>
<path d="M265.638 306V142.166L240.472 81.218H336.242L404.049 166.909L456.198 103.165C461.943 97.5004 468.549 92.7822 475.771 89.186C483.738 85.3851 492.297 82.974 501.077 82.0568H548.612V305.721H471.297V176.415L405.447 256.375L341.974 177.254L342.673 306H265.638Z" fill="#3C3C3B" fill-opacity="0.4"/>
<path d="M574.197 80.9382L598.104 142.446V306H795.236C790.482 293.139 785.589 280.139 781.255 267.278C781.255 266.02 779.857 264.063 778.738 261.966C777.311 258.646 775.162 255.685 772.447 253.299C770.165 251.603 767.451 250.586 764.617 250.364H674.72V215.276H744.625C747.157 213.361 749.456 211.156 751.475 208.706C756.283 202.337 759.754 195.062 761.681 187.318C763.456 181.759 764.949 176.113 766.155 170.404H673.322V139.37H768.951C772.08 136.447 774.849 133.162 777.2 129.585C782.151 121.864 785.876 113.423 788.245 104.563C790.063 98.8313 792.3 90.5837 794.257 82.0566L574.197 80.9382Z" fill="#3C3C3B" fill-opacity="0.4"/>
<path d="M1032.63 94.3581C1026.04 87.3086 1017.46 82.4328 1008.03 80.3792H803.624L826.133 142.026L824.875 306H1006.63C1016.54 305.041 1025.8 300.668 1032.84 293.63C1039.88 286.592 1044.26 277.325 1045.21 267.418V121.617C1044.08 111.41 1039.66 101.847 1032.63 94.3581ZM969.997 237.643C969.992 239.153 969.666 240.645 969.039 242.019C968.412 243.393 967.5 244.617 966.362 245.611C964.489 247.37 962.167 248.579 959.651 249.106H902.05V137.274C920.784 137.274 940.358 137.274 959.092 137.274C960.756 137.293 962.396 137.679 963.894 138.403C965.392 139.128 966.712 140.174 967.76 141.467C969.231 143.393 970.018 145.754 969.997 148.177V237.643Z" fill="#3C3C3B" fill-opacity="0.4"/>
<path d="M1072.48 83.0352H1172.44V306H1095.13V143.704L1072.48 83.0352Z" fill="#3C3C3B" fill-opacity="0.4"/>
<path d="M1398.09 82.0566H1212.43L1236.33 145.381L1203.2 306H1277.02L1284.15 272.73H1358.81L1364.54 305.72H1443.95L1398.09 82.0566ZM1293.52 225.761L1311.41 139.79H1331.54L1349.44 225.761H1293.52Z" fill="#3C3C3B" fill-opacity="0.4"/>
<path d="M1445.91 0L1467.3 55.7762V213.739H1540V0H1445.91Z" fill="#3C3C3B" fill-opacity="0.4"/>
<path d="M1540 233.309H1466.32V306H1540V233.309Z" fill="#3C3C3B" fill-opacity="0.4"/>
</g>
<defs>
<clipPath id="clip0_17_3046">
<rect width="1540" height="306" fill="white"/>
</clipPath>
</defs>
</svg>
