<svg xmlns="http://www.w3.org/2000/svg" viewBox="0 0 526.28 164.01"><defs><style>.cls-1,.cls-2{fill:#fff;}.cls-1{fill-rule:evenodd;}</style></defs><g id="Слой_2" data-name="Слой 2"><g id="Слой_1-2" data-name="Слой 1"><path class="cls-1" d="M26.51,56.67a2.27,2.27,0,0,1,2.27-2.31H47a2.26,2.26,0,0,1,2.27,2.31V88.45A2.37,2.37,0,0,1,47,90.88H28.78a2.38,2.38,0,0,1-2.27-2.43ZM0,44v57c0,6.62,5.09,12.06,11.26,12.06H64.49c6.17,0,11.26-5.44,11.26-12.06V44C75.75,37.43,70.66,32,64.49,32H11.26C5.09,32,0,37.43,0,44Z"/><path class="cls-1" d="M161,113.14h26.52V32H175.87a29.22,29.22,0,0,0-21.75,10.21L139.19,62.82h-.44L115.27,32H82.81l7.57,22.26v58.9H116.9V66.53h.43l21.42,28.76h.44l21.42-28.76H161Z"/><path class="cls-1" d="M203.77,54.36v58.78h67.3L266,98.07c-1.41-4.29-4.66-5.22-6.6-5.22H230.28V80.68h20.77c2.17,0,4.87-.82,5.85-3.59l4.65-13.69H230.28V52.27h29.65a5.94,5.94,0,0,0,5.52-3.71L271.07,32H196.2Z"/><path class="cls-1" d="M308.9,92.51V52.74h18a4.88,4.88,0,0,1,4.76,5V87.4a5,5,0,0,1-4.76,5.11ZM274.81,32l7.57,22.38v58.78H342c10.82,0,16.12-9.73,16.12-16.11V49.25C358.13,42.88,352.61,32,342,32Z"/><polygon class="cls-1" points="366.74 31.98 374.32 54.36 374.32 113.14 400.83 113.14 400.83 31.98 366.74 31.98"/><path class="cls-1" d="M447.52,52.74h7l5.85,30.95H441.68Zm-11.47,60.4,2.27-11.94h25.45L466,113.14h27L477.71,32H414.09l7.57,22.38-11.15,58.78Z"/><path class="cls-1" d="M494.52,2.89l7.2,20.93V79.75h24.56V2.89Zm7.2,83.94v26.31h24.56V86.83Z"/><path class="cls-1" d="M.73,129.48c.62,2,1.09,3.57,2.8,4.37V155H9.09V141h.52c.14.95,1.28,3.12,2.28,3.12H23.67V155h5.55V129.48H23.67V140H9.09V129.48Z"/><path class="cls-1" d="M42.84,151.44a1.75,1.75,0,0,1-2-1.6v-5a1.84,1.84,0,0,1,2-1.61H55.52v8.24ZM37,132.05c.28.8,1.14,1.8,2,1.8H52.48a2.74,2.74,0,0,1,3,3v2.86H41.22c-3,0-5.84,1.46-5.84,4.47v6.49c0,3.27,3.14,4.32,5.51,4.32h11c1.66,0,2.76-1.7,3.28-2.76h.38V155H61v-19.9a5.64,5.64,0,0,0-5.56-5.58H36.19Z"/><path class="cls-1" d="M87.57,140.44c1-.3,2.09-1.11,2.09-2.11v-8.85H74.18c-3.47,0-7,1.76-7,5.58v13.52c0,3.77,2,6.38,6.22,6.38H87.19c1.76,0,2.28-2.86,2.8-4.37H75.32a2.71,2.71,0,0,1-2.61-2.76V136.57a2.67,2.67,0,0,1,2.61-2.72h9.54v7.54Z"/><path class="cls-1" d="M93.3,129.48c.52,1.51,1.23,4.37,2.37,4.37h7.93V155h5.56V133.85H119v-4.37Z"/><path class="cls-1" d="M129.25,135.91a2.47,2.47,0,0,1,2.37-2.56h10a2.49,2.49,0,0,1,2.37,2.56v12.62a2.46,2.46,0,0,1-2.33,2.56h-10a2.5,2.5,0,0,1-2.42-2.56Zm-5.51-1.15v14.93A5.3,5.3,0,0,0,129,155h15.24a5.27,5.27,0,0,0,5.22-5.27V134.76a5.24,5.24,0,0,0-5.22-5.28H129A5.27,5.27,0,0,0,123.74,134.76Z"/><path class="cls-1" d="M160.2,134.71c-.1-.76.28-1.36.9-1.36h12.73v9.7H162.29a1.16,1.16,0,0,1-1.28-1Zm19.14-5.23H156.68c-1.42,0-2.42,1.51-2.18,3.37l1.33,10.1c.23,1.86,1.56,3.37,3,3.37h3.47v.2a3.88,3.88,0,0,0-2,1.46l-6.6,7.44h4.37a4.64,4.64,0,0,0,3.23-1.31l6.65-7.44h3.23c1.61,0,2.14-1.81,2.32-2.92h.34V155h5.51Z"/><path class="cls-1" d="M222.31,164c1.52-.35,5.22-1.16,5.22-3.26V150.59h-3.79V129.48h-5.56v21.11H207.64V129.48h-5.51v21.11H191.49V129.48h-8.31c.43,1.66,1.14,4.37,2.85,4.37V155h36.28Z"/><path class="cls-1" d="M255.74,129.48c-1.71,0-4.8,3.17-6.36,4.83l-12.26,13v-17.8h-8.35c.66,2,1.09,3.57,2.8,4.37V155h1.66c2.19,0,4.94-2.81,6.84-4.82l12.25-13V155h5.56V129.48Z"/><path class="cls-1" d="M269.58,140.94v-5a2.64,2.64,0,0,1,2.56-2.61h9.55A2.6,2.6,0,0,1,284.2,136v5Zm0,14h16.72c1.76,0,2.28-2.46,2.8-3.87h-17a2.6,2.6,0,0,1-2.56-2.61v-6.69h.28c.29.71.91,2.77,2.28,2.77h17.57v-8.8c0-3.71-2-6.28-6.31-6.28h-13c-3.81,0-6.32,2.11-6.32,6.33v12.72C264.07,152,266,155,269.62,155Z"/><path class="cls-2" d="M10.69,3.75V6.54H5.83v11h-3V3.75Z"/><path class="cls-2" d="M37.77,3.75a4.8,4.8,0,0,1,3.5,1.36,4.49,4.49,0,0,1,1.4,3.39,4.5,4.5,0,0,1-1.4,3.4,4.84,4.84,0,0,1-3.5,1.35H35.46v4.33h-3V3.75Zm-.11,6.74a1.94,1.94,0,0,0,1.43-.55,2,2,0,0,0,.54-1.43,2,2,0,0,0-.54-1.43,1.91,1.91,0,0,0-1.43-.56h-2.2v4Z"/><path class="cls-2" d="M72.05,3.75h3.12l-3.91,9.33a8.44,8.44,0,0,1-2.34,3.55,5.73,5.73,0,0,1-3.55,1h-.55V14.83h.87a3,3,0,0,0,1.42-.27A2.62,2.62,0,0,0,68,13.51L62.88,3.75h3.36l3.28,6.32Z"/><path class="cls-2" d="M96.54,3.75h10.77V17.58h-3v-11H99.54v11h-3Z"/><path class="cls-2" d="M130.22,3.75H141V17.58h-3v-11h-4.78v11h-3Z"/><path class="cls-2" d="M173.09,17.58l-1-2.63h-5.51l-1,2.63H162.5l5.41-13.83h2.82l5.59,13.83ZM169.35,7.41l-1.8,4.94h3.62Z"/><path class="cls-2" d="M233.29,17.58h-3.65l-4.88-6.76v6.76h-3V3.75h3v6.38l4.52-6.38h3.5l-4.72,6.62Z"/><path class="cls-2" d="M260.26,17.88A7.22,7.22,0,0,1,255,15.81a6.91,6.91,0,0,1-2.1-5.14A6.93,6.93,0,0,1,255,5.52a7.26,7.26,0,0,1,5.27-2.06A7.58,7.58,0,0,1,264,4.4,6.69,6.69,0,0,1,266.66,7a7.29,7.29,0,0,1,.95,3.69,6.91,6.91,0,0,1-2.1,5.15A7.19,7.19,0,0,1,260.26,17.88Zm0-2.83a4.45,4.45,0,0,0,2.21-.56A4.1,4.1,0,0,0,264,12.92a4.47,4.47,0,0,0,.56-2.25,4.28,4.28,0,0,0-1.23-3.13,4.13,4.13,0,0,0-3.08-1.26,4.3,4.3,0,0,0-4.36,4.39,4.24,4.24,0,0,0,1.26,3.13A4.2,4.2,0,0,0,260.26,15.05Z"/><path class="cls-2" d="M306.52,17.58h-3l-1.37-9-4.12,9h-.73l-4.13-9-1.37,9H288.7l2.18-13.83h3l3.73,8.48,3.75-8.48h3Z"/><path class="cls-2" d="M328.58,3.75h10.77V17.58h-3v-11h-4.78v11h-3Z"/><path class="cls-2" d="M371.45,17.58l-1-2.63H365l-1,2.63h-3.16l5.41-13.83h2.83l5.59,13.83ZM367.72,7.41l-1.8,4.94h3.61Z"/><path class="cls-2" d="M404.4,3.75h3V17.58h-3V11.87h-5.2v5.71h-3V3.75h3V9.09h5.2Z"/><path class="cls-2" d="M439.62,3.75h2.17V17.58h-3V9.26l-6.4,8.32h-2.08V3.75h3V12Z"/><path class="cls-2" d="M474,3.75h2.17V17.58h-3V9.26l-6.4,8.32H464.7V3.75h3V12Zm-6.64-1.52V0h5.95V2.23Z"/></g></g></svg>