<svg xmlns="http://www.w3.org/2000/svg" xmlns:xlink="http://www.w3.org/1999/xlink" viewBox="0 0 329.91 107.11"><defs><style>.cls-1{fill:url(#Безымянный_градиент_6);}.cls-2{fill:#fff;}</style><linearGradient id="Безымянный_градиент_6" x1="5.32" y1="21.02" x2="330.38" y2="90.58" gradientUnits="userSpaceOnUse"><stop offset="0" stop-color="#42277f"/><stop offset="0.17" stop-color="#4a277f"/><stop offset="0.52" stop-color="#53277f"/><stop offset="1" stop-color="#56277f"/></linearGradient></defs><g id="Слой_2" data-name="Слой 2"><g id="Слой_1-2" data-name="Слой 1"><polygon class="cls-1" points="0 24.98 0 107.11 329.91 107.11 314.73 0 0 24.98"/><path class="cls-2" d="M59.85,39.62H36.42a5.1,5.1,0,0,0-5.1,5.1v24a5.09,5.09,0,0,0,5.1,5.09H59.85a5.09,5.09,0,0,0,5.09-5.09v-24A5.09,5.09,0,0,0,59.85,39.62ZM53.39,63.29a1.25,1.25,0,0,1-1.25,1.26h-8a1.25,1.25,0,0,1-1.25-1.26V50.19a1.25,1.25,0,0,1,1.25-1.26h8a1.25,1.25,0,0,1,1.25,1.26Z"/><path class="cls-2" d="M71.64,73.85V48.91l-3.71-9.29H82.51l10.32,13L100.75,43a11.71,11.71,0,0,1,3-2.08,11.47,11.47,0,0,1,3.85-1.08h7.25v34H103.06l0-19.69L92.92,66.29l-9.64-12,.09,19.6Z"/><path class="cls-2" d="M118.73,39.58,122.35,49v24.9h30l-2.22-5.91a7.43,7.43,0,0,0-.38-.8,3.61,3.61,0,0,0-1-1.32,2.42,2.42,0,0,0-1.19-.43l-13.68,0,0-5.35,10.73,0a6.4,6.4,0,0,0,1-1,9.28,9.28,0,0,0,1.54-3.26,24.73,24.73,0,0,0,.68-2.58L133.76,53l0-4.71h14.57a9.91,9.91,0,0,0,1.27-1.5,14.16,14.16,0,0,0,1.68-3.8,33.48,33.48,0,0,0,.9-3.44Z"/><path class="cls-2" d="M188.49,41.63a7.24,7.24,0,0,0-3.74-2h-31.1L157.07,49l-.23,24.89h27.74A6.53,6.53,0,0,0,190.46,68V45.77A7.3,7.3,0,0,0,188.49,41.63ZM179,63.48a1.63,1.63,0,0,1-.54,1.22,2.23,2.23,0,0,1-1,.53h-8.77v-17c2.86,0,5.83.05,8.69,0a1.72,1.72,0,0,1,1.31.63,1.67,1.67,0,0,1,.34,1Z"/><polygon class="cls-2" points="194.57 39.9 209.78 39.9 209.78 73.85 198.01 73.85 198.01 49.13 194.57 39.9"/><path class="cls-2" d="M244.08,39.76H215.87l3.62,9.64-5,24.45H225.7l1.08-5.07,11.37,0,.86,5H251.1ZM228.21,61.63l2.72-13.09H234l2.72,13.09Z"/><polygon class="cls-2" points="251.39 27.26 254.65 35.75 254.65 59.8 265.72 59.8 265.72 27.26 251.39 27.26"/><rect class="cls-2" x="254.51" y="62.78" width="11.21" height="11.07"/><polygon class="cls-2" points="31.32 81.09 32.47 83.26 32.47 92 34.9 92 34.9 87.34 34.9 86.13 35.79 87.02 41.73 87.02 41.73 92 44.02 92 44.02 81.16 41.66 81.16 41.66 84.79 34.9 84.79 34.9 81.09 31.32 81.09"/><path class="cls-2" d="M57.34,82a2.56,2.56,0,0,0-1.61-.94h-9a2.85,2.85,0,0,0,.83,1.32,2.62,2.62,0,0,0,.89.54L55,83a.81.81,0,0,1,.64.33.77.77,0,0,1,.13.57l0,1.41-7.66.09a1.34,1.34,0,0,0-1,.29,1.32,1.32,0,0,0-.45.86v4.09a1.71,1.71,0,0,0,1.72,1.18h6.07a3.11,3.11,0,0,0,.51-.48,3.21,3.21,0,0,0,.47-.76h-6a1.34,1.34,0,0,1-.55-.28,1.49,1.49,0,0,1-.4-.66V87.75a1.39,1.39,0,0,1,.28-.51,1.41,1.41,0,0,1,.67-.44H55a.51.51,0,0,1,.38.19.49.49,0,0,1,.11.3v3.32h0v1.12h2.36V83.18A2.55,2.55,0,0,0,57.34,82Z"/><path class="cls-2" d="M69.08,85.87V82.73H64a1.3,1.3,0,0,0-.46.3,1.32,1.32,0,0,0-.35.69v5.36a1.42,1.42,0,0,0,.38.72,1.45,1.45,0,0,0,.69.4h6.9l-1,1.61h-7.5a2.51,2.51,0,0,1-1.65-1.66V82.73a2.44,2.44,0,0,1,.67-1,2.38,2.38,0,0,1,1.47-.59h7.52v3.76a1.65,1.65,0,0,1-1.65,1Z"/><path class="cls-2" d="M73.66,82.7a2.57,2.57,0,0,1-.56-.7,2.93,2.93,0,0,1-.32-.91H84.32v1.57H80v9.15H77.3V82.73Z"/><path class="cls-2" d="M97.07,81.67A2.16,2.16,0,0,0,96,81.09H88.13a1.84,1.84,0,0,0-1,.47,1.93,1.93,0,0,0-.6,1.15l0,.11v7.36a2,2,0,0,0,1.71,1.7H96a2,2,0,0,0,1-.47,2,2,0,0,0,.67-1.18V82.82A2.14,2.14,0,0,0,97.07,81.67ZM95.36,90a.81.81,0,0,1-.53.3H89.36a.84.84,0,0,1-.49-.26.78.78,0,0,1-.21-.51V83.34a.84.84,0,0,1,.21-.37,1,1,0,0,1,.38-.25h5.62a.75.75,0,0,1,.47.25.79.79,0,0,1,.17.56v5.89A.82.82,0,0,1,95.36,90Z"/><path class="cls-2" d="M100.8,81.09a.74.74,0,0,0-.45.27.74.74,0,0,0-.13.56v2.25a5.89,5.89,0,0,0,.43,2.34,6,6,0,0,0,.93,1.58h1.73l-3.2,3.64v.21h2.77l3-3.79,1.91,0a1.45,1.45,0,0,0,.6-.42,1.39,1.39,0,0,0,.36-.72v5H111V81.09Zm8,5.89h-5.39a2.06,2.06,0,0,1-.49-.36,1.74,1.74,0,0,1-.44-.87v-3h6.32Z"/><path class="cls-2" d="M112.68,81.09h3.53v9h5.32v-9h2.21v9h4.81v-9h2.19v9h1.64v4.15a3.17,3.17,0,0,1-.89.85,2.92,2.92,0,0,1-1.09.42v-3.7l-16.32,0V83.28a3.54,3.54,0,0,1-1-1A3.4,3.4,0,0,1,112.68,81.09Z"/><path class="cls-2" d="M132.89,81.09a3.75,3.75,0,0,0,.79,1.18,2.81,2.81,0,0,0,.62.49v9.08h1.55l7.61-7.53v7.53h2.63V81.09h-1.82l-6.56,6.33-1,1,.07-7.35Z"/><path class="cls-2" d="M152.38,87.49H160V82.77a1.89,1.89,0,0,0-.51-1.11,1.94,1.94,0,0,0-1.45-.57h-7.23a2.18,2.18,0,0,0-2,2v6.66a2.49,2.49,0,0,0,.72,1.45,2.46,2.46,0,0,0,1.15.61H159a2.06,2.06,0,0,0,.83-.85,2.23,2.23,0,0,0,.23-.78h-8.4a.93.93,0,0,1-.39-.22.87.87,0,0,1-.25-.44c0-1.19,0-2.39,0-3.58a2.5,2.5,0,0,0,.63,1A2.44,2.44,0,0,0,152.38,87.49ZM151,86V83.27a.73.73,0,0,1,.21-.36.76.76,0,0,1,.38-.17h5.87a.55.55,0,0,1,.39.16.6.6,0,0,1,.15.42V86Z"/></g></g></svg>