<svg xmlns="http://www.w3.org/2000/svg" viewBox="0 0 356.57 79.13"><defs><style>.cls-1{fill:#410099;}</style></defs><g id="Слой_2" data-name="Слой 2"><g id="Слой_1-2" data-name="Слой 1"><path class="cls-1" d="M22.08,47.84H18.9V60.56H4.2V30.15L0,18.57H42.78c1.8,0,3.42,1.38,3.42,3.9L43,43.7c-.24,1.56-1.68,2.64-4,2.64H35.64v.42a21.56,21.56,0,0,1,3.48,3l6.06,10.8H27.54ZM18.9,30.15v9.47h9.36c.24,0,.48-.3.54-.6l1.38-8.33c0-.18-.12-.54-.36-.54Z"/><path class="cls-1" d="M48.9,18.57H90.42L87.3,27.15a3.3,3.3,0,0,1-3.06,1.91H67.8v5.76H85.14L82.56,41.9a3.24,3.24,0,0,1-3.24,1.86H71a2.9,2.9,0,0,1-1.86-1.2L68,40.94H67.8v9.12H83.94a3.79,3.79,0,0,1,3.66,2.7l2.82,7.8H53.1V30.15Z"/><path class="cls-1" d="M93.12,60.56,99.3,30.15,95.1,18.57h35.28l8.52,42h-15l-2.16-10.68L121,51.8c-.54,1.62-2.76,2.58-4.56,2.58h-7.92l-1.26,6.18ZM110.4,45.32h10.38l-3.24-16h-3.9Z"/><path class="cls-1" d="M194.76,44.42c-.48,2.23-2.58,4.62-4.62,4.62h-6.78a2.22,2.22,0,0,1-1.92-1.62l-.9-2.69h-.24V60.56H165.6V30.15l-4.2-11.58H202l-1.62,6.6c-.6,2.58-3.06,5-5.28,5H180.3v7.32h16Z"/><path class="cls-1" d="M202.32,60.56l6.18-30.41-4.2-11.58h35.28l8.52,42h-15l-2.16-10.68-.72,1.92c-.54,1.62-2.76,2.58-4.56,2.58h-7.92l-1.26,6.18ZM219.6,45.32H230l-3.24-16h-3.9Z"/><path class="cls-1" d="M271.68,47.84H268.5V60.56H253.8V30.15l-4.2-11.58h42.78c1.79,0,3.41,1.38,3.41,3.9L292.56,43.7c-.25,1.56-1.68,2.64-4,2.64h-3.36v.42a21.56,21.56,0,0,1,3.48,3l6,10.8H277.14ZM268.5,30.15v9.47h9.36c.24,0,.48-.3.54-.6l1.38-8.33c0-.18-.12-.54-.36-.54Z"/><path class="cls-1" d="M341.87,36.44h-.24L329.75,51.32h-.24L317.63,36.44h-.23V60.56H302.7V30.09l-4.2-11.52h18l13,16h.24L338,23.85a16.72,16.72,0,0,1,12.06-5.28h6.48v42h-14.7Z"/><path class="cls-1" d="M9.24,7.83,6.53,4.3h-1V7.83h-1V.13h1V3.4h1L9,.13h1.23L7.4,3.84l3.07,4Z"/><path class="cls-1" d="M24.19.13A2.52,2.52,0,0,1,26,.84a2.32,2.32,0,0,1,.73,1.76A2.34,2.34,0,0,1,26,4.36a2.51,2.51,0,0,1-1.82.7h-1.8V7.83h-1V.13Zm-.06,4a1.6,1.6,0,0,0,1.16-.43,1.42,1.42,0,0,0,.46-1.09,1.44,1.44,0,0,0-.46-1.1,1.6,1.6,0,0,0-1.16-.43H22.39V4.12Z"/><path class="cls-1" d="M39,6.91h3.52v.92H38V.13h4.35V1H39V3.43h3.11v.89H39Z"/><path class="cls-1" d="M57.3,8a3.81,3.81,0,0,1-2.83-1.12A3.86,3.86,0,0,1,53.35,4a3.86,3.86,0,0,1,1.12-2.85A4.12,4.12,0,0,1,58.93.35a3.46,3.46,0,0,1,1.28,1,3.51,3.51,0,0,1,.73,1.44H60a2.6,2.6,0,0,0-1-1.31A2.93,2.93,0,0,0,57.3,1a2.82,2.82,0,0,0-2.13.85A3,3,0,0,0,54.34,4a3,3,0,0,0,.83,2.17A3.08,3.08,0,0,0,59,6.51a2.65,2.65,0,0,0,1-1.39h1a3.66,3.66,0,0,1-1.32,2.07A3.75,3.75,0,0,1,57.3,8Z"/><path class="cls-1" d="M77,.13V1H74.68v6.8h-1V1H71.37V.13Z"/><path class="cls-1" d="M91,2.87a2.81,2.81,0,0,1,1.33.32,2.32,2.32,0,0,1,.92.89,2.46,2.46,0,0,1,.33,1.28,2.35,2.35,0,0,1-.73,1.77,2.57,2.57,0,0,1-1.85.7H88.21V.13h1V2.87ZM91,6.93a1.65,1.65,0,0,0,1.2-.45,1.52,1.52,0,0,0,.47-1.13,1.49,1.49,0,0,0-.47-1.14A1.65,1.65,0,0,0,91,3.76H89.17V6.93Z"/><path class="cls-1" d="M106.89.13h3v7.7h-1v-3h-1.71l-1.78,3h-1.13l1.88-3.11a2.66,2.66,0,0,1-.94-.46,2.13,2.13,0,0,1-.62-.78,2.18,2.18,0,0,1-.22-1A2.21,2.21,0,0,1,105.08.8,2.58,2.58,0,0,1,106.89.13Zm0,3.81h2V1h-2a1.79,1.79,0,0,0-.81.19,1.35,1.35,0,0,0-.57.51,1.36,1.36,0,0,0-.2.75,1.35,1.35,0,0,0,.2.74,1.37,1.37,0,0,0,.57.52A1.67,1.67,0,0,0,106.92,3.94Z"/><path class="cls-1" d="M126.81.13h1v7.7h-1V4.33h-4v3.5h-1V.13h1V3.41h4Z"/><path class="cls-1" d="M143.2,8a3.8,3.8,0,0,1-2.83-1.12A3.86,3.86,0,0,1,139.25,4a3.86,3.86,0,0,1,1.12-2.85A3.8,3.8,0,0,1,143.2,0a3.87,3.87,0,0,1,1.63.34,3.5,3.5,0,0,1,2,2.39h-1a2.65,2.65,0,0,0-1-1.31A2.93,2.93,0,0,0,143.2,1a2.82,2.82,0,0,0-2.13.85A3,3,0,0,0,140.24,4a3,3,0,0,0,.83,2.17A2.86,2.86,0,0,0,143.2,7a2.9,2.9,0,0,0,1.68-.5,2.7,2.7,0,0,0,1-1.39h1a3.66,3.66,0,0,1-1.32,2.07A3.77,3.77,0,0,1,143.2,8Z"/><path class="cls-1" d="M162.91,7.83,160.2,4.3h-1V7.83h-1V.13h1V3.4h1L162.66.13h1.23l-2.82,3.71,3.07,4Z"/><path class="cls-1" d="M181.11,6.83a4.25,4.25,0,0,1-5.77,0A3.83,3.83,0,0,1,174.2,4a3.87,3.87,0,0,1,1.14-2.85,4.23,4.23,0,0,1,5.77,0A3.84,3.84,0,0,1,182.26,4,3.81,3.81,0,0,1,181.11,6.83Zm-5.06-.68a2.93,2.93,0,0,0,2.18.87,3,3,0,0,0,3-3,2.94,2.94,0,0,0-3-3,3,3,0,0,0-3,3A2.93,2.93,0,0,0,176.05,6.15Z"/><path class="cls-1" d="M194.7,6.91h3.52v.92h-4.48V.13h4.36V1h-3.4V3.43h3.11v.89H194.7Z"/><path class="cls-1" d="M12.53,74a4.19,4.19,0,0,1-.45,1.93,3.64,3.64,0,0,1-1.32,1.44,4,4,0,0,1-2,.6v1.19h-1V77.94a4,4,0,0,1-2-.6A3.79,3.79,0,0,1,4.47,75.9a4.28,4.28,0,0,1,0-3.82,3.74,3.74,0,0,1,1.32-1.45,3.9,3.9,0,0,1,2-.61V69h1v1a4.3,4.3,0,0,1,1.58.36,3.71,3.71,0,0,1,1.2.87,4.22,4.22,0,0,1,.74,1.25A4.29,4.29,0,0,1,12.53,74ZM5,74a3,3,0,0,0,.77,2.09,2.83,2.83,0,0,0,2,1V71a2.83,2.83,0,0,0-2,1A3,3,0,0,0,5,74Zm3.74,3a3,3,0,0,0,1.15-.29,3,3,0,0,0,.89-.67,3.61,3.61,0,0,0,.56-1,3.28,3.28,0,0,0,.2-1.13,3,3,0,0,0-.78-2.08,2.8,2.8,0,0,0-2-.94Z"/><path class="cls-1" d="M25,76.91H28.5v.92H24v-7.7h4.36V71H25v2.39h3.11v.89H25Z"/><path class="cls-1" d="M42.77,70.13a2.54,2.54,0,0,1,1.82.71,2.49,2.49,0,0,1,0,3.52,2.53,2.53,0,0,1-1.82.7H41v2.77H40v-7.7Zm-.06,4a1.6,1.6,0,0,0,1.16-.43,1.42,1.42,0,0,0,.46-1.09,1.44,1.44,0,0,0-.46-1.1,1.6,1.6,0,0,0-1.16-.43H41v3.05Z"/><path class="cls-1" d="M65.46,77.83h-1l-1-6-2.66,5.81h-.25l-2.67-5.8-1,6h-1l1.3-7.7h.93l2.55,5.66,2.55-5.66h.95Z"/><path class="cls-1" d="M77.87,76.91h3.52v.92H76.91v-7.7h4.36V71h-3.4v2.39H81v.89H77.87Z"/><path class="cls-1" d="M95.66,70.13a2.54,2.54,0,0,1,1.82.71,2.49,2.49,0,0,1,0,3.52,2.53,2.53,0,0,1-1.82.7H93.85v2.77H92.9v-7.7Zm-.06,4a1.6,1.6,0,0,0,1.16-.43,1.42,1.42,0,0,0,.46-1.09,1.44,1.44,0,0,0-.46-1.1,1.6,1.6,0,0,0-1.16-.43H93.85v3.05Z"/><path class="cls-1" d="M112.93,78a3.84,3.84,0,0,1-2.84-1.12,4.21,4.21,0,0,1,0-5.7,4.13,4.13,0,0,1,4.47-.78,3.55,3.55,0,0,1,1.28,1,3.64,3.64,0,0,1,.73,1.44h-1a2.71,2.71,0,0,0-1-1.31,2.93,2.93,0,0,0-1.65-.47,2.82,2.82,0,0,0-2.13.85,3.26,3.26,0,0,0,0,4.35,2.86,2.86,0,0,0,2.13.85,2.9,2.9,0,0,0,1.68-.5,2.7,2.7,0,0,0,1-1.39h1a3.66,3.66,0,0,1-1.32,2.07A3.79,3.79,0,0,1,112.93,78Z"/><path class="cls-1" d="M134.33,76.83a4.25,4.25,0,0,1-5.77,0,4.09,4.09,0,0,1,0-5.69A4,4,0,0,1,135.48,74,3.84,3.84,0,0,1,134.33,76.83Zm-5.06-.68A3.13,3.13,0,1,0,128.4,74,2.92,2.92,0,0,0,129.27,76.15Z"/><path class="cls-1" d="M151.66,77.83,149,74.3h-1v3.53h-1v-7.7h1V73.4h1l2.46-3.27h1.24l-2.82,3.71,3.07,4Z"/><path class="cls-1" d="M169.86,76.83a4.25,4.25,0,0,1-5.77,0,4.09,4.09,0,0,1,0-5.69A4,4,0,0,1,171,74,3.84,3.84,0,0,1,169.86,76.83Zm-5.06-.68a3.13,3.13,0,1,0-.87-2.17A2.92,2.92,0,0,0,164.8,76.15Z"/><path class="cls-1" d="M183.45,76.91H187v.92h-4.48v-7.7h4.36V71h-3.4v2.39h3.11v.89h-3.11Z"/><path class="cls-1" d="M216.72,77.83h-1.09l-2.13-3.25-2.11,3.25H210.3l2.6-4-2.4-3.66h1.08l1.93,2.94,1.9-2.94h1.09l-2.4,3.7Z"/><path class="cls-1" d="M233.81,76.83a4.25,4.25,0,0,1-5.77,0,4.12,4.12,0,0,1,0-5.69,4.23,4.23,0,0,1,5.77,0,4.11,4.11,0,0,1,0,5.7Zm-5.06-.68a3,3,0,1,0,0-4.33,3.16,3.16,0,0,0,0,4.33Z"/><path class="cls-1" d="M249.93,73.76a1.94,1.94,0,0,1,.8.78,2.17,2.17,0,0,1,.3,1.13,2.05,2.05,0,0,1-.75,1.63,2.79,2.79,0,0,1-1.9.65,2.71,2.71,0,0,1-1.83-.63,2.31,2.31,0,0,1-.78-1.64h.95a1.38,1.38,0,0,0,.51,1,1.77,1.77,0,0,0,1.15.38,2.07,2.07,0,0,0,.88-.18,1.37,1.37,0,0,0,.6-.51,1.3,1.3,0,0,0,.21-.73,1.35,1.35,0,0,0-.4-1,1.43,1.43,0,0,0-1-.4h-.89v-.84h.89a1.31,1.31,0,0,0,.93-.35,1.16,1.16,0,0,0,.37-.89,1.09,1.09,0,0,0-.43-.9,1.73,1.73,0,0,0-1.11-.35,1.63,1.63,0,0,0-1,.34,1.27,1.27,0,0,0-.51.87h-.93a2.14,2.14,0,0,1,.78-1.5,2.57,2.57,0,0,1,1.7-.59,2.69,2.69,0,0,1,1.78.59,1.9,1.9,0,0,1,.69,1.51,1.94,1.94,0,0,1-.11.68,2,2,0,0,1-.31.58A1.76,1.76,0,0,1,249.93,73.76Z"/><path class="cls-1" d="M264.66,70.13h3v7.7h-1v-3H265l-1.79,3H262l1.88-3.11a2.66,2.66,0,0,1-.94-.46,2.24,2.24,0,0,1-.62-.78,2.18,2.18,0,0,1-.22-1,2.21,2.21,0,0,1,.72-1.69A2.58,2.58,0,0,1,264.66,70.13Zm0,3.81h2V71h-2a1.79,1.79,0,0,0-.81.19,1.41,1.41,0,0,0-.57.51,1.49,1.49,0,0,0,0,1.49,1.43,1.43,0,0,0,.57.52A1.67,1.67,0,0,0,264.69,73.94Z"/><path class="cls-1" d="M284.94,70.13h.71v7.7h-1V72l-4.39,5.86h-.66v-7.7h1V76ZM281,68.89v-.73h3.12v.73Z"/><path class="cls-1" d="M301.07,78a3.8,3.8,0,0,1-2.83-1.12,4.19,4.19,0,0,1,0-5.7A3.8,3.8,0,0,1,301.07,70a3.84,3.84,0,0,1,1.63.34,3.5,3.5,0,0,1,2,2.39h-1a2.6,2.6,0,0,0-1-1.31,2.93,2.93,0,0,0-1.65-.47,2.82,2.82,0,0,0-2.13.85,3.26,3.26,0,0,0,0,4.35,2.86,2.86,0,0,0,2.13.85,2.9,2.9,0,0,0,1.68-.5,2.65,2.65,0,0,0,1-1.39h1a3.66,3.66,0,0,1-1.32,2.07A3.77,3.77,0,0,1,301.07,78Z"/><path class="cls-1" d="M320.79,70.13V71h-2.34v6.8h-1V71h-2.34v-.9Z"/><path class="cls-1" d="M336.24,73.84a1.73,1.73,0,0,1,.84.74,2.06,2.06,0,0,1,.31,1.13,2,2,0,0,1-.67,1.51,2.36,2.36,0,0,1-1.66.61H332v-7.7h3a2.23,2.23,0,0,1,1.56.56,1.84,1.84,0,0,1,.61,1.41,2,2,0,0,1-.26,1A1.88,1.88,0,0,1,336.24,73.84Zm0-1.61a1.09,1.09,0,0,0-.16-.59,1.06,1.06,0,0,0-.43-.41,1.26,1.26,0,0,0-.62-.15h-2.07v2.31H335a1.17,1.17,0,0,0,.86-.34A1.08,1.08,0,0,0,336.2,72.23Zm-1.15,4.65a1.33,1.33,0,0,0,.95-.37,1.25,1.25,0,0,0,0-1.81,1.33,1.33,0,0,0-.95-.37h-2.13v2.55Z"/><path class="cls-1" d="M355.36,76.83a4.25,4.25,0,0,1-5.77,0,4.12,4.12,0,0,1,0-5.69,4.23,4.23,0,0,1,5.77,0,4.11,4.11,0,0,1,0,5.7Zm-5.06-.68a3,3,0,1,0,0-4.33,3.16,3.16,0,0,0,0,4.33Z"/></g></g></svg>