<svg xmlns="http://www.w3.org/2000/svg" viewBox="0 0 381.89 78.96"><defs><style>.cls-1{fill:#410099;}</style></defs><g id="Слой_2" data-name="Слой 2"><g id="Слой_1-2" data-name="Слой 1"><path class="cls-1" d="M31.5,18.48H46.2v42H31.5V45.24H22.86c-2.4,0-2.94-1.74-3.3-4.08l-.3-1.92H18.9V60.48H4.2V30.06L0,18.48H18.9V33.72H31.5Z"/><path class="cls-1" d="M60.54,18.48H90.06a6.27,6.27,0,0,1,6.24,6.24V54.24a6.27,6.27,0,0,1-6.24,6.24H60.54a6.27,6.27,0,0,1-6.24-6.24V24.72A6.27,6.27,0,0,1,60.54,18.48ZM69,47.7A1.27,1.27,0,0,0,70.26,49H80.34A1.27,1.27,0,0,0,81.6,47.7V31.26a1.22,1.22,0,0,0-1.26-1.2H70.26A1.22,1.22,0,0,0,69,31.26Z"/><path class="cls-1" d="M100.2,18.48h39.42c2.22,0,4.86,2.64,4.5,4.8L140.7,46a5.93,5.93,0,0,1-5.28,4.62H123.06a3.17,3.17,0,0,1-2.82-1.74l-.9-2.34h-.24V60.48H104.4V30.06Zm26,22.5a.7.7,0,0,0,.6-.6l1.38-11.76c.06-.24-.3-.48-.54-.48H119.1V41Z"/><path class="cls-1" d="M146.28,18.48H187.8l-3.12,8.58A3.31,3.31,0,0,1,181.62,29H165.18v5.76h17.34l-2.58,7.08a3.24,3.24,0,0,1-3.24,1.86h-8.28a2.9,2.9,0,0,1-1.86-1.2l-1.14-1.62h-.24V50h16.14a3.79,3.79,0,0,1,3.66,2.7l2.82,7.8H150.48V30.06Z"/><path class="cls-1" d="M259.14,18.48l-4.2,11.58H247.8a2,2,0,0,0-2,1.08l-2.58,4.38h2.4a8.61,8.61,0,0,1,8.22,5.82l6.54,19.14H244l-4.38-14.34a2.26,2.26,0,0,0-1.86-1.5h-4.92c-1.44,0-2.1-1.14-2.4-2.52L230.22,41h-.42V60.48H215.1V30.06l-4.2-11.58h18.9V37.32h.54l6.48-13.2c1.32-2.7,4.32-5.64,8.22-5.64Z"/><path class="cls-1" d="M281.4,18.48v42H266.7V30.06l-4.2-11.58Z"/><path class="cls-1" d="M323.45,18.48c5.88,0,8.94,5.64,8.94,8.94V52.14a8.78,8.78,0,0,1-8.94,8.34H290.4V30.06l-4.2-11.58Zm-8.4,31.32a2.66,2.66,0,0,0,2.64-2.64V31.8a2.61,2.61,0,0,0-2.64-2.58H305.1V49.8Z"/><path class="cls-1" d="M339.9,51.06h26.33a1,1,0,0,0,1-1V48.36a1,1,0,0,0-1-1l-20.57-2.82c-2.4-.36-4.92-3-4.92-5.46V24.42a5.92,5.92,0,0,1,5.94-5.94h34.37l-1.14,5.94A4.54,4.54,0,0,1,375.23,28H356.39a1,1,0,0,0-1,1v1.74a1,1,0,0,0,1,1l19.68,2.76c2.82.42,5.82,3.48,5.82,6.3V54.54A5.92,5.92,0,0,1,376,60.48h-29c-2.28,0-5.16-1.5-5.7-3.72Z"/><path class="cls-1" d="M11.3,6.93h.79V9.41h-.9V7.83H5.76V.13h1v6.8h3.62V.13h1Z"/><path class="cls-1" d="M25.81,6.91h3.52v.92H24.85V.13h4.36V1h-3.4V3.43h3.11v.89H25.81Z"/><path class="cls-1" d="M47.1.13h1v7.7h-1V4.33h-4v3.5h-1V.13h1V3.41h4Z"/><path class="cls-1" d="M66.22.13V1H63.88v6.8h-1V1H60.57V.13Z"/><path class="cls-1" d="M81.49.13a2.52,2.52,0,0,1,1.82.71A2.32,2.32,0,0,1,84,2.6a2.34,2.34,0,0,1-.73,1.76,2.51,2.51,0,0,1-1.82.7h-1.8V7.83h-1V.13Zm0,4a1.62,1.62,0,0,0,1.16-.43,1.45,1.45,0,0,0,.45-1.09,1.47,1.47,0,0,0-.45-1.1,1.62,1.62,0,0,0-1.16-.43H79.69V4.12Z"/><path class="cls-1" d="M116.39,6.93h.81V9.41h-.89V7.83h-5.8V9.41h-.89V6.93h.59a1.32,1.32,0,0,0,.33-.29,1.7,1.7,0,0,0,.26-.51,6.35,6.35,0,0,0,.21-.76c0-.28.11-.69.18-1.22s.13-1.09.19-1.69.13-1.37.21-2.33h4.8ZM112.48,1A41.6,41.6,0,0,1,112,5.31a2.92,2.92,0,0,1-.7,1.62h4.13V1Z"/><path class="cls-1" d="M130.91,6.91h3.52v.92H130V.13h4.35V1h-3.4V3.43H134v.89h-3.12Z"/><path class="cls-1" d="M152.09.13V1h-2.34v6.8h-1V1h-2.35V.13Z"/><path class="cls-1" d="M167.65,8a3.83,3.83,0,0,1-2.83-1.12A3.9,3.9,0,0,1,163.7,4a3.83,3.83,0,0,1,4-4,3.92,3.92,0,0,1,1.64.34,3.51,3.51,0,0,1,1.27,1,3.4,3.4,0,0,1,.73,1.44h-1a2.67,2.67,0,0,0-1-1.31A2.85,2.85,0,0,0,167.65,1a2.82,2.82,0,0,0-2.12.85A3,3,0,0,0,164.69,4a3,3,0,0,0,.84,2.17,2.86,2.86,0,0,0,2.12.85,2.91,2.91,0,0,0,1.69-.5,2.76,2.76,0,0,0,1-1.39h1A3.63,3.63,0,0,1,170,7.19,3.75,3.75,0,0,1,167.65,8Z"/><path class="cls-1" d="M188.69,7.83,186,4.3h-1V7.83h-1V.13h1V3.4h1L188.43.13h1.23l-2.81,3.71,3.07,4Z"/><path class="cls-1" d="M208.21,6.83a4.25,4.25,0,0,1-5.77,0A3.8,3.8,0,0,1,201.29,4a3.84,3.84,0,0,1,1.15-2.85A4,4,0,0,1,209.35,4,3.84,3.84,0,0,1,208.21,6.83Zm-5.06-.68A3,3,0,0,0,208.36,4a3,3,0,1,0-6.08,0A2.94,2.94,0,0,0,203.15,6.15Z"/><path class="cls-1" d="M226.28.13V1h-3.16v6.8h-1V.13Z"/><path class="cls-1" d="M244.77,6.83a4.25,4.25,0,0,1-5.77,0A3.83,3.83,0,0,1,237.86,4,3.87,3.87,0,0,1,239,1.14a4.23,4.23,0,0,1,5.77,0A3.84,3.84,0,0,1,245.92,4,3.81,3.81,0,0,1,244.77,6.83Zm-5.06-.68A3,3,0,0,0,244.93,4a3,3,0,1,0-6.08,0A2.93,2.93,0,0,0,239.71,6.15Z"/><path class="cls-1" d="M10.58,71.13V72H8.24v6.8h-1V72H4.93v-.9Z"/><path class="cls-1" d="M27.35,74.84a1.8,1.8,0,0,1,.85.74,2.15,2.15,0,0,1,.3,1.13,2,2,0,0,1-.67,1.51,2.35,2.35,0,0,1-1.66.61H23.09v-7.7h3a2.2,2.2,0,0,1,1.55.56,1.84,1.84,0,0,1,.61,1.41,2.09,2.09,0,0,1-.25,1A1.9,1.9,0,0,1,27.35,74.84Zm0-1.61a1.16,1.16,0,0,0-.16-.59,1.09,1.09,0,0,0-.44-.41,1.25,1.25,0,0,0-.61-.15H24v2.31h2.08a1.16,1.16,0,0,0,.85-.34A1.09,1.09,0,0,0,27.32,73.23Zm-1.16,4.65a1.37,1.37,0,0,0,1-.37,1.27,1.27,0,0,0,0-1.81,1.37,1.37,0,0,0-1-.37H24v2.55Z"/><path class="cls-1" d="M47.8,77.83a4.26,4.26,0,0,1-5.78,0,4.12,4.12,0,0,1,0-5.69,4.25,4.25,0,0,1,5.78,0,4.13,4.13,0,0,1,0,5.7Zm-5.07-.68A3.08,3.08,0,1,0,44.91,72a3.07,3.07,0,0,0-2.18,5.2Z"/><path class="cls-1" d="M64.51,71.13a2.54,2.54,0,0,1,1.82.71,2.49,2.49,0,0,1,0,3.52,2.53,2.53,0,0,1-1.82.7H62.7v2.77h-1v-7.7Zm-.06,4a1.6,1.6,0,0,0,1.16-.43,1.42,1.42,0,0,0,.46-1.09,1.44,1.44,0,0,0-.46-1.1,1.6,1.6,0,0,0-1.16-.43H62.7v3.05Z"/><path class="cls-1" d="M83.62,71.13h1v7.7h-1V75.77a4.65,4.65,0,0,1-1.77.37,2.54,2.54,0,0,1-2.7-2.75V71.13h1v2.19a1.9,1.9,0,0,0,.47,1.39,1.79,1.79,0,0,0,1.35.48,4.19,4.19,0,0,0,1.68-.41Z"/><path class="cls-1" d="M98.88,77.91h3.52v.92H97.92v-7.7h4.36V72h-3.4v2.39H102v.89H98.88Z"/><path class="cls-1" d="M118.51,79a3.84,3.84,0,0,1-2.84-1.12,4.21,4.21,0,0,1,0-5.7,4.13,4.13,0,0,1,4.47-.78,3.55,3.55,0,0,1,1.28,1,3.64,3.64,0,0,1,.73,1.44h-1a2.71,2.71,0,0,0-1-1.31,2.93,2.93,0,0,0-1.65-.47,2.82,2.82,0,0,0-2.13.85,3.26,3.26,0,0,0,0,4.35,2.86,2.86,0,0,0,2.13.85,2.9,2.9,0,0,0,1.68-.5,2.7,2.7,0,0,0,1-1.39h1a3.66,3.66,0,0,1-1.32,2.07A3.77,3.77,0,0,1,118.51,79Z"/><path class="cls-1" d="M139.55,71.13V72h-2.34v6.8h-1V72H133.9v-.9Z"/><path class="cls-1" d="M156.72,78.83,156,77h-3.7l-.75,1.85h-1l3.15-7.7h.9l3.25,7.7Zm-2.63-6.37-1.47,3.64h3Z"/></g></g></svg>