<svg xmlns="http://www.w3.org/2000/svg" viewBox="0 0 1920 1080"><defs><style>.cls-1{fill:#fff;}.cls-2{fill:none;stroke:#6fa826;stroke-miterlimit:22.93;stroke-width:2.11px;}</style></defs><g id="Слой_2" data-name="Слой 2"><g id="Слой_1-2" data-name="Слой 1"><rect class="cls-1" width="1920" height="1080"/><path class="cls-2" d="M1411,730c37.81,34.53,68.79,100.46,90.39,151.83,22.46,54.22,83.28,83.9,157.47,73q-67.37-74.05-134.73-148.4,78.45,47.94,156.9,95.32C1659.45,818.74,1571.9,732.27,1411,730Z"/><path class="cls-2" d="M1699.37,508.67c21.54-6.61,53.66-3.66,78.14-.4,25.77,3.57,50.45-12.81,62.45-43.23q-43.18,9-86.48,17.9,35.55-19,70.89-38.07C1787.7,434.58,1735.33,448.42,1699.37,508.67Z"/><path class="cls-2" d="M1754.64,274.53c16.49,15.35,30,44.65,39.42,67.48,9.79,24.09,36.31,37.28,68.66,32.46q-29.37-32.91-58.75-66,34.21,21.32,68.42,42.36C1863,314,1824.79,275.55,1754.64,274.53Z"/><path class="cls-2" d="M1612.1,199c8.1,12.15,12.18,32.54,14.66,48.26,2.51,16.57,17.32,28.93,38.57,31q-13.59-25.12-27.15-50.32,18.42,18.63,36.9,37.1C1674.76,240.51,1656.43,210.58,1612.1,199Z"/><path class="cls-2" d="M1841.15,58.27c-9.86,10.76-28.7,19.59-43.38,25.74-15.49,6.39-24,23.71-20.87,44.84q21.16-19.18,42.4-38.37-13.69,22.35-27.23,44.68C1815.79,129,1840.5,104.08,1841.15,58.27Z"/><path class="cls-2" d="M1187.55,935.35c-9.87,10.76-28.7,19.58-43.38,25.74-15.49,6.39-24,23.71-20.87,44.84q21.15-19.18,42.4-38.37-13.71,22.34-27.24,44.68C1162.19,1006.09,1186.89,981.16,1187.55,935.35Z"/><path class="cls-2" d="M1032.56,854.85c10.76,9.86,19.58,28.7,25.73,43.37,6.4,15.49,23.72,24,44.85,20.87q-19.19-21.15-38.37-42.39,22.34,13.69,44.68,27.23C1103.3,880.2,1078.37,855.5,1032.56,854.85Z"/><path class="cls-2" d="M1701.8,874.68c9.1-88.18,100.63-161.53,211.2-177.23-23.88,38.25-44.06,91.61-55.71,138.13-7.68,31.39-30.7,48.23-52,62.79-35.82,24.54-57.42,2.85-85.56,52.22-18.48,41.38-15.35,75.06-7.1,107l-26.44,17.13c-12.51-64.78-3.41-100.46,15.92-127.57,43.2-58.79,86.41-117.3,129.62-176.09C1788.5,805.33,1745,839.86,1701.8,874.68Z"/></g></g></svg>