<svg width="290" height="405" viewBox="0 0 290 405" fill="none" xmlns="http://www.w3.org/2000/svg">
<mask id="mask0_54_4545" style="mask-type:luminance" maskUnits="userSpaceOnUse" x="45" y="83" width="200" height="200">
<path d="M119.3 87.2C66.3999 101.4 34.9999 155.7 49.1999 208.7C63.3999 261.6 117.8 293 170.7 278.8C223.6 264.6 255 210.2 240.8 157.3C226.6 104.4 172.2 73 119.3 87.2Z" fill="white"/>
</mask>
<g mask="url(#mask0_54_4545)">
<path d="M255 73H35V293H255V73Z" fill="#0E0E0E"/>
</g>
<path d="M137.4 242.2C136.9 242.6 136.2 242.9 135.6 242.9H133V237.3H135.5C136.2 237.3 136.9 237.5 137.4 237.9C137.7 238.2 137.9 238.5 138 238.9C138.1 239.3 138.2 239.6 138.1 240C138.1 240.4 138.1 240.8 138 241.2C137.9 241.5 137.6 241.9 137.4 242.2ZM140.7 234.6C140 234 139.3 233.6 138.4 233.3C137.5 233 136.5 232.9 135.5 232.9H128.4V255.4H133.1V247.2H135.8C136.8 247.2 137.8 247 138.7 246.7C139.5 246.4 140.3 245.9 140.9 245.2C141.5 244.6 142 243.8 142.3 242.9C143 240.9 143 238.8 142.3 236.8C141.8 236 141.3 235.2 140.7 234.6ZM144 255.4H148.7V237.2H157.1V232.9H144.1V255.4H144ZM168.5 236C168.2 237 168 238.1 167.7 239.1L166.4 244H166.2L164.8 239.2L163 233H158.2L164.2 249.8C164.2 249.9 164.1 250.1 164 250.2C163.9 250.3 163.9 250.4 163.8 250.5C163.6 250.9 163.3 251.3 162.9 251.6C162.6 251.8 162.2 251.9 161.8 251.9H160.7V255.7H162.5C163.1 255.7 163.7 255.6 164.3 255.5C164.9 255.4 165.4 255.2 165.9 254.8C166.4 254.4 166.9 254 167.2 253.5C167.7 252.8 168 252 168.3 251.2C168.4 250.8 168.6 250.5 168.7 250.1C168.8 249.7 169 249.3 169.1 248.9L173.8 233.1H169.3L168.5 236ZM121.2 236C120.9 237 120.7 238.1 120.4 239.1L119 244H118.8L117.4 239.2L115.6 233H110.8L116.8 249.8C116.8 249.9 116.7 250 116.6 250.2C116.5 250.3 116.5 250.4 116.4 250.5C116.2 250.9 115.9 251.3 115.5 251.6C115.2 251.8 114.8 251.9 114.4 251.9H113.3V255.7H115.1C115.7 255.7 116.3 255.6 116.9 255.5C117.5 255.4 118 255.2 118.5 254.8C119 254.4 119.5 254 119.8 253.5C120.3 252.8 120.6 252 120.9 251.2C121.1 250.8 121.2 250.5 121.3 250.1C121.4 249.7 121.6 249.3 121.7 248.9L126.5 233.2H122C121.7 234 121.4 235 121.2 236ZM148.9 206H115.8C116.9 204 141.7 160.2 144.9 154.6C150 145.8 149.2 143.1 149.2 131.9C149.2 127.6 149.2 122.8 149.2 118.5C149.2 114.4 147.3 111.9 143.5 111C142.1 110.6 139 110.5 135.3 110.5C128.8 110.5 120.6 110.5 117.1 110.5C114.3 110.5 111.2 110.5 108.3 110.5C102.7 110.5 97.8999 111.7 97.2999 117.8V145H113.9V125.3H132.5V145.3C132.5 145.3 103.2 197.3 97.4999 207.5C96.0999 210 95.9999 209.6 95.9999 212.9C95.9999 215.3 95.9999 220.2 95.9999 220.2H149L148.9 206ZM175.8 237.2H180.6V255.4H185.2V237.2H190V232.9H175.8V237.2ZM100.7 238.9C100.8 238.6 100.9 238.3 101.1 238.1C101.3 237.8 101.6 237.6 101.9 237.5C102.3 237.3 102.7 237.2 103.1 237.3C103.5 237.3 103.9 237.4 104.3 237.6C104.6 237.8 104.9 238 105.1 238.2C105.3 238.4 105.5 238.7 105.6 239C105.7 239.2 105.8 239.5 105.8 239.8H110.4C110.4 239.8 110.3 238.8 110.2 238.5C110.1 237.8 109.8 237 109.4 236.4C109 235.7 108.6 235.1 108 234.6C107.4 234.1 106.7 233.6 105.9 233.4C105 233.1 104.1 232.9 103.1 232.9C102 232.9 100.8 233.1 99.7999 233.6C98.8999 234 98.1999 234.6 97.5999 235.3C96.9999 236 96.5999 236.8 96.2999 237.6C95.9999 238.4 95.8999 239.3 95.8999 240.1V248.1C95.8999 249.1 95.9999 250.1 96.2999 251C96.5999 251.9 96.9999 252.7 97.5999 253.4C98.1999 254.1 98.9999 254.7 99.7999 255.1C100.8 255.5 102 255.7 103.1 255.7C104.8 255.7 106.4 255.2 107.7 254.2C109 253.2 109.8 251.7 110.1 250.1L110.3 248.8H105.7C105.6 249.4 105.4 250.1 104.9 250.5C104.4 250.9 103.8 251.2 103.1 251.2C102.7 251.2 102.4 251.2 102 251C101.7 250.9 101.4 250.6 101.1 250.3C100.7 249.7 100.5 248.9 100.5 248.2V239.9C100.6 239.5 100.7 239.2 100.7 238.9ZM174.8 186L154 186.1C154.8 183.1 194.1 110.8 194.1 110.8H177.6L130.7 198.1H174.7V220.2H190.4V165H174.8V186Z" fill="white"/>
<mask id="mask1_54_4545" style="mask-type:luminance" maskUnits="userSpaceOnUse" x="45" y="83" width="200" height="200">
<path d="M119.343 87.1992C66.4001 101.398 34.9999 155.809 49.1896 208.788C63.3793 261.726 117.753 293.187 170.696 278.988C223.639 264.789 255.04 210.378 240.85 157.4C226.66 104.421 172.247 73 119.343 87.1992Z" fill="white"/>
</mask>
<g mask="url(#mask1_54_4545)">
<path d="M255 73H35V293.148H255V73Z" fill="url(#paint0_linear_54_4545)"/>
</g>
<path d="M137.349 242.317C136.832 242.754 136.196 242.993 135.52 242.993H133.016V237.385H135.481C136.196 237.345 136.872 237.584 137.428 238.021C137.667 238.3 137.865 238.618 138.024 238.976C138.144 239.334 138.183 239.732 138.144 240.089C138.183 240.487 138.144 240.885 137.985 241.283C137.865 241.68 137.667 242.038 137.349 242.317ZM140.727 234.76C140.052 234.163 139.296 233.726 138.462 233.447C137.508 233.169 136.554 233.01 135.56 233.05H128.406V255.561H133.096V247.328H135.759C136.753 247.328 137.746 247.169 138.66 246.811C139.495 246.493 140.21 245.976 140.846 245.34C141.443 244.703 141.92 243.908 142.238 243.073C142.913 241.084 142.874 238.936 142.198 236.947C141.88 236.112 141.363 235.356 140.727 234.76ZM144.066 255.561H148.756V237.345H157.143V233.01H144.106V255.561H144.066ZM168.471 236.192C168.192 237.226 167.954 238.26 167.676 239.294L166.324 244.186H166.165L164.734 239.334L162.906 233.089H158.097L164.098 249.914C164.059 250.033 164.019 250.152 163.939 250.272C163.86 250.391 163.82 250.51 163.781 250.59C163.582 251.027 163.264 251.385 162.866 251.664C162.509 251.863 162.111 251.942 161.753 251.942H160.64V255.721H162.429C163.025 255.721 163.622 255.641 164.218 255.522C164.774 255.402 165.291 255.164 165.768 254.846C166.285 254.488 166.762 254.01 167.119 253.493C167.596 252.777 167.954 251.982 168.232 251.147C168.391 250.789 168.51 250.391 168.63 250.033C168.749 249.635 168.908 249.237 169.027 248.8L173.757 233.01H169.266L168.471 236.192ZM121.172 236.192C120.893 237.226 120.655 238.26 120.377 239.294L119.025 244.186H118.866L117.435 239.334L115.607 233.089H110.798L116.799 249.914C116.76 250.033 116.68 250.152 116.64 250.272C116.561 250.391 116.521 250.51 116.482 250.59C116.283 251.027 115.965 251.385 115.567 251.664C115.21 251.863 114.812 251.942 114.454 251.942H113.302V255.721H115.09C115.687 255.721 116.283 255.641 116.879 255.522C117.435 255.402 117.952 255.164 118.429 254.846C118.946 254.488 119.423 254.05 119.781 253.493C120.257 252.777 120.615 251.982 120.893 251.147C121.052 250.789 121.172 250.391 121.331 250.033C121.45 249.635 121.569 249.237 121.728 248.8L126.498 233.05H121.967C121.728 234.123 121.45 235.158 121.172 236.192ZM148.955 206.162L115.766 206.083C116.839 204.134 141.641 160.224 144.861 154.616C149.949 145.786 149.154 143.161 149.154 131.905C149.154 127.57 149.154 122.797 149.154 118.461C149.154 114.325 147.285 111.899 143.47 110.904C142.079 110.546 138.939 110.427 135.242 110.427C128.724 110.427 120.536 110.427 116.998 110.427C114.176 110.427 111.155 110.427 108.174 110.427C102.61 110.427 97.8004 111.62 97.2042 117.745V144.951H113.779V125.342H132.38V145.388C132.38 145.388 103.087 197.372 97.3632 207.634C95.972 210.1 95.8925 209.702 95.8925 213.083C95.8925 215.509 95.8925 220.441 95.8925 220.441H148.875L148.955 206.162ZM175.864 237.345H180.673V255.561H185.284V237.305H190.093V233.05H175.864V237.345ZM100.742 239.055C100.821 238.777 100.98 238.499 101.179 238.26C101.378 237.981 101.656 237.783 101.934 237.624C102.292 237.464 102.689 237.385 103.126 237.385C103.524 237.385 103.921 237.464 104.279 237.663C104.597 237.822 104.836 238.021 105.074 238.26C105.273 238.499 105.432 238.777 105.551 239.055C105.631 239.294 105.71 239.572 105.75 239.811H110.321C110.321 239.811 110.241 238.856 110.162 238.459C110.003 237.703 109.764 236.987 109.407 236.351C109.049 235.675 108.572 235.078 107.976 234.561C107.34 234.004 106.664 233.606 105.869 233.328C104.995 233.01 104.041 232.851 103.087 232.851C101.934 232.811 100.781 233.05 99.748 233.527C98.9133 233.925 98.1581 234.521 97.5222 235.237C96.926 235.913 96.5285 236.709 96.2503 237.584C96.0118 238.419 95.8528 239.254 95.8528 240.129V248.164C95.8528 249.158 95.972 250.112 96.2503 251.067C96.4887 251.942 96.926 252.777 97.5222 253.493C98.1184 254.209 98.8736 254.766 99.748 255.164C100.781 255.601 101.894 255.8 103.047 255.76C104.716 255.8 106.346 255.283 107.697 254.289C108.969 253.255 109.844 251.783 110.082 250.192L110.281 248.919H105.67C105.631 249.556 105.313 250.192 104.836 250.63C104.359 251.067 103.723 251.306 103.087 251.306C102.729 251.345 102.332 251.266 102.014 251.147C101.656 250.987 101.378 250.789 101.139 250.47C100.742 249.834 100.543 249.078 100.583 248.323V239.97C100.622 239.612 100.662 239.334 100.742 239.055ZM174.79 186.117L154.003 186.156C154.798 183.173 194.108 110.785 194.108 110.785H177.573L130.711 198.168H174.711V220.322H190.411V165.036H174.79V186.117Z" fill="white"/>
<path fill-rule="evenodd" clip-rule="evenodd" d="M75.1843 268.567L209.172 257.749L214.816 298H75.1843V268.567Z" fill="#492483"/>
<path fill-rule="evenodd" clip-rule="evenodd" d="M106.505 276.642C106.505 276.443 106.664 276.284 106.902 276.284H109.963C110.201 276.284 110.36 276.443 110.36 276.642V281.693C110.36 281.892 110.201 282.091 109.963 282.091H106.902C106.664 282.091 106.505 281.892 106.505 281.693V276.642ZM102.053 274.653V283.761C102.053 284.835 102.928 285.67 103.961 285.67H112.944C113.977 285.67 114.852 284.795 114.852 283.761V274.653C114.852 273.579 113.977 272.744 112.944 272.744H103.961C102.888 272.704 102.053 273.579 102.053 274.653Z" fill="white"/>
<path fill-rule="evenodd" clip-rule="evenodd" d="M129.24 285.67H133.732V272.704H131.744C130.393 272.704 128.962 273.3 128.088 274.335L125.583 277.636H125.504L121.529 272.704H116.044L117.316 276.244V285.63H121.808V278.232H121.887L125.504 282.806H125.583L129.2 278.232H129.28V285.67H129.24Z" fill="white"/>
<path fill-rule="evenodd" clip-rule="evenodd" d="M136.435 276.283V285.67H147.802L146.928 283.284C146.689 282.608 146.133 282.448 145.815 282.448H140.886V280.5H141.005H141.323H141.88H144.384C144.742 280.5 145.219 280.38 145.378 279.943L146.173 277.755H140.886V275.965H145.894C146.332 275.965 146.649 275.727 146.808 275.369L147.762 272.704H135.163L136.435 276.283Z" fill="white"/>
<path fill-rule="evenodd" clip-rule="evenodd" d="M154.202 282.369V276.005H157.222C157.66 276.005 158.017 276.363 158.017 276.801V281.534C158.017 281.971 157.66 282.329 157.222 282.329H154.202V282.369ZM148.438 272.704L149.71 276.283V285.67H159.766C161.595 285.67 162.469 284.119 162.469 283.085V275.448C162.469 274.414 161.555 272.704 159.766 272.704H148.438Z" fill="white"/>
<path fill-rule="evenodd" clip-rule="evenodd" d="M163.939 272.704L165.211 276.283V285.67H169.703V272.704H163.939Z" fill="white"/>
<path fill-rule="evenodd" clip-rule="evenodd" d="M177.573 276.045H178.765L179.759 280.977H176.619L177.573 276.045ZM175.665 285.67L176.062 283.761H178.487C179.043 283.761 180.037 283.761 180.037 283.761H180.315H180.395L180.792 285.67H185.363L182.78 272.704H172.048L173.32 276.283L171.452 285.67H175.665Z" fill="white"/>
<path fill-rule="evenodd" clip-rule="evenodd" d="M185.522 268.09L186.754 271.431V280.34C186.754 280.34 188.463 280.34 189.537 280.34C190.57 280.34 190.888 280.34 190.888 280.34V268.09H185.522ZM186.715 281.454V285.67H190.848V281.454H186.715Z" fill="white"/>
<path fill-rule="evenodd" clip-rule="evenodd" d="M102.173 288.295C102.292 288.613 102.371 288.852 102.65 289.011V292.392H103.604V290.165H103.683C103.723 290.324 103.882 290.682 104.08 290.682H106.068V292.432H107.022V288.375H106.068V290.045H103.604V288.375H102.173V288.295Z" fill="white"/>
<path fill-rule="evenodd" clip-rule="evenodd" d="M109.287 291.795C109.089 291.795 108.969 291.676 108.969 291.557V290.761C108.969 290.602 109.128 290.523 109.287 290.523H111.434V291.835H109.287V291.795ZM108.294 288.693C108.333 288.812 108.492 288.971 108.651 288.971H110.917C111.275 288.971 111.434 289.17 111.434 289.449V289.886H109.009C108.492 289.886 108.015 290.125 108.015 290.602V291.636C108.015 292.153 108.532 292.312 108.93 292.312H110.798C111.076 292.312 111.275 292.034 111.354 291.875H111.434V292.312H112.348V289.131C112.348 288.653 111.911 288.255 111.394 288.255H108.135L108.294 288.693Z" fill="white"/>
<path fill-rule="evenodd" clip-rule="evenodd" d="M116.839 290.045C116.998 290.005 117.197 289.886 117.197 289.727V288.335H114.574C113.977 288.335 113.381 288.613 113.381 289.21V291.358C113.381 291.954 113.699 292.392 114.415 292.392H116.72C116.998 292.392 117.117 291.954 117.197 291.676H114.733C114.494 291.676 114.295 291.477 114.295 291.238V289.449C114.295 289.21 114.494 289.011 114.733 289.011H116.362V290.204L116.839 290.045Z" fill="white"/>
<path fill-rule="evenodd" clip-rule="evenodd" d="M117.793 288.295C117.873 288.534 117.992 289.011 118.191 289.011H119.542V292.392H120.496V288.971H122.165V288.255H117.793V288.295Z" fill="white"/>
<path fill-rule="evenodd" clip-rule="evenodd" d="M123.874 289.29C123.874 289.051 124.033 288.892 124.272 288.892H125.981C126.18 288.892 126.378 289.091 126.378 289.29V291.318C126.378 291.557 126.219 291.716 125.981 291.716H124.272C124.033 291.716 123.874 291.517 123.874 291.318V289.29ZM122.92 289.13V291.517C122.92 291.954 123.318 292.352 123.795 292.352H126.378C126.855 292.352 127.253 291.954 127.253 291.517V289.13C127.253 288.653 126.855 288.295 126.378 288.295H123.795C123.318 288.295 122.92 288.653 122.92 289.13Z" fill="white"/>
<path fill-rule="evenodd" clip-rule="evenodd" d="M129.081 289.13C129.081 289.011 129.121 288.932 129.24 288.932H131.387V290.483H129.439C129.36 290.483 129.24 290.443 129.24 290.324L129.081 289.13ZM132.301 288.295H128.485C128.247 288.295 128.088 288.534 128.127 288.812L128.366 290.443C128.406 290.721 128.644 291 128.883 291H129.479V291.04C129.36 291.079 129.28 291.119 129.161 291.278L128.048 292.471H128.803C129.042 292.471 129.24 292.392 129.359 292.273L130.472 291.079H131.029C131.307 291.079 131.387 290.801 131.426 290.602H131.466V292.392H132.38V288.295H132.301Z" fill="white"/>
<path fill-rule="evenodd" clip-rule="evenodd" d="M139.575 293.784C139.813 293.744 140.449 293.585 140.449 293.267V291.636H139.813V288.255H138.859V291.636H137.071V288.255H136.156V291.636H134.368V288.255H132.977C133.056 288.534 133.175 288.971 133.454 288.971V292.352H139.575V293.784Z" fill="white"/>
<path fill-rule="evenodd" clip-rule="evenodd" d="M145.219 288.295C144.94 288.295 144.424 288.812 144.145 289.051L142.079 291.119V288.295H140.688C140.807 288.613 140.886 288.852 141.164 289.011V292.392H141.443C141.8 292.392 142.277 291.954 142.595 291.636L144.662 289.568V292.392H145.616V288.335H145.219V288.295Z" fill="white"/>
<path fill-rule="evenodd" clip-rule="evenodd" d="M147.564 290.125V289.329C147.564 289.091 147.762 288.932 148.001 288.932H149.631C149.869 288.932 150.068 289.13 150.068 289.329V290.125H147.564ZM147.564 292.352H150.386C150.664 292.352 150.783 291.954 150.863 291.716H148.001C147.762 291.716 147.564 291.517 147.564 291.318V290.244H147.603C147.643 290.363 147.762 290.682 148.001 290.682H150.982V289.29C150.982 288.693 150.624 288.295 149.909 288.295H147.723C147.087 288.295 146.65 288.613 146.65 289.29V291.318C146.61 291.875 146.928 292.352 147.564 292.352Z" fill="white"/>
<path d="M94.2232 279.903L92.1166 283.363V285.67H91.3614V283.363L89.2548 279.903H90.0498L91.7589 282.687L93.468 279.903H94.2232ZM87.029 284.954C87.3072 284.954 87.5457 284.875 87.7445 284.676C87.9432 284.477 88.0227 284.278 88.0227 284C88.0227 283.721 87.9432 283.522 87.7445 283.323C87.5457 283.125 87.3072 283.045 87.029 283.045H85.4391V284.954H87.029ZM87.9034 281.494C87.9034 281.335 87.8637 281.176 87.7842 281.056C87.7047 280.937 87.5855 280.818 87.4662 280.738C87.347 280.659 87.188 280.619 86.9893 280.619H85.4391V282.329H86.9893C87.2277 282.329 87.4662 282.25 87.6252 282.091C87.824 281.931 87.9034 281.733 87.9034 281.494ZM87.9432 282.687C88.2214 282.806 88.4202 282.966 88.5791 283.244C88.7381 283.483 88.8176 283.761 88.8176 284.079C88.8176 284.517 88.6586 284.914 88.3009 285.193C87.9829 285.511 87.5457 285.63 87.0688 285.63H84.7634V279.863H87.029C87.506 279.863 87.9034 280.022 88.1817 280.301C88.4997 280.579 88.6189 280.937 88.6189 281.335C88.6189 281.573 88.5394 281.852 88.4202 282.091C88.3009 282.369 88.1419 282.568 87.9432 282.687Z" fill="white"/>
<defs>
<linearGradient id="paint0_linear_54_4545" x1="48.8322" y1="208.866" x2="342.585" y2="130.209" gradientUnits="userSpaceOnUse">
<stop stop-color="#362784"/>
<stop offset="0.1819" stop-color="#482885"/>
<stop offset="0.5204" stop-color="#622A86"/>
<stop offset="0.8052" stop-color="#712A86"/>
<stop offset="1" stop-color="#772B87"/>
</linearGradient>
</defs>
</svg>
