<svg width="290" height="405" viewBox="0 0 290 405" fill="none" xmlns="http://www.w3.org/2000/svg">
<g clip-path="url(#clip0_54_4080)">
<mask id="mask0_54_4080" style="mask-type:luminance" maskUnits="userSpaceOnUse" x="44" y="83" width="202" height="201">
<path d="M145 283.371C200.3 283.371 245.061 238.579 245.061 183.24C245.061 127.902 200.3 83.1094 145 83.1094C89.6996 83.1094 44.9385 127.902 44.9385 183.24C44.9385 238.455 89.6996 283.371 145 283.371Z" fill="white"/>
</mask>
<g mask="url(#mask0_54_4080)">
<path d="M245.061 82.9854H44.9385V283.247H245.061V82.9854Z" fill="url(#paint0_linear_54_4080)"/>
</g>
<path fill-rule="evenodd" clip-rule="evenodd" d="M74.5728 269.475L209.724 258.556L215.428 299.129H74.5728V269.475Z" fill="#492483"/>
<path fill-rule="evenodd" clip-rule="evenodd" d="M106.191 277.664C106.191 277.416 106.315 277.292 106.563 277.292H109.663C109.91 277.292 110.034 277.416 110.034 277.664V282.751C110.034 282.999 109.91 283.123 109.663 283.123H106.563C106.315 283.123 106.191 282.875 106.191 282.751V277.664ZM101.603 275.554V284.736C101.603 285.853 102.471 286.721 103.463 286.721H112.514C113.506 286.721 114.374 285.853 114.374 284.736V275.554C114.374 274.438 113.506 273.569 112.514 273.569H103.463C102.471 273.693 101.603 274.562 101.603 275.554Z" fill="#EEEEEE"/>
<path fill-rule="evenodd" clip-rule="evenodd" d="M129.005 286.721H133.593V273.693H131.609C130.245 273.693 128.757 274.314 127.889 275.306L125.285 278.656H125.161L121.193 273.693H115.614L116.854 277.291V286.721H121.317V279.277H121.441L125.037 283.868H125.161L128.757 279.277H128.881V286.721H129.005Z" fill="#EEEEEE"/>
<path fill-rule="evenodd" clip-rule="evenodd" d="M136.32 277.291V286.721H147.728L146.86 284.24C146.612 283.495 146.116 283.371 145.744 283.371H140.784V281.386H141.032H141.404H141.9H144.504C144.876 281.386 145.372 281.262 145.496 280.766L146.24 278.532H140.908V276.795H145.992C146.364 276.795 146.736 276.547 146.984 276.175L147.976 273.445H135.081L136.32 277.291Z" fill="#EEEEEE"/>
<path fill-rule="evenodd" clip-rule="evenodd" d="M154.299 283.371V277.043H157.399C157.895 277.043 158.267 277.416 158.267 277.788V282.627C158.267 283.123 157.895 283.495 157.399 283.495H154.299V283.371ZM148.472 273.693L149.712 277.291V286.721H159.879C161.739 286.721 162.607 285.108 162.607 284.116V276.423C162.607 275.43 161.615 273.693 159.879 273.693H148.472Z" fill="#EEEEEE"/>
<path fill-rule="evenodd" clip-rule="evenodd" d="M164.095 273.693L165.335 277.291V286.721H169.922V273.693H164.095Z" fill="#EEEEEE"/>
<path fill-rule="evenodd" clip-rule="evenodd" d="M177.858 277.043H179.098L180.09 282.006H176.866L177.858 277.043ZM175.874 286.721L176.246 284.86H178.726C179.222 284.86 180.214 284.86 180.214 284.86H180.462H180.586L180.958 286.721H185.545L182.941 273.693H172.154L173.394 277.291L171.534 286.721H175.874Z" fill="#EEEEEE"/>
<path fill-rule="evenodd" clip-rule="evenodd" d="M185.793 268.978L187.033 272.328V281.386C187.033 281.386 188.769 281.386 189.885 281.386C190.877 281.386 191.249 281.386 191.249 281.386V268.978H185.793ZM187.033 282.503V286.721H191.249V282.503H187.033Z" fill="#EEEEEE"/>
<path fill-rule="evenodd" clip-rule="evenodd" d="M101.727 289.327C101.851 289.699 101.851 289.948 102.223 290.072V293.422H103.215V291.188H103.339C103.339 291.312 103.587 291.685 103.711 291.685H105.695V293.422H106.687V289.327H105.695V291.064H103.215V289.327H101.727Z" fill="#EEEEEE"/>
<path fill-rule="evenodd" clip-rule="evenodd" d="M108.918 292.925C108.794 292.925 108.546 292.801 108.546 292.677V291.809C108.546 291.685 108.67 291.561 108.918 291.561H111.026V292.925H108.918ZM107.926 289.699C107.926 289.823 108.174 289.948 108.298 289.948H110.53C110.902 289.948 111.026 290.196 111.026 290.444V290.94H108.546C108.05 290.94 107.554 291.188 107.554 291.685V292.677C107.554 293.174 108.05 293.422 108.546 293.422H110.406C110.654 293.422 110.902 293.174 111.026 292.925H111.15V293.422H112.142V290.196C112.142 289.699 111.77 289.327 111.15 289.327H107.926V289.699Z" fill="#EEEEEE"/>
<path fill-rule="evenodd" clip-rule="evenodd" d="M116.606 291.064C116.73 291.064 116.978 290.94 116.978 290.692V289.327H114.374C113.754 289.327 113.134 289.575 113.134 290.196V292.429C113.134 293.049 113.506 293.422 114.25 293.422H116.606C116.854 293.422 116.978 292.925 117.102 292.677H114.622C114.374 292.677 114.126 292.429 114.126 292.181V290.32C114.126 290.072 114.374 289.823 114.622 289.823H116.234V291.064H116.606Z" fill="#EEEEEE"/>
<path fill-rule="evenodd" clip-rule="evenodd" d="M117.474 289.327C117.598 289.575 117.722 290.072 117.846 290.072H119.21V293.422H120.201V290.072H121.937V289.327H117.474Z" fill="#EEEEEE"/>
<path fill-rule="evenodd" clip-rule="evenodd" d="M123.674 290.32C123.674 290.072 123.798 289.948 124.046 289.948H125.781C126.029 289.948 126.153 290.072 126.153 290.32V292.305C126.153 292.553 126.029 292.677 125.781 292.677H124.046C123.798 292.677 123.674 292.553 123.674 292.305V290.32ZM122.682 290.196V292.553C122.682 293.049 123.054 293.422 123.55 293.422H126.153C126.649 293.422 127.021 293.049 127.021 292.553V290.196C127.021 289.699 126.649 289.327 126.153 289.327H123.55C123.178 289.327 122.682 289.699 122.682 290.196Z" fill="#EEEEEE"/>
<path fill-rule="evenodd" clip-rule="evenodd" d="M128.881 290.196C128.881 290.072 128.881 289.948 129.005 289.948H131.113V291.561H129.129C129.005 291.561 128.881 291.561 128.881 291.436V290.196ZM132.229 289.327H128.385C128.137 289.327 128.013 289.575 128.013 289.823L128.261 291.436C128.261 291.685 128.509 291.933 128.757 291.933H129.377C129.253 291.933 129.129 292.057 129.005 292.181L127.889 293.422H128.633C128.881 293.422 129.129 293.298 129.129 293.174L130.245 291.933H130.741C130.989 291.933 131.113 291.685 131.113 291.436V293.298H132.105V289.327H132.229Z" fill="#EEEEEE"/>
<path fill-rule="evenodd" clip-rule="evenodd" d="M139.544 294.911C139.792 294.911 140.412 294.787 140.412 294.414V292.801H139.792V289.451H138.8V292.801H137.064V289.451H136.072V292.801H134.213V289.451H132.849C132.973 289.699 133.097 290.196 133.345 290.196V293.546H139.544V294.911Z" fill="#EEEEEE"/>
<path fill-rule="evenodd" clip-rule="evenodd" d="M145.248 289.327C145 289.327 144.38 289.823 144.132 290.072L142.024 292.181V289.327H140.66C140.784 289.699 140.784 289.948 141.156 290.072V293.422H141.404C141.776 293.422 142.272 292.925 142.52 292.677L144.628 290.568V293.422H145.62V289.327H145.248Z" fill="#EEEEEE"/>
<path fill-rule="evenodd" clip-rule="evenodd" d="M147.604 291.188V290.444C147.604 290.196 147.852 290.072 148.1 290.072H149.712C149.96 290.072 150.084 290.32 150.084 290.444V291.188H147.604ZM147.604 293.422H150.456C150.704 293.422 150.828 293.049 150.952 292.801H148.1C147.852 292.801 147.604 292.677 147.604 292.429V291.312C147.604 291.436 147.728 291.809 147.976 291.809H150.952V290.444C150.952 289.823 150.58 289.451 149.836 289.451H147.604C146.984 289.451 146.488 289.823 146.488 290.444V292.553C146.612 292.925 146.984 293.422 147.604 293.422Z" fill="#EEEEEE"/>
<path d="M93.7915 280.89L91.6837 284.364V286.721H90.9397V284.364L88.8318 280.89H89.5758L91.3117 283.744L93.0476 280.89H93.7915ZM86.476 285.977C86.724 285.977 86.972 285.853 87.2199 285.729C87.4679 285.605 87.4679 285.357 87.4679 284.984C87.4679 284.736 87.3439 284.488 87.2199 284.364C86.972 284.24 86.724 284.116 86.476 284.116H84.8641V285.977H86.476ZM87.3439 282.503C87.3439 282.379 87.3439 282.131 87.2199 282.006C87.096 281.882 86.972 281.758 86.848 281.634C86.724 281.51 86.6 281.51 86.352 281.51H84.7401V283.247H86.476C86.724 283.247 86.972 283.123 87.096 282.999C87.3439 282.999 87.3439 282.751 87.3439 282.503ZM87.4679 283.744C87.7159 283.868 87.9639 283.992 88.0879 284.24C88.2119 284.488 88.3359 284.736 88.3359 285.108C88.3359 285.605 88.2119 285.977 87.8399 286.225C87.4679 286.473 87.096 286.721 86.6 286.721H84.2441V280.89H86.476C86.972 280.89 87.3439 281.014 87.5919 281.262C87.8399 281.51 88.0879 281.882 88.0879 282.379C88.0879 282.627 87.9639 282.875 87.8399 283.123C87.8399 283.371 87.5919 283.619 87.4679 283.744Z" fill="white"/>
<path d="M222.371 325.93C222.991 325.93 223.487 325.682 223.859 325.31C224.231 324.938 224.479 324.441 224.479 323.821C224.479 323.2 224.231 322.704 223.859 322.332C223.487 321.96 222.991 321.711 222.371 321.711C221.751 321.711 221.255 321.96 220.883 322.332C220.511 322.704 220.263 323.2 220.263 323.821C220.263 324.193 220.387 324.565 220.511 324.938C220.635 325.31 221.007 325.558 221.255 325.682C221.627 325.806 221.999 325.93 222.371 325.93ZM222.495 320.843C223.363 320.843 224.107 321.091 224.603 321.711C225.223 322.332 225.471 322.952 225.471 323.821C225.471 324.689 225.223 325.434 224.603 325.93C223.983 326.551 223.363 326.799 222.495 326.799C221.627 326.799 220.883 326.551 220.387 325.93V328.784H219.519V320.967H220.139L220.263 321.836C220.511 321.463 220.883 321.215 221.255 321.091C221.627 320.843 221.999 320.843 222.495 320.843ZM218.279 320.967V321.836H216.171V326.799H215.303V321.836H213.195V320.967H218.279ZM211.088 320.967H211.955V326.799H211.088V324.193H207.988V326.799H207.12V320.967H207.988V323.325H211.088V320.967ZM202.904 321.711C202.532 321.711 202.284 321.836 201.912 321.96C201.664 322.084 201.416 322.332 201.168 322.58C201.044 322.828 200.92 323.076 200.796 323.449H204.764C204.64 323.076 204.516 322.828 204.392 322.58C204.268 322.332 204.02 322.084 203.648 321.96C203.524 321.711 203.276 321.711 202.904 321.711ZM205.756 323.821C205.756 323.945 205.756 324.069 205.756 324.193H200.796C200.92 324.689 201.044 325.186 201.416 325.434C201.788 325.806 202.284 325.93 202.78 325.93C203.152 325.93 203.524 325.806 203.896 325.682C204.268 325.558 204.392 325.31 204.64 324.938H205.632C205.384 325.558 205.012 326.054 204.516 326.302C204.02 326.675 203.524 326.799 202.904 326.799C202.036 326.799 201.416 326.551 200.796 325.93C200.176 325.31 199.928 324.689 199.928 323.821C199.928 322.952 200.176 322.208 200.796 321.711C201.416 321.091 202.036 320.843 202.904 320.843C203.772 320.843 204.516 321.091 205.012 321.711C205.508 322.208 205.756 322.952 205.756 323.821ZM198.44 325.806H199.184V328.164H198.316V326.675H193.605V320.843H194.473V325.806H197.448V320.843H198.316V325.806H198.44ZM188.521 320.967H189.017V326.799H188.149V322.704L184.801 326.799H184.305V320.967H185.173V325.062L188.521 320.967ZM188.025 319.106V319.85H185.173V319.106H188.025ZM178.354 325.93C178.726 325.93 178.974 325.806 179.222 325.558C179.47 325.31 179.594 325.062 179.594 324.689C179.594 324.317 179.47 324.069 179.222 323.821C178.974 323.573 178.726 323.449 178.354 323.449H176.99V325.806H178.354V325.93ZM181.577 320.967H182.445V326.799H181.577V320.967ZM178.478 322.704C179.098 322.704 179.594 322.828 179.966 323.2C180.338 323.573 180.586 324.069 180.586 324.689C180.586 325.31 180.338 325.682 179.966 326.054C179.594 326.426 179.098 326.551 178.478 326.551H176.122V320.719H176.99V322.58H178.478V322.704ZM173.394 320.967H174.262V326.799H173.394V324.193H170.294V326.799H169.426V320.967H170.294V323.325H173.394V320.967ZM165.087 325.93C165.707 325.93 166.078 325.682 166.574 325.31C166.946 324.938 167.194 324.441 167.194 323.945C167.194 323.325 166.946 322.952 166.574 322.58C166.202 322.208 165.707 321.96 165.087 321.96C164.467 321.96 163.971 322.208 163.599 322.58C163.227 322.952 162.979 323.449 162.979 323.945C162.979 324.193 162.979 324.441 163.103 324.689C163.227 324.938 163.351 325.186 163.475 325.31C163.599 325.434 163.847 325.558 164.095 325.682C164.467 325.93 164.839 325.93 165.087 325.93ZM165.211 321.215C166.078 321.215 166.698 321.463 167.194 321.96C167.69 322.456 167.938 323.2 167.938 323.945C167.938 324.813 167.69 325.434 167.07 326.054C166.574 326.551 165.83 326.799 164.963 326.799C164.095 326.799 163.351 326.551 162.855 325.93C162.359 325.31 161.987 324.565 161.987 323.573C161.987 322.084 162.235 320.967 162.731 320.223C163.227 319.478 164.219 318.982 165.459 318.61L167.194 318.237V319.106L165.459 319.478C164.715 319.602 164.095 319.974 163.723 320.347C163.351 320.719 162.979 321.215 162.855 321.96C163.599 321.463 164.343 321.215 165.211 321.215ZM158.143 321.711C157.771 321.711 157.523 321.836 157.151 321.96C156.903 322.084 156.655 322.332 156.407 322.58C156.283 322.828 156.035 323.076 156.035 323.449H160.003C159.879 323.076 159.755 322.828 159.631 322.58C159.507 322.332 159.259 322.084 158.887 321.96C158.763 321.711 158.391 321.711 158.143 321.711ZM160.995 323.821C160.995 323.945 160.995 324.069 160.995 324.193H156.035C156.159 324.689 156.283 325.186 156.655 325.434C157.027 325.806 157.523 325.93 158.019 325.93C158.391 325.93 158.763 325.806 159.135 325.682C159.383 325.558 159.631 325.31 159.879 324.938H160.871C160.623 325.558 160.251 326.054 159.755 326.302C159.259 326.675 158.763 326.799 158.143 326.799C157.275 326.799 156.655 326.551 156.035 325.93C155.415 325.31 155.167 324.689 155.167 323.821C155.167 322.952 155.415 322.208 156.035 321.711C156.655 321.091 157.275 320.843 158.143 320.843C159.011 320.843 159.755 321.091 160.251 321.711C160.747 322.208 160.995 322.952 160.995 323.821ZM152.935 320.967H153.803V326.799H152.935V324.565C152.439 324.689 152.067 324.813 151.571 324.813C150.827 324.813 150.331 324.565 149.96 324.193C149.588 323.821 149.34 323.2 149.34 322.58V320.967H150.208V322.456C150.208 322.952 150.331 323.325 150.579 323.573C150.827 323.821 151.199 323.945 151.695 323.945C152.191 323.945 152.563 323.821 153.059 323.573V320.967H152.935ZM147.728 320.967H148.72L145.992 326.923C145.744 327.419 145.62 327.791 145.372 328.039C145.124 328.288 144.876 328.536 144.628 328.66C144.38 328.784 144.008 328.784 143.636 328.784H143.14V327.915H143.512C143.884 327.915 144.132 327.791 144.38 327.667C144.628 327.543 144.752 327.171 145 326.675L145.248 326.178L142.644 320.843H143.636L145.744 325.186L147.728 320.967ZM138.304 320.967H138.8V326.799H137.932V322.704L134.585 326.799H134.089V320.967H134.956V325.062L138.304 320.967ZM137.808 319.106V319.85H134.956V319.106H137.808ZM128.137 325.93C128.509 325.93 128.757 325.806 129.005 325.558C129.253 325.31 129.377 325.062 129.377 324.689C129.377 324.317 129.253 324.069 129.005 323.821C128.757 323.573 128.509 323.449 128.137 323.449H126.773V325.806H128.137V325.93ZM131.361 320.967H132.229V326.799H131.361V320.967ZM128.261 322.704C128.881 322.704 129.377 322.828 129.749 323.2C130.121 323.573 130.369 324.069 130.369 324.689C130.369 325.31 130.121 325.682 129.749 326.054C129.377 326.426 128.881 326.551 128.261 326.551H125.905V320.719H126.773V322.58H128.261V322.704ZM123.177 320.967H124.045V326.799H123.177V324.193H120.077V326.799H119.21V320.967H120.077V323.325H123.177V320.967ZM116.482 320.967H117.35V326.799H116.482V324.193H113.382V326.799H112.514V320.967H113.382V323.325H116.482V320.967ZM106.562 325.31C106.934 325.682 107.43 325.93 108.05 325.93C108.67 325.93 109.166 325.682 109.538 325.31C109.91 324.938 110.158 324.441 110.158 323.821C110.158 323.2 109.91 322.704 109.538 322.332C109.166 321.96 108.67 321.711 108.05 321.711C107.43 321.711 106.934 321.96 106.562 322.332C106.19 322.704 105.942 323.2 105.942 323.821C105.942 324.441 106.066 324.938 106.562 325.31ZM108.05 326.799C107.43 326.799 106.934 326.675 106.438 326.426C105.942 326.178 105.57 325.806 105.322 325.31C105.074 324.813 104.95 324.317 104.95 323.821C104.95 322.952 105.198 322.208 105.818 321.711C106.438 321.091 107.182 320.843 108.05 320.843C108.67 320.843 109.166 320.967 109.662 321.215C110.158 321.463 110.53 321.836 110.778 322.332C111.026 322.828 111.15 323.325 111.15 323.821C111.15 324.689 110.902 325.434 110.282 325.93C109.662 326.551 108.918 326.799 108.05 326.799ZM103.091 320.967H103.587V326.799H102.719V322.704L99.3708 326.799H98.8748V320.967H99.7428V325.062L103.091 320.967ZM96.767 325.806H97.5109V328.164H96.643V326.675H91.9313V320.843H92.7992V325.806H95.775V320.843H96.643V325.806H96.767ZM85.6077 325.31C85.9797 325.682 86.4757 325.93 87.0956 325.93C87.7156 325.93 88.2115 325.682 88.5835 325.31C88.9555 324.938 89.2035 324.441 89.2035 323.821C89.2035 323.2 88.9555 322.704 88.5835 322.332C88.2115 321.96 87.7156 321.711 87.0956 321.711C86.4757 321.711 85.9797 321.96 85.6077 322.332C85.2357 322.704 84.9877 323.2 84.9877 323.821C84.9877 324.441 85.2357 324.938 85.6077 325.31ZM89.4515 320.967H90.1954V326.799H89.4515L89.3275 325.93C89.0795 326.302 88.7075 326.551 88.3355 326.675C87.9636 326.799 87.4676 326.923 87.0956 326.923C86.2277 326.923 85.4837 326.675 84.9877 326.054C84.3678 325.434 84.1198 324.813 84.1198 323.945C84.1198 323.076 84.3678 322.332 84.9877 321.836C85.6077 321.215 86.2277 320.967 87.0956 320.967C87.5916 320.967 87.9636 321.091 88.3355 321.215C88.7075 321.339 89.0795 321.587 89.3275 321.96L89.4515 320.967ZM82.2599 320.967H82.7559V326.799H81.8879V322.704L78.5402 326.799H78.0442V320.967H78.9121V325.062L82.2599 320.967ZM74.5724 325.806C74.6964 325.806 74.9444 325.806 75.0684 325.682C75.1924 325.558 75.3164 325.558 75.4404 325.434C75.5644 325.31 75.5644 325.186 75.5644 325.062C75.5644 324.938 75.5644 324.813 75.4404 324.565C75.3164 324.441 75.1924 324.317 75.0684 324.317C74.9444 324.193 74.6964 324.193 74.5724 324.193H72.7125V325.93H74.5724V325.806ZM75.4404 322.58C75.4404 322.332 75.3164 322.208 75.1924 321.96C75.0684 321.836 74.8204 321.711 74.5724 321.711H72.7125V323.2H74.5724C74.8204 323.2 75.0684 323.076 75.1924 322.952C75.3164 322.952 75.4404 322.828 75.4404 322.58ZM75.5644 323.697C75.8123 323.821 76.0603 323.945 76.3083 324.193C76.4323 324.441 76.5563 324.689 76.5563 325.062C76.5563 325.558 76.4323 325.93 76.0603 326.178C75.6884 326.426 75.3164 326.675 74.8204 326.675H71.9686V320.843H74.8204C75.3164 320.843 75.6884 320.967 75.9363 321.215C76.1843 321.463 76.4323 321.836 76.4323 322.208C76.4323 322.456 76.4323 322.58 76.3083 322.704C76.1843 322.828 76.1843 323.076 76.0603 323.2C75.8123 323.573 75.6884 323.573 75.5644 323.697ZM67.1329 320.471L65.645 324.069H68.4968L67.1329 320.471ZM69.7367 326.675L68.9928 324.938H65.397L64.6531 326.675H63.6611L66.7609 319.23H67.6289L70.7287 326.675H69.7367Z" fill="#100E0A"/>
<path d="M217.411 367L220.759 360.424L223.611 365.635C224.107 366.38 225.099 367 225.967 367H234.274L226.835 355.833L227.579 355.213C227.951 354.964 228.198 354.592 228.446 354.22L233.654 344.418H226.711L222.991 350.994L220.015 345.534C219.643 344.79 218.651 344.418 217.783 344.418H209.972L217.287 355.337L216.791 355.709C216.419 355.957 216.171 356.329 215.923 356.701L210.344 366.876H217.411V367ZM188.769 350.622V366.876H208.732L207.244 362.657C206.872 361.416 205.88 361.168 205.26 361.168H196.581V356.453L197.201 357.322C197.448 357.57 197.82 357.942 198.192 357.942H202.656C203.276 357.942 204.144 357.694 204.392 356.95L205.756 353.103H196.457V350.001H205.26C206.004 350.001 206.624 349.629 206.872 349.009L208.484 344.418H186.289L188.769 350.622ZM163.475 348.636C164.219 350.87 165.583 351.242 167.07 351.366H170.294V367H178.106V351.366H184.677V344.542H162.111L163.475 348.636ZM150.084 350.249H152.191L153.927 358.811H148.348L150.084 350.249ZM146.736 367L147.356 363.65H151.571C152.563 363.65 153.679 363.154 154.051 362.285L154.423 361.292L155.539 367H163.599L159.011 344.542H140.164L142.396 350.746L139.048 367H146.736ZM118.218 367C119.954 367 121.689 365.635 122.681 364.022L128.385 354.468V366.876H136.196V344.418H130.493C128.261 344.418 126.897 345.907 125.905 347.396L120.202 356.95V344.418H110.034L112.266 350.622V366.876H118.218V367ZM93.5432 353.227V349.753H98.6269C98.7509 349.753 98.8749 350.001 98.8749 350.125L98.2549 352.979C98.2549 353.103 98.1309 353.351 98.0069 353.351H93.5432V353.227ZM93.5432 355.957C93.6672 356.081 94.0392 356.95 94.1632 357.074C94.6592 357.446 95.0311 357.694 95.5271 357.694H100.363C100.487 357.694 100.611 357.942 100.611 357.942L100.115 361.292C100.115 361.416 99.9908 361.665 99.8668 361.665H93.6672V355.957H93.5432ZM85.7317 349.505V367H104.207C105.57 367 107.058 365.759 107.306 364.518L108.67 356.701C108.67 355.337 107.802 354.592 106.81 354.592H103.835C104.703 354.344 105.942 353.227 106.066 352.483L107.306 346.775C107.306 345.41 106.438 344.666 105.446 344.666H83.3759L85.7317 349.505ZM69.1168 350.249H71.2247L72.9606 358.811H67.3809L69.1168 350.249ZM65.769 367L66.389 363.65H70.6047C71.5967 363.65 72.7126 363.154 73.0846 362.285L73.4565 361.292L74.5725 367H82.6319L78.0442 344.542H59.1975L61.4293 350.746L58.0815 367H65.769Z" fill="#100E0A"/>
<path fill-rule="evenodd" clip-rule="evenodd" d="M202.284 164.38C229.81 147.382 241.218 132.492 241.838 126.413L171.038 173.438V221.829L179.718 211.53V177.533L202.284 164.38ZM216.295 130.507C243.698 111.027 266.76 90.3059 268 81L150.084 162.643V248.133L161.491 234.609V167.979L216.295 130.507ZM87.8397 164.38C60.3135 147.382 48.9063 132.492 48.2863 126.413L119.086 173.438V221.829L110.406 211.53V177.533L87.8397 164.38ZM73.7046 130.507C46.3024 111.027 23.3639 90.3059 22 81L139.916 162.643V248.133L128.633 234.733V167.979L73.7046 130.507Z" fill="#496CB3"/>
<path fill-rule="evenodd" clip-rule="evenodd" d="M202.284 164.38C229.81 147.382 241.218 132.492 241.838 126.413L171.038 173.438V221.829L179.718 211.53V177.533L202.284 164.38ZM216.295 130.507C243.698 111.027 266.76 90.3059 268 81L150.084 162.643V248.133L161.491 234.609V167.979L216.295 130.507ZM87.8397 164.38C60.3135 147.382 48.9063 132.492 48.2863 126.413L119.086 173.438V221.829L110.406 211.53V177.533L87.8397 164.38ZM73.7046 130.507C46.3024 111.027 23.3639 90.3059 22 81L139.916 162.643V248.133L128.633 234.733V167.979L73.7046 130.507Z" fill="#5586C5"/>
</g>
<defs>
<linearGradient id="paint0_linear_54_4080" x1="72.0969" y1="253.446" x2="210.688" y2="120.096" gradientUnits="userSpaceOnUse">
<stop stop-color="#3C2583"/>
<stop offset="1" stop-color="#632584"/>
</linearGradient>
<clipPath id="clip0_54_4080">
<rect width="246" height="286" fill="white" transform="translate(22 81)"/>
</clipPath>
</defs>
</svg>
