<svg width="290" height="405" viewBox="0 0 290 405" fill="none" xmlns="http://www.w3.org/2000/svg">
<g clip-path="url(#clip0_127_54)">
<mask id="mask0_127_54" style="mask-type:luminance" maskUnits="userSpaceOnUse" x="44" y="82" width="202" height="202">
<path d="M166.79 280.943C220.941 268.924 255.085 215.328 243.054 161.233C231.022 107.138 177.371 73.0286 123.22 85.0479C69.0692 97.0671 34.925 150.663 46.9566 204.758C58.9882 258.853 112.64 292.962 166.79 280.943Z" fill="white"/>
</mask>
<g mask="url(#mask0_127_54)">
<path d="M245.44 82.6676H44.5605V283.34H245.44V82.6676Z" fill="url(#paint0_linear_127_54)"/>
</g>
<mask id="mask1_127_54" style="mask-type:luminance" maskUnits="userSpaceOnUse" x="42" y="81" width="178" height="189">
<path d="M134.01 81C133.036 81 132.202 81.2779 131.367 81.5559C126.081 83.7794 120.377 85.0301 114.534 85.1691C107.996 85.1691 104.797 87.1147 98.6756 91.8397C97.2845 92.9514 95.1978 94.3411 92.8328 96.0087C85.4599 101.151 74.4699 108.794 66.2623 117.41C64.732 119.078 63.2018 120.606 61.9498 121.996C54.2986 130.056 49.7078 135.059 45.8127 137.422C40.2482 140.896 42.474 145.343 43.8651 147.983C44.2824 148.817 44.8389 149.79 45.1171 150.763C45.3953 151.736 45.5345 153.82 45.6736 156.044C45.9518 161.741 46.5082 169.524 50.9599 176.611C54.7159 182.448 59.1675 187.868 64.0365 192.732L65.7058 194.399C66.4014 196.206 67.3752 198.013 68.4881 199.68C68.9054 200.514 69.601 201.348 70.2966 202.46L72.105 204.822C72.5224 208.296 73.0788 211.771 74.0526 215.106C74.4699 216.635 75.0264 218.302 75.5828 219.831C76.2784 221.638 76.974 223.305 77.9478 224.973L78.6433 226.224C78.6433 226.501 78.5042 226.64 78.5042 226.918C77.6695 230.81 77.3913 234.701 77.6695 238.592C77.9478 242.344 78.5042 246.096 79.6171 249.709L80.8691 251.377C81.5647 251.933 82.1212 252.35 82.8167 252.906C82.8167 251.794 82.1212 249.015 82.1212 249.015C81.1474 245.54 80.4518 242.066 80.3127 238.453C80.1736 234.84 80.3127 231.087 81.1474 227.474C82.2603 222.332 85.3208 217.885 89.6333 214.828C85.599 216.635 82.3994 219.831 80.3127 223.722C79.478 222.193 78.7824 220.665 78.0869 218.997C77.6695 218.024 77.1131 216.496 76.6958 214.55C75.722 211.215 75.1655 207.741 74.7482 204.266C74.1917 199.958 75.1655 195.65 77.5304 191.898C74.7482 194.26 73.0788 197.457 72.5224 201.07C71.8268 200.236 71.2703 199.263 70.7139 198.43C68.4881 195.233 67.097 191.481 66.5405 187.59C66.1232 188.702 65.8449 189.813 65.8449 190.925C61.1151 186.2 56.8026 180.919 53.1857 175.361C47.2038 165.911 49.0123 154.515 47.6212 150.207C46.23 145.899 42.3349 142.981 47.3429 139.923C52.2119 136.866 57.7764 130.612 68.349 119.356C78.9216 108.099 94.6413 98.5102 100.345 94.2021C106.188 89.7551 108.831 88.0875 114.674 88.0875C120.795 87.9485 126.776 86.5588 132.48 84.3353C133.036 84.0573 133.593 83.9184 134.149 83.9184C137.766 83.9184 139.853 89.4772 142.774 93.7852C146.113 98.6492 146.809 103.096 144.166 104.208C141.244 105.32 138.184 106.293 134.984 106.987C134.984 108.238 134.567 109.489 133.732 110.323C132.897 111.295 131.784 111.851 130.532 111.99C130.393 111.99 130.254 111.99 130.115 111.99C129.976 111.99 129.837 111.99 129.698 111.99C125.385 111.99 121.351 106.987 118.43 106.015C118.291 106.015 118.151 106.015 118.012 106.015C117.873 106.015 117.734 106.015 117.595 106.015C113.422 106.015 101.319 112.824 97.8409 126.026C96.4498 130.473 94.224 134.503 91.3026 137.978C88.3812 141.313 84.9034 144.231 80.73 146.316H81.4256C90.3288 146.316 99.5103 153.82 103.405 157.572C100.206 158.267 97.0062 159.657 94.3631 161.741C91.7199 163.687 89.4941 166.328 87.9639 169.246C92.4155 164.104 98.5365 160.63 105.214 159.518C106.883 159.24 108.553 159.24 110.361 159.24C113.004 159.24 115.647 159.518 118.291 160.074L119.543 160.352L120.795 160.769C121.351 160.908 121.907 161.047 122.325 161.325L124.133 162.019H124.411C131.089 164.938 136.932 169.385 141.244 175.222C138.323 178.696 134.289 180.919 129.837 181.753C130.393 181.753 130.95 181.892 131.506 181.892C133.732 181.892 135.958 181.475 138.045 180.641C140.688 179.669 142.913 178.001 144.861 175.916L145.418 175.222C145.557 174.944 145.696 174.805 145.835 174.527L145.974 174.249L146.252 173.832C146.67 172.859 147.087 171.886 147.226 170.914C149.452 161.325 142.913 147.289 143.887 138.811C145.139 128.528 157.938 113.102 176.857 113.102H179.222C204.68 114.77 215.809 132.141 216.365 134.503C216.922 136.866 211.635 143.675 211.635 143.675L210.801 155.905C210.801 156.6 210.522 157.294 209.966 157.85L206.349 162.158C205.932 162.714 205.653 163.27 205.514 163.826C205.375 164.521 205.375 165.077 205.514 165.772C206.766 170.219 207.74 174.666 208.297 179.252C208.018 180.502 205.793 180.78 203.706 180.78C201.619 180.78 201.897 185.088 202.036 186.339C202.176 187.59 199.95 188.007 199.95 188.007C199.95 188.007 200.924 190.647 199.532 191.064C195.498 192.176 197.446 194.816 193.411 198.291C192.577 198.985 191.464 199.541 190.351 199.541C187.151 198.985 184.369 197.318 182.282 194.816C134.984 212.604 116.899 239.843 111.057 264.023C111.613 265.83 112.17 267.498 112.587 269.304L113.143 266.664C119.682 235.951 142.635 212.743 181.587 197.735C183.952 199.958 186.734 201.348 189.934 201.904H190.212H190.49C192.299 201.904 193.968 201.209 195.359 200.097C197.585 198.152 198.42 196.206 198.837 194.955C199.393 193.705 199.393 193.705 200.367 193.427C201.341 193.149 202.176 192.454 202.593 191.62C203.01 190.925 203.01 190.091 203.01 189.397C204.262 188.563 204.958 187.173 204.68 185.783C204.541 184.81 204.541 183.838 204.68 183.143C206.766 183.004 210.244 182.448 210.94 179.53L211.079 179.113V178.696C210.522 173.971 209.549 169.385 208.297 164.799C208.297 164.521 208.297 164.382 208.297 164.104C208.297 163.826 208.436 163.687 208.575 163.548L212.331 159.101C213.166 158.128 213.722 156.878 213.722 155.627L214.557 144.092C217.2 140.618 219.843 136.171 219.286 133.392C218.313 129.084 205.375 111.573 179.778 109.906H179.639H177.135C157.103 109.906 142.914 126.304 141.661 137.978C141.244 142.147 142.357 147.289 143.47 152.569C144.861 158.684 146.252 165.077 145.139 169.802C145 170.636 144.722 171.33 144.305 172.025L144.166 172.303L144.026 172.72L143.887 172.859L143.748 172.998C143.748 173.137 143.609 173.137 143.609 173.276C138.879 167.161 132.758 162.436 125.803 159.379L125.246 159.101H124.829L123.438 158.684C122.881 158.545 122.464 158.406 121.907 158.267L121.629 158.128L120.377 157.711H120.238L119.125 157.433C116.343 156.878 113.422 156.461 110.639 156.461H110.5C109.248 156.461 107.857 156.461 106.605 156.6L105.353 155.488C101.597 152.014 95.1978 146.733 87.9639 144.509C89.9115 142.981 91.7199 141.174 93.3893 139.228C96.5889 135.476 98.9538 131.029 100.345 126.304C103.545 113.797 114.952 108.238 117.595 108.238H117.873C118.569 108.516 119.682 109.35 120.795 110.184C123.159 111.99 126.22 114.214 129.559 114.214C129.698 114.214 129.976 114.214 130.115 114.214C130.393 114.214 130.672 114.214 130.811 114.214C132.758 113.936 134.428 113.102 135.68 111.573C136.375 110.74 136.932 109.628 137.349 108.516C139.992 107.821 142.496 106.987 145 106.015H145.139H145.278C146.67 105.32 147.782 104.069 148.2 102.54C149.034 99.622 147.782 95.8698 145 91.7007C144.305 90.7279 143.609 89.6161 142.913 88.5044C140.549 84.8912 138.184 81 134.01 81Z" fill="white"/>
</mask>
<g mask="url(#mask1_127_54)">
<path d="M219.982 81H40.248V269.304H219.982V81Z" fill="url(#paint1_linear_127_54)"/>
</g>
<mask id="mask2_127_54" style="mask-type:luminance" maskUnits="userSpaceOnUse" x="44" y="83" width="173" height="184">
<path d="M132.341 84.1963C126.776 86.5588 120.655 87.8095 114.534 88.0874C108.692 88.0874 105.909 89.7551 100.206 94.2021C94.3629 98.6491 78.7822 108.238 68.2097 119.356C57.6371 130.612 52.2117 136.866 47.2036 139.923C42.3347 142.981 46.0907 146.038 47.4818 150.207C48.873 154.515 47.0645 165.911 53.0463 175.361C56.8024 180.919 60.9758 186.2 65.7056 190.925C65.7056 189.813 65.8447 188.563 66.4012 187.59C66.9576 191.481 68.3488 195.094 70.5746 198.43C71.131 199.263 71.6875 200.097 72.383 201.07C72.8004 197.457 74.6088 194.26 77.3911 191.898C75.0262 195.65 74.0524 199.958 74.6088 204.266C74.8871 207.74 75.5826 211.215 76.5564 214.55C77.1129 216.496 77.6693 218.024 77.9476 218.997C78.504 220.665 79.3387 222.193 80.1734 223.722C82.2601 219.831 85.4597 216.635 89.4939 214.828C85.1814 217.885 82.1209 222.332 81.008 227.474C80.3125 231.087 80.0342 234.701 80.1734 238.453C80.4516 242.066 81.008 245.54 81.9818 249.015H82.1209C91.3024 256.38 97.9798 261.244 110.917 266.247C116.204 241.51 133.871 213.16 182.56 194.816C184.647 197.318 187.569 198.985 190.629 199.541C191.742 199.541 192.855 199.124 193.689 198.291C197.585 194.677 195.637 192.176 199.81 191.064C201.202 190.647 200.228 188.007 200.228 188.007C200.228 188.007 202.454 187.451 202.314 186.339C202.175 185.088 201.758 180.919 203.984 180.78C206.071 180.78 208.296 180.363 208.575 179.252C208.018 174.666 207.183 170.219 205.792 165.772C205.653 165.077 205.653 164.521 205.792 163.826C205.931 163.131 206.21 162.575 206.627 162.158L210.244 157.85C210.661 157.294 210.939 156.6 211.079 155.905L211.913 143.675C211.913 143.675 217.2 136.866 216.643 134.503C216.087 132.141 204.958 114.77 179.5 113.102H177.135C158.216 113.102 145.417 128.528 144.165 138.811C143.192 147.289 149.73 161.325 147.504 170.913C147.365 171.886 146.948 172.859 146.53 173.832L146.252 174.249L146.113 174.527C145.974 174.805 145.835 174.944 145.696 175.222L145.139 175.916C143.331 178.001 140.966 179.53 138.323 180.641C135.679 181.614 132.897 182.031 130.115 181.753C134.567 181.058 138.601 178.696 141.522 175.222C137.071 169.524 131.228 164.938 124.689 162.019H124.411L122.603 161.325C122.046 161.186 121.629 161.047 121.073 160.769L119.821 160.352L118.429 160.213C115.786 159.657 113.143 159.379 110.361 159.379C108.692 159.379 106.883 159.518 105.214 159.657C98.5363 160.769 92.4153 164.243 87.9637 169.385C89.4939 166.466 91.7197 163.826 94.3629 161.88C97.006 159.935 100.067 158.406 103.405 157.711C99.371 153.959 90.1895 146.455 81.4254 146.455H80.7298C84.7641 144.37 88.381 141.452 91.3024 137.978C94.2238 134.503 96.4496 130.334 97.8407 126.026C101.319 112.824 113.421 106.015 117.595 106.015C117.873 106.015 118.012 106.015 118.29 106.015C121.351 106.987 125.385 111.99 129.558 111.99C129.837 111.99 130.115 111.99 130.532 111.99C131.784 111.851 132.897 111.156 133.732 110.323C134.567 109.35 134.984 108.238 134.984 106.987C138.044 106.154 141.105 105.32 144.165 104.208C146.808 102.957 146.113 98.6491 142.774 93.7852C139.853 89.6161 137.766 83.9183 134.149 83.9183C133.454 83.9183 132.897 84.0573 132.341 84.1963Z" fill="white"/>
</mask>
<g mask="url(#mask2_127_54)">
<path d="M217.339 83.9183H42.3345V266.386H217.339V83.9183Z" fill="url(#paint2_linear_127_54)"/>
</g>
<path d="M184.23 323.086C184.647 323.086 185.065 322.947 185.343 322.669C185.621 322.391 185.76 321.974 185.76 321.557C185.76 321.14 185.621 320.723 185.343 320.445C185.065 320.167 184.647 320.028 184.23 320.028H182.561V322.947H184.23V323.086ZM184.23 319.194C184.926 319.194 185.482 319.472 186.038 319.889C186.456 320.306 186.734 320.862 186.734 321.557C186.734 322.252 186.456 322.808 186.038 323.225C185.621 323.641 184.926 323.919 184.23 323.919H182.421V326.56H181.448V319.055H184.23V319.194ZM180.335 319.194V320.028H178.109V326.699H177.135V320.028H174.909V319.194H180.335ZM172.684 319.194H173.657V326.699H172.684V323.225H168.788V326.699H167.815V319.194H168.788V322.391H172.684V319.194ZM162.807 325.865H166.284V326.699H161.972V319.194H166.284V320.028H162.807V322.391H165.867V323.225H162.807V325.865ZM159.607 325.865H160.442V328.227H159.607V326.699H154.321V319.194H155.294V325.865H158.772V319.194H159.746V325.865H159.607ZM149.034 324.197V323.363H152.373V324.197H149.034ZM144.305 326.838C143.192 326.838 142.218 326.421 141.522 325.726C140.827 325.031 140.409 324.058 140.409 322.947C140.409 321.835 140.827 320.862 141.522 320.167C142.218 319.472 143.192 319.055 144.305 319.055C144.861 319.055 145.417 319.194 145.835 319.333C146.391 319.611 146.809 319.889 147.087 320.306C147.365 320.723 147.643 321.14 147.782 321.696H146.809C146.669 321.14 146.252 320.723 145.835 320.445C145.417 320.167 144.861 320.028 144.165 320.028C143.331 320.028 142.635 320.306 142.079 320.862C141.522 321.418 141.244 322.113 141.244 322.947C141.244 323.78 141.522 324.475 142.079 325.031C142.635 325.587 143.331 325.865 144.165 325.865C144.861 325.865 145.278 325.726 145.835 325.309C146.252 325.031 146.669 324.475 146.809 323.919H147.782C147.504 324.753 147.087 325.448 146.53 326.004C145.974 326.56 145.139 326.838 144.305 326.838ZM136.097 325.865H139.575V326.699H135.262V319.194H139.575V320.028H136.236V322.391H139.157V323.225H136.097V325.865ZM132.202 319.194H133.176V326.699H132.202V323.225H128.307V326.699H127.333V319.194H128.307V322.391H132.202V319.194ZM126.081 319.194V320.028H123.855V326.699H122.881V320.028H120.655V319.194H126.081ZM118.708 319.194H119.403V326.699H118.43V321.001L114.117 326.699H113.421V319.194H114.395V324.892L118.708 319.194ZM104.518 322.947C104.518 323.78 104.796 324.475 105.214 325.031C105.77 325.587 106.327 325.865 107.161 326.004V320.028C106.327 320.028 105.631 320.445 105.214 321.001C104.796 321.557 104.518 322.252 104.518 322.947ZM108.274 325.865C108.692 325.865 109.109 325.726 109.387 325.587C109.665 325.448 110.083 325.17 110.222 324.892C110.5 324.614 110.639 324.336 110.778 323.919C110.917 323.641 110.917 323.225 110.917 322.808C110.917 321.974 110.639 321.279 110.222 320.723C109.665 320.167 109.109 319.889 108.274 319.75V325.865ZM111.891 322.947C111.891 323.641 111.752 324.197 111.474 324.892C111.196 325.448 110.778 325.865 110.222 326.282C109.665 326.699 108.97 326.838 108.274 326.838V327.95H107.301V326.838C106.605 326.838 105.909 326.56 105.353 326.282C104.796 325.865 104.379 325.448 104.101 324.892C103.823 324.336 103.684 323.641 103.684 323.086C103.684 322.391 103.823 321.835 104.101 321.279C104.379 320.723 104.796 320.306 105.353 319.889C105.909 319.472 106.605 319.333 107.301 319.333V318.361H108.274V319.333C108.831 319.333 109.387 319.472 109.805 319.75C110.222 320.028 110.639 320.306 110.917 320.584C111.196 321.001 111.474 321.279 111.613 321.835C111.891 321.974 111.891 322.391 111.891 322.947Z" fill="#0F0E09"/>
<path d="M243.087 365.171C243.328 366.268 244.653 366.878 245.737 366.878H259.229C260.795 366.878 262 365.659 262 364.073V357.61C262 356.268 260.554 354.805 259.35 354.683L250.195 353.341C249.954 353.341 249.713 353.098 249.713 352.854V352C249.713 351.756 249.954 351.512 250.195 351.512H258.988C260.314 351.512 260.916 350.659 261.157 349.805L261.639 347H245.617C244.051 347 242.846 348.22 242.846 349.805V356.756C242.846 357.854 244.051 359.195 245.135 359.317L254.652 360.659C254.893 360.659 255.134 360.902 255.134 361.146V361.878C255.134 362.122 254.893 362.366 254.652 362.366H242.364L243.087 365.171ZM220.801 365.171C221.042 366.268 222.367 366.878 223.452 366.878H236.944C238.51 366.878 239.714 365.659 239.714 364.073V357.61C239.714 356.268 238.269 354.805 237.064 354.683L227.909 353.341C227.668 353.341 227.427 353.098 227.427 352.854V352C227.427 351.756 227.668 351.512 227.909 351.512H236.703C238.028 351.512 238.63 350.659 238.871 349.805L239.353 347H223.331C221.765 347 220.56 348.22 220.56 349.805V356.756C220.56 357.854 221.765 359.195 222.849 359.317L232.366 360.659C232.607 360.659 232.848 360.902 232.848 361.146V361.878C232.848 362.122 232.607 362.366 232.366 362.366H220.079L220.801 365.171ZM200.684 352.61V366.878H218.031L216.706 363.22C216.344 362.122 215.501 362 215.019 362H207.55V357.732H207.671L208.153 358.463C208.394 358.707 208.755 359.073 208.996 359.073H212.851C213.453 359.073 214.055 358.829 214.296 358.22L215.501 354.927H207.43V352.244H215.019C215.621 352.244 216.103 351.878 216.465 351.39L217.91 347.366H198.636L200.684 352.61ZM187.794 365.537C188.397 366.512 189.722 367 190.806 367H196.468V347.244H189.601L189.842 357L184.06 348.951C183.337 347.854 181.892 347.122 180.567 347.122H173.098L175.025 352.61V366.878H181.892L181.651 356.878L187.794 365.537ZM152.98 350.78C153.583 352.732 154.908 353.098 156.112 353.098H158.883V366.878H165.75V353.098H171.411V347.122H151.896L152.98 350.78ZM140.814 347.122L142.741 352.61V366.878H149.607V347.122H140.814ZM137.2 356.024H129.731V352.61H136.597C137.681 352.61 138.766 351.512 139.007 350.293L139.729 347.244H120.937L122.864 352.732V367H129.731V359.561H129.851L130.213 360.78C130.333 361.146 130.695 361.512 131.056 361.512H134.188C135.152 361.512 136.115 360.415 136.356 359.317L137.2 356.024ZM92.869 352.61V366.878H110.216L108.891 363.22C108.529 362.122 107.686 362 107.204 362H99.7354V357.732H99.8559L100.338 358.463C100.579 358.707 100.94 359.073 101.181 359.073H105.036C105.638 359.073 106.24 358.829 106.481 358.22L107.686 354.927H99.6149V352.244H107.325C107.927 352.244 108.409 351.878 108.77 351.39L110.216 347.366H90.9415L92.869 352.61ZM78.2928 357.732V351.634H82.2681C82.3886 351.634 82.5091 351.756 82.5091 351.878L81.9068 357.366C81.9068 357.488 81.7863 357.61 81.6658 357.61H78.2928V357.732ZM71.5469 352.61V366.878H78.4133V360.293L78.7747 361.39C78.8952 361.878 79.6179 362.244 80.0998 362.244H85.8821C86.9662 362.244 88.1709 361.146 88.2913 360.049L89.8574 349.317C89.9778 348.341 88.7732 347 87.8095 347H69.499L71.5469 352.61ZM55.0433 353.22C55.0433 352.854 55.2843 352.61 55.6457 352.61H60.3438C60.7051 352.61 60.9461 352.854 60.9461 353.22V360.902C60.9461 361.268 60.7051 361.512 60.3438 361.512H55.6457C55.2843 361.512 55.0433 361.268 55.0433 360.902V353.22ZM48.1769 350.049V363.951C48.1769 365.537 49.502 366.878 51.068 366.878H64.8009C66.3669 366.878 67.692 365.537 67.692 363.951V350.049C67.692 348.463 66.3669 347.122 64.8009 347.122H51.068C49.502 347.122 48.1769 348.463 48.1769 350.049ZM37.5761 354.317H31.7939V347.122H23L24.9274 352.61V366.878H31.7939V356.878H31.9143L32.0348 357.732C32.1552 358.829 32.3962 359.683 33.6008 359.683H37.5761V366.878H44.4425V347.122H37.5761V354.317Z" fill="#0F0E09"/>
</g>
<defs>
<linearGradient id="paint0_linear_127_54" x1="81.2926" y1="255.179" x2="237.391" y2="77.7085" gradientUnits="userSpaceOnUse">
<stop stop-color="#3716CF"/>
<stop offset="0.11" stop-color="#3716CF"/>
<stop offset="0.2974" stop-color="#560DDF"/>
<stop offset="0.4894" stop-color="#6F07EB"/>
<stop offset="0.6657" stop-color="#7E02F2"/>
<stop offset="0.81" stop-color="#8301F5"/>
<stop offset="1" stop-color="#8301F5"/>
</linearGradient>
<linearGradient id="paint1_linear_127_54" x1="175.781" y1="95.7564" x2="81.1638" y2="260.478" gradientUnits="userSpaceOnUse">
<stop stop-color="#FFF6F0"/>
<stop offset="0.81" stop-color="#FFF6F0"/>
<stop offset="0.9188" stop-color="#8A73DD"/>
<stop offset="1" stop-color="#3716CF"/>
</linearGradient>
<linearGradient id="paint2_linear_127_54" x1="84.1437" y1="258.293" x2="203.147" y2="41.2576" gradientUnits="userSpaceOnUse">
<stop stop-color="#3716CF"/>
<stop offset="0.02" stop-color="#3716CF"/>
<stop offset="0.0826313" stop-color="#4712D7"/>
<stop offset="0.15" stop-color="#5E0CE2"/>
<stop offset="0.1965" stop-color="#6E13E3"/>
<stop offset="0.2877" stop-color="#9927E7"/>
<stop offset="0.39" stop-color="#CF40EB"/>
<stop offset="0.58" stop-color="#F857A1"/>
<stop offset="0.6289" stop-color="#F963A4"/>
<stop offset="0.7163" stop-color="#FB81AC"/>
<stop offset="0.83" stop-color="#FFB2B9"/>
<stop offset="1" stop-color="#FFB2B9"/>
</linearGradient>
<clipPath id="clip0_127_54">
<rect width="276" height="286" fill="white" transform="translate(7 81)"/>
</clipPath>
</defs>
</svg>
