<svg width="290" height="405" viewBox="0 0 290 405" fill="none" xmlns="http://www.w3.org/2000/svg">
<g clip-path="url(#clip0_54_4113)">
<mask id="mask0_54_4113" style="mask-type:luminance" maskUnits="userSpaceOnUse" x="46" y="83" width="198" height="199">
<path d="M145.012 281.22C199.544 281.22 243.666 236.802 243.666 182.169C243.666 127.418 199.544 83 145.012 83C90.4803 83 46.2397 127.418 46.2397 182.169C46.2397 236.802 90.4803 281.22 145.012 281.22Z" fill="white"/>
</mask>
<g mask="url(#mask0_54_4113)">
<path d="M243.666 83H46.2397V281.22H243.666V83Z" fill="url(#paint0_linear_54_4113)"/>
</g>
<path d="M246.505 322.788C246.86 323.145 247.451 323.382 248.043 323.382C248.634 323.382 249.108 323.145 249.581 322.788C249.936 322.432 250.172 321.838 250.172 321.244C250.172 320.65 249.936 320.175 249.581 319.7C249.226 319.344 248.634 319.107 248.043 319.107C247.451 319.107 246.978 319.344 246.505 319.7C246.15 320.057 245.914 320.65 245.914 321.244C245.914 321.838 246.032 322.432 246.505 322.788ZM247.925 324.213C247.333 324.213 246.86 324.095 246.387 323.857C245.914 323.62 245.559 323.263 245.322 322.788C245.086 322.313 244.967 321.838 244.967 321.244C244.967 320.413 245.204 319.7 245.795 319.107C246.387 318.513 247.097 318.275 247.925 318.275C248.516 318.275 248.989 318.394 249.462 318.631C249.936 318.869 250.29 319.225 250.527 319.7C250.764 320.175 250.882 320.65 250.882 321.244C250.882 322.076 250.645 322.788 250.054 323.382C249.581 323.976 248.871 324.213 247.925 324.213ZM242.128 323.263C242.247 323.263 242.483 323.263 242.602 323.145C242.72 323.026 242.838 323.026 242.956 322.788C243.075 322.669 243.075 322.551 243.075 322.313C243.075 322.194 243.075 321.957 242.956 321.838C242.838 321.719 242.72 321.601 242.602 321.482C242.483 321.363 242.247 321.363 242.128 321.363H240.236V323.026H242.128V323.263ZM242.838 320.057C242.838 319.819 242.72 319.582 242.602 319.463C242.483 319.344 242.247 319.225 242.01 319.225H240.236V320.769H242.01C242.247 320.769 242.483 320.65 242.602 320.532C242.838 320.413 242.838 320.294 242.838 320.057ZM243.075 321.126C243.311 321.244 243.548 321.363 243.785 321.601C243.903 321.838 244.021 322.076 244.021 322.432C244.021 322.907 243.903 323.263 243.548 323.62C243.193 323.976 242.838 324.095 242.247 324.095H239.408V318.394H242.247C242.72 318.394 243.075 318.513 243.43 318.75C243.666 318.988 243.903 319.344 243.903 319.819C243.903 320.057 243.903 320.175 243.785 320.413C243.666 320.532 243.666 320.769 243.548 320.888C243.311 321.007 243.193 321.126 243.075 321.126ZM238.225 318.394V319.225H236.096V324.095H235.268V319.225H233.138V318.394H238.225ZM229.945 324.213C229.353 324.213 228.88 324.095 228.407 323.857C227.934 323.62 227.579 323.263 227.342 322.788C227.106 322.313 226.987 321.838 226.987 321.244C226.987 320.413 227.224 319.7 227.815 319.107C228.407 318.513 229.116 318.275 229.945 318.275C230.654 318.275 231.246 318.513 231.719 318.869C232.192 319.225 232.547 319.7 232.784 320.413H231.837C231.719 320.057 231.364 319.7 231.127 319.582C230.773 319.344 230.418 319.225 230.063 319.225C229.471 319.225 228.998 319.463 228.643 319.819C228.288 320.175 228.052 320.769 228.052 321.363C228.052 321.719 228.17 322.076 228.288 322.432C228.407 322.788 228.762 323.026 228.998 323.145C229.353 323.382 229.708 323.382 230.063 323.382C230.536 323.382 230.891 323.263 231.127 323.026C231.482 322.788 231.719 322.551 231.837 322.076H232.784C232.665 322.669 232.31 323.263 231.719 323.62C231.127 324.095 230.536 324.213 229.945 324.213ZM225.095 318.394H225.568V324.095H224.74V320.057L221.428 324.095H220.954V318.394H221.783V322.432L225.095 318.394ZM224.621 316.612V317.325H221.901V316.612H224.621ZM216.578 321.126H218.234V319.344H216.578C216.341 319.344 215.986 319.463 215.868 319.582C215.631 319.7 215.631 319.938 215.631 320.175C215.631 320.413 215.75 320.65 215.868 320.769C215.986 321.007 216.223 321.126 216.578 321.126ZM216.459 318.394H219.062V324.095H218.234V321.957H216.814L215.513 324.095H214.567L215.986 321.719C215.631 321.601 215.277 321.363 215.158 321.126C214.922 320.888 214.803 320.532 214.803 320.057C214.803 319.582 214.922 319.107 215.277 318.75C215.513 318.631 215.986 318.394 216.459 318.394ZM212.792 321.126C213.266 321.363 213.62 321.838 213.62 322.551C213.62 322.907 213.502 323.145 213.384 323.501C213.147 323.738 212.911 323.976 212.556 324.095C212.201 324.213 211.846 324.332 211.491 324.332C210.9 324.332 210.427 324.213 209.953 323.857C209.599 323.501 209.362 323.145 209.244 322.551H210.072C210.072 322.788 210.308 323.026 210.545 323.145C210.782 323.263 211.136 323.382 211.491 323.382C211.846 323.382 212.201 323.263 212.438 323.145C212.674 323.026 212.792 322.788 212.792 322.432C212.792 322.194 212.674 321.957 212.438 321.719C212.201 321.601 211.964 321.482 211.61 321.482H210.782V320.769H211.61C211.846 320.769 212.201 320.65 212.319 320.532C212.556 320.413 212.556 320.175 212.556 319.938C212.556 319.7 212.438 319.463 212.201 319.344C211.964 319.225 211.728 319.107 211.373 319.107C211.018 319.107 210.782 319.225 210.545 319.344C210.308 319.463 210.19 319.7 210.19 319.938H209.362C209.362 319.582 209.48 319.344 209.717 319.107C209.953 318.869 210.19 318.631 210.427 318.513C210.782 318.394 211.018 318.275 211.373 318.275C211.964 318.275 212.438 318.394 212.792 318.75C213.147 319.107 213.384 319.463 213.384 319.938C213.384 320.413 213.266 320.888 212.792 321.126ZM203.921 322.788C204.276 323.145 204.867 323.382 205.458 323.382C206.05 323.382 206.523 323.145 206.996 322.788C207.351 322.432 207.588 321.838 207.588 321.244C207.588 320.65 207.351 320.175 206.996 319.7C206.641 319.344 206.05 319.107 205.458 319.107C204.867 319.107 204.394 319.344 203.921 319.7C203.566 320.057 203.329 320.65 203.329 321.244C203.329 321.838 203.566 322.432 203.921 322.788ZM205.458 324.213C204.867 324.213 204.394 324.095 203.921 323.857C203.448 323.62 203.093 323.263 202.856 322.788C202.619 322.313 202.501 321.838 202.501 321.244C202.501 320.413 202.738 319.7 203.329 319.107C203.921 318.513 204.63 318.275 205.458 318.275C206.05 318.275 206.523 318.394 206.996 318.631C207.469 318.869 207.824 319.225 208.061 319.7C208.297 320.175 208.416 320.65 208.416 321.244C208.416 322.076 208.179 322.788 207.588 323.382C206.996 323.976 206.286 324.213 205.458 324.213ZM202.146 324.095H201.082L199.426 321.719L197.77 324.095H196.823L198.952 321.126L197.06 318.394H198.006L199.426 320.532L200.963 318.394H201.91L200.017 321.126L202.146 324.095ZM190.672 319.107C190.317 319.107 190.081 319.225 189.726 319.344C189.489 319.463 189.253 319.7 189.016 319.938C188.78 320.175 188.661 320.532 188.661 320.769H192.565C192.447 320.413 192.328 320.175 192.21 319.938C191.973 319.7 191.855 319.463 191.5 319.344C191.264 319.225 191.027 319.107 190.672 319.107ZM193.511 321.244C193.511 321.363 193.511 321.482 193.511 321.601H188.661C188.78 322.076 188.898 322.551 189.371 322.907C189.726 323.263 190.199 323.382 190.672 323.382C191.027 323.382 191.382 323.263 191.737 323.145C192.092 323.026 192.328 322.669 192.447 322.432H193.393C193.156 323.026 192.801 323.501 192.328 323.857C191.855 324.213 191.264 324.332 190.672 324.332C189.844 324.332 189.134 324.095 188.661 323.501C188.07 322.907 187.833 322.194 187.833 321.363C187.833 320.532 188.07 319.819 188.661 319.225C189.253 318.631 189.962 318.394 190.672 318.394C191.5 318.394 192.21 318.631 192.801 319.225C193.275 319.7 193.511 320.413 193.511 321.244ZM182.274 322.788C182.628 323.145 183.22 323.382 183.811 323.382C184.403 323.382 184.876 323.145 185.349 322.788C185.704 322.432 185.941 321.838 185.941 321.244C185.941 320.65 185.704 320.175 185.349 319.7C184.994 319.344 184.403 319.107 183.811 319.107C183.22 319.107 182.747 319.344 182.274 319.7C181.919 320.057 181.682 320.65 181.682 321.244C181.682 321.838 181.919 322.432 182.274 322.788ZM183.811 324.213C183.22 324.213 182.747 324.095 182.274 323.857C181.8 323.62 181.446 323.263 181.209 322.788C180.972 322.313 180.854 321.838 180.854 321.244C180.854 320.413 181.091 319.7 181.682 319.107C182.274 318.513 182.983 318.275 183.811 318.275C184.403 318.275 184.876 318.394 185.349 318.631C185.822 318.869 186.177 319.225 186.414 319.7C186.65 320.175 186.769 320.65 186.769 321.244C186.769 322.076 186.532 322.788 185.941 323.382C185.467 323.976 184.639 324.213 183.811 324.213ZM179.435 324.095L177.542 321.482H176.714V324.095H175.768V318.394H176.714V320.769H177.542L179.316 318.394H180.381L178.252 321.126L180.499 324.095H179.435ZM171.746 324.213C171.154 324.213 170.681 324.095 170.208 323.857C169.735 323.62 169.38 323.263 169.143 322.788C168.907 322.313 168.788 321.838 168.788 321.244C168.788 320.413 169.025 319.7 169.616 319.107C170.208 318.513 170.918 318.275 171.746 318.275C172.455 318.275 173.047 318.513 173.52 318.869C173.993 319.225 174.348 319.7 174.585 320.413H173.757C173.638 320.057 173.283 319.7 173.047 319.582C172.692 319.344 172.337 319.225 171.982 319.225C171.391 319.225 170.918 319.463 170.563 319.819C170.208 320.175 169.971 320.769 169.971 321.363C169.971 321.719 170.09 322.076 170.208 322.432C170.326 322.788 170.681 323.026 170.918 323.145C171.154 323.263 171.627 323.382 171.982 323.382C172.455 323.382 172.81 323.263 173.047 323.026C173.402 322.788 173.638 322.551 173.757 322.076H174.703C174.585 322.669 174.23 323.263 173.638 323.62C172.929 324.095 172.337 324.213 171.746 324.213ZM164.885 323.382C165.476 323.382 165.949 323.145 166.423 322.788C166.778 322.432 167.014 321.838 167.014 321.244C167.014 320.65 166.778 320.175 166.423 319.7C166.068 319.344 165.476 319.107 164.885 319.107C164.293 319.107 163.82 319.344 163.347 319.7C162.992 320.057 162.756 320.65 162.756 321.244C162.756 321.601 162.874 321.957 162.992 322.313C163.229 322.669 163.465 322.907 163.702 323.026C164.057 323.263 164.412 323.382 164.885 323.382ZM164.885 318.275C165.713 318.275 166.423 318.513 167.014 319.107C167.606 319.7 167.842 320.413 167.842 321.244C167.842 322.076 167.606 322.788 167.014 323.382C166.423 323.976 165.713 324.213 164.885 324.213C164.057 324.213 163.347 323.976 162.756 323.382V326.232H161.809V318.513H162.401L162.637 319.344C162.874 318.988 163.229 318.75 163.584 318.631C164.057 318.394 164.412 318.275 164.885 318.275ZM157.669 319.107C157.314 319.107 157.078 319.225 156.723 319.344C156.486 319.463 156.25 319.7 156.013 319.938C155.777 320.175 155.658 320.532 155.658 320.769H159.562C159.444 320.413 159.325 320.175 159.207 319.938C158.97 319.7 158.852 319.463 158.497 319.344C158.261 319.225 158.024 319.107 157.669 319.107ZM160.508 321.244C160.508 321.363 160.508 321.482 160.508 321.601H155.658C155.777 322.076 155.895 322.551 156.368 322.907C156.723 323.263 157.196 323.382 157.669 323.382C158.024 323.382 158.379 323.263 158.734 323.145C159.089 323.026 159.325 322.669 159.444 322.432H160.39C160.153 323.026 159.798 323.501 159.325 323.857C158.852 324.213 158.261 324.332 157.669 324.332C156.841 324.332 156.131 324.095 155.658 323.501C155.067 322.907 154.83 322.194 154.83 321.363C154.83 320.532 155.067 319.819 155.658 319.225C156.25 318.631 156.959 318.394 157.669 318.394C158.497 318.394 159.207 318.631 159.798 319.225C160.272 319.7 160.508 320.413 160.508 321.244ZM153.884 324.095H153.056L152.228 319.819L150.217 323.976H149.98L147.969 319.819L147.141 324.095H146.313L147.378 318.394H148.088L149.98 322.432L151.873 318.394H152.583L153.884 324.095ZM142.528 323.382C143.119 323.382 143.593 323.145 144.066 322.788C144.421 322.432 144.657 321.838 144.657 321.244C144.657 320.65 144.421 320.175 144.066 319.7C143.711 319.344 143.119 319.107 142.528 319.107C141.937 319.107 141.463 319.344 140.99 319.7C140.635 320.057 140.399 320.65 140.399 321.244C140.399 321.601 140.517 321.957 140.635 322.313C140.872 322.669 141.109 322.907 141.345 323.026C141.818 323.263 142.173 323.382 142.528 323.382ZM142.646 318.275C143.474 318.275 144.184 318.513 144.776 319.107C145.367 319.7 145.604 320.413 145.604 321.244C145.604 322.076 145.367 322.788 144.776 323.382C144.184 323.976 143.474 324.213 142.646 324.213C141.818 324.213 141.109 323.976 140.517 323.382V326.232H139.571V318.513H140.162L140.399 319.344C140.635 318.988 140.99 318.75 141.345 318.631C141.7 318.394 142.173 318.275 142.646 318.275ZM135.194 323.382C135.785 323.382 136.259 323.145 136.732 322.788C137.087 322.432 137.323 321.838 137.323 321.244C137.323 320.65 137.087 320.175 136.732 319.7C136.377 319.344 135.785 319.107 135.194 319.107C134.603 319.107 134.129 319.344 133.656 319.7C133.301 320.057 133.065 320.65 133.065 321.244C133.065 321.601 133.183 321.957 133.301 322.313C133.538 322.669 133.775 322.907 134.011 323.026C134.484 323.263 134.839 323.382 135.194 323.382ZM135.312 318.275C136.14 318.275 136.85 318.513 137.442 319.107C138.033 319.7 138.27 320.413 138.27 321.244C138.27 322.076 138.033 322.788 137.442 323.382C136.85 323.976 136.14 324.213 135.312 324.213C134.484 324.213 133.775 323.976 133.183 323.382V326.232H132.237V318.513H132.828L133.065 319.344C133.301 318.988 133.656 318.75 134.011 318.631C134.484 318.394 134.839 318.275 135.312 318.275ZM128.097 319.107C127.742 319.107 127.505 319.225 127.15 319.344C126.914 319.463 126.677 319.7 126.441 319.938C126.204 320.175 126.086 320.532 126.086 320.769H129.989C129.871 320.413 129.753 320.175 129.634 319.938C129.398 319.7 129.28 319.463 128.925 319.344C128.688 319.225 128.451 319.107 128.097 319.107ZM130.936 321.244C130.936 321.363 130.936 321.482 130.936 321.601H126.086C126.204 322.076 126.322 322.551 126.795 322.907C127.15 323.263 127.623 323.382 128.097 323.382C128.451 323.382 128.806 323.263 129.161 323.145C129.516 323.026 129.753 322.669 129.871 322.432H130.817C130.581 323.026 130.226 323.501 129.753 323.857C129.28 324.213 128.688 324.332 128.097 324.332C127.269 324.332 126.559 324.095 126.086 323.501C125.494 322.907 125.258 322.194 125.258 321.363C125.258 320.532 125.494 319.819 126.086 319.225C126.677 318.631 127.387 318.394 128.097 318.394C128.925 318.394 129.634 318.631 130.226 319.225C130.699 319.7 130.936 320.413 130.936 321.244ZM121.236 323.382C121.827 323.382 122.3 323.145 122.774 322.788C123.128 322.432 123.365 321.957 123.365 321.363C123.365 320.769 123.128 320.294 122.774 319.938C122.419 319.582 121.827 319.344 121.236 319.344V323.382ZM118.87 319.819C118.515 320.175 118.279 320.65 118.279 321.244C118.279 321.838 118.515 322.313 118.87 322.669C119.225 323.026 119.698 323.263 120.408 323.263V319.107C119.816 319.225 119.343 319.463 118.87 319.819ZM124.193 321.244C124.193 322.076 123.956 322.788 123.365 323.382C122.774 323.976 122.064 324.213 121.236 324.213V325.876H120.289V324.213C119.698 324.213 119.225 324.095 118.752 323.857C118.279 323.62 117.924 323.263 117.687 322.788C117.45 322.313 117.332 321.838 117.332 321.244C117.332 320.413 117.569 319.7 118.16 319.107C118.752 318.513 119.461 318.275 120.289 318.275V316.731H121.236V318.275C122.064 318.275 122.774 318.631 123.365 319.107C123.956 319.7 124.193 320.413 124.193 321.244ZM110.945 319.107C110.59 319.107 110.353 319.225 109.998 319.344C109.762 319.463 109.525 319.7 109.288 319.938C109.052 320.175 108.934 320.532 108.934 320.769H112.837C112.719 320.413 112.601 320.175 112.482 319.938C112.246 319.7 112.127 319.463 111.773 319.344C111.536 319.225 111.299 319.107 110.945 319.107ZM113.783 321.244C113.783 321.363 113.783 321.482 113.783 321.601H108.934C109.052 322.076 109.17 322.551 109.643 322.907C109.998 323.263 110.471 323.382 110.945 323.382C111.299 323.382 111.654 323.263 112.009 323.145C112.364 323.026 112.601 322.669 112.719 322.432H113.665C113.429 323.026 113.074 323.501 112.601 323.857C112.127 324.213 111.536 324.332 110.945 324.332C110.116 324.332 109.407 324.095 108.934 323.501C108.342 322.907 108.106 322.194 108.106 321.363C108.106 320.532 108.342 319.819 108.934 319.225C109.525 318.631 110.235 318.394 110.945 318.394C111.773 318.394 112.482 318.631 113.074 319.225C113.547 319.7 113.783 320.413 113.783 321.244ZM102.546 322.788C102.901 323.145 103.492 323.382 104.084 323.382C104.675 323.382 105.148 323.145 105.621 322.788C105.976 322.432 106.213 321.838 106.213 321.244C106.213 320.65 105.976 320.175 105.621 319.7C105.267 319.344 104.675 319.107 104.084 319.107C103.492 319.107 103.019 319.344 102.546 319.7C102.191 320.057 101.954 320.65 101.954 321.244C101.954 321.838 102.191 322.432 102.546 322.788ZM104.084 324.213C103.492 324.213 103.019 324.095 102.546 323.857C102.073 323.62 101.718 323.263 101.481 322.788C101.245 322.313 101.126 321.838 101.126 321.244C101.126 320.413 101.363 319.7 101.954 319.107C102.546 318.513 103.256 318.275 104.084 318.275C104.675 318.275 105.148 318.394 105.621 318.631C106.095 318.869 106.449 319.225 106.686 319.7C106.923 320.175 107.041 320.65 107.041 321.244C107.041 322.076 106.804 322.788 106.213 323.382C105.621 323.976 104.912 324.213 104.084 324.213ZM99.5887 324.095L97.696 321.482H96.868V324.095H95.9217V318.394H96.868V320.769H97.696L99.4704 318.394H100.535L98.4058 321.126L100.653 324.095H99.5887ZM91.8998 324.213C91.3083 324.213 90.8352 324.095 90.362 323.857C89.8889 323.62 89.534 323.263 89.2974 322.788C89.0608 322.313 88.9425 321.838 88.9425 321.244C88.9425 320.413 89.1791 319.7 89.7706 319.107C90.362 318.513 91.0718 318.275 91.8998 318.275C92.6095 318.275 93.201 318.513 93.6741 318.869C94.1473 319.225 94.5022 319.7 94.7388 320.413H93.9107C93.7924 320.057 93.4376 319.7 93.201 319.582C92.8461 319.344 92.4912 319.225 92.1364 319.225C91.5449 319.225 91.0718 319.463 90.7169 319.819C90.362 320.175 90.1254 320.769 90.1254 321.363C90.1254 321.719 90.2437 322.076 90.362 322.432C90.4803 322.788 90.8352 323.026 91.0718 323.145C91.4266 323.382 91.7815 323.382 92.1364 323.382C92.6095 323.382 92.9644 323.263 93.201 323.026C93.5559 322.788 93.7924 322.551 93.9107 322.076H94.857C94.7388 322.669 94.3839 323.263 93.7924 323.62C93.201 324.095 92.6095 324.213 91.8998 324.213ZM86.695 318.394H87.5231V324.095H86.695V321.601H83.6195V324.095H82.7914V318.394H83.6195V320.769H86.695V318.394ZM78.4147 321.126H80.0708V319.344H78.4147C78.1781 319.344 77.8233 319.463 77.705 319.582C77.4684 319.7 77.4684 319.938 77.4684 320.175C77.4684 320.413 77.5867 320.65 77.705 320.769C77.9416 321.007 78.1781 321.126 78.4147 321.126ZM78.4147 318.394H81.0171V324.095H80.1891V321.957H78.7696L77.4684 324.095H76.5221L77.9415 321.719C77.5867 321.601 77.2318 321.363 77.1135 321.126C76.8769 320.888 76.7586 320.532 76.7586 320.057C76.7586 319.582 76.8769 319.107 77.2318 318.75C77.4684 318.631 77.8233 318.394 78.4147 318.394ZM73.5648 323.382C73.9197 323.382 74.2745 323.263 74.5111 323.026C74.7477 322.788 74.866 322.551 74.866 322.194C74.866 321.838 74.7477 321.601 74.5111 321.363C74.2745 321.126 74.038 321.007 73.5648 321.007H72.2636V323.263H73.5648V323.382ZM73.6831 320.175C74.2745 320.175 74.7477 320.413 75.1026 320.769C75.4575 321.126 75.694 321.601 75.694 322.194C75.694 322.788 75.4575 323.263 75.1026 323.62C74.7477 323.976 74.2745 324.213 73.6831 324.213H71.4356V318.513H72.2636V320.294H73.6831V320.175ZM70.371 318.394V319.225H68.2417V324.095H67.4137V319.225H65.2845V318.394H70.371ZM61.9724 324.213C61.3809 324.213 60.9077 324.095 60.4346 323.857C59.9614 323.62 59.6066 323.263 59.37 322.788C59.1334 322.313 59.0151 321.838 59.0151 321.244C59.0151 320.413 59.2517 319.7 59.8431 319.107C60.4346 318.513 61.1443 318.275 61.9724 318.275C62.6821 318.275 63.2736 318.513 63.7467 318.869C64.2199 319.225 64.5747 319.7 64.8113 320.413H63.865C63.7467 320.057 63.3918 319.7 63.1553 319.582C62.8004 319.344 62.4455 319.225 62.0907 319.225C61.4992 319.225 61.026 319.463 60.6712 319.819C60.3163 320.175 60.0797 320.769 60.0797 321.363C60.0797 321.719 60.198 322.076 60.3163 322.432C60.4346 322.788 60.7895 323.026 61.026 323.145C61.3809 323.382 61.7358 323.382 62.0907 323.382C62.5638 323.382 62.9187 323.263 63.1553 323.026C63.5101 322.788 63.7467 322.551 63.865 322.076H64.8113C64.693 322.669 64.3382 323.263 63.7467 323.62C63.1553 324.095 62.6821 324.213 61.9724 324.213ZM55.2298 319.107C54.8749 319.107 54.6384 319.225 54.2835 319.344C54.0469 319.463 53.8103 319.7 53.5738 319.938C53.3372 320.175 53.2189 320.532 53.2189 320.769H57.1225C57.0042 320.413 56.8859 320.175 56.7676 319.938C56.531 319.7 56.4127 319.463 56.0579 319.344C55.8213 319.225 55.5847 319.107 55.2298 319.107ZM58.0688 321.244C58.0688 321.363 58.0688 321.482 58.0688 321.601H53.2189C53.3372 322.076 53.4555 322.551 53.9286 322.907C54.2835 323.263 54.7567 323.382 55.2298 323.382C55.5847 323.382 55.9396 323.263 56.2944 323.145C56.6493 323.026 56.8859 322.669 57.0042 322.432H57.9505C57.7139 323.026 57.359 323.501 56.8859 323.857C56.4127 324.213 55.8213 324.332 55.2298 324.332C54.4018 324.332 53.692 324.095 53.2189 323.501C52.6274 322.907 52.3909 322.194 52.3909 321.363C52.3909 320.532 52.6274 319.819 53.2189 319.225C53.8103 318.631 54.5201 318.394 55.2298 318.394C56.0579 318.394 56.7676 318.631 57.359 319.225C57.8322 319.7 58.0688 320.413 58.0688 321.244ZM48.369 323.382C48.9604 323.382 49.4336 323.145 49.9068 322.788C50.2616 322.432 50.4982 321.838 50.4982 321.244C50.4982 320.65 50.2616 320.175 49.9068 319.7C49.5519 319.344 48.9604 319.107 48.369 319.107C47.7775 319.107 47.3044 319.344 46.8312 319.7C46.4763 320.057 46.2398 320.65 46.2398 321.244C46.2398 321.601 46.358 321.957 46.4763 322.313C46.7129 322.669 46.9495 322.907 47.1861 323.026C47.6592 323.263 48.0141 323.382 48.369 323.382ZM48.4873 318.275C49.3153 318.275 50.025 318.513 50.6165 319.107C51.2079 319.7 51.4445 320.413 51.4445 321.244C51.4445 322.076 51.2079 322.788 50.6165 323.382C50.025 323.976 49.3153 324.213 48.4873 324.213C47.6592 324.213 46.9495 323.976 46.358 323.382V326.232H45.4117V318.513H46.1215L46.358 319.344C46.5946 318.988 46.9495 318.75 47.3044 318.631C47.6592 318.394 48.0141 318.275 48.4873 318.275ZM43.4008 324.095L40.7984 320.65H39.8521V324.095H38.9058V316.731H39.8521V319.819H40.7984L43.1642 316.731H44.3471L41.6264 320.294L44.5837 324.095H43.4008Z" fill="#100E0A"/>
<path d="M231.246 364H239.053V341.791H235.622C233.256 341.791 230.772 342.86 229.235 344.641L224.858 350.342H224.74L217.879 341.91H208.416L210.663 347.967V364.119H218.47V351.292H218.589L224.858 359.131H224.976L231.246 351.292H231.364V364H231.246ZM198.361 347.848C198.479 347.848 198.597 348.085 198.597 348.085L197.888 352.48C197.888 352.598 197.769 352.836 197.651 352.836H192.683V347.848H198.361ZM197.06 364H206.405L203.211 358.299C203.092 358.062 202.028 357.112 201.318 356.755V356.518H203.092C204.275 356.518 205.103 355.924 205.222 355.093L206.878 343.81C206.878 342.503 206.05 341.791 205.103 341.791H182.51L184.757 347.967V364.119H192.565V357.349H194.221L197.06 364ZM168.433 347.373H170.444L172.1 355.805H166.777L168.433 347.373ZM165.121 364L165.831 360.675H169.971C170.918 360.675 172.1 360.199 172.337 359.368L172.692 358.299L173.875 364H181.8L177.305 341.791H158.734L160.981 347.967L157.669 364.119H165.121V364ZM154.475 351.767H146.077V347.848H153.884C155.067 347.848 156.368 346.541 156.723 345.235L157.551 341.791H136.022L138.269 347.967V364.119H146.077V355.686H146.195L146.668 357.112C146.786 357.587 147.259 357.943 147.733 357.943H151.281C152.346 357.943 153.411 356.636 153.765 355.449L154.475 351.767ZM110.826 347.373H112.837L114.493 355.805H109.052L110.826 347.373ZM107.514 364L108.224 360.675H112.364C113.31 360.675 114.493 360.199 114.73 359.368L115.085 358.299L116.267 364H124.193L119.698 341.791H101.126L103.374 347.967L100.062 364.119H107.514V364ZM78.8877 347.848V364H98.5239L96.9861 359.843C96.6312 358.656 95.5666 358.418 95.0935 358.418H86.5766V353.549H86.6949L87.2863 354.38C87.5229 354.617 87.8778 354.974 88.2326 354.974H92.6094C93.2008 354.974 94.0288 354.736 94.2654 354.024L95.6849 350.223H86.5766V347.135H95.2117C95.9215 347.135 96.5129 346.779 96.8678 346.066L98.5239 341.553H76.7585L78.8877 347.848ZM66.7038 347.848C66.8221 347.848 66.9404 348.085 66.9404 348.085L66.2306 352.48C66.2306 352.598 66.1123 352.836 65.9941 352.836H61.0259V347.848H66.7038ZM65.4026 364H74.7475L71.5537 358.299C71.4354 358.062 70.3708 357.112 69.6611 356.755V356.518H71.4354C72.6183 356.518 73.4463 355.924 73.5646 355.093L75.2207 343.81C75.2207 342.503 74.3927 341.791 73.4463 341.791H50.9712L53.2187 347.967V364.119H61.0259V357.349H62.6819L65.4026 364Z" fill="#100E0A"/>
<path fill-rule="evenodd" clip-rule="evenodd" d="M16.312 131.575C32.0446 145.946 44.9383 173.381 53.9283 194.759C63.2732 217.324 88.5874 229.676 119.461 225.163C100.771 204.616 82.0814 184.07 63.3915 163.404C85.1569 176.706 106.922 189.889 128.688 203.072C119.698 168.511 83.2643 132.525 16.312 131.575Z" fill="#6FA826"/>
<path d="M16.312 131.575C32.0446 145.946 44.9383 173.381 53.9283 194.759C63.2732 217.324 88.5874 229.676 119.461 225.163C100.771 204.616 82.0814 184.07 63.3915 163.404C85.1569 176.706 106.922 189.889 128.688 203.072C119.698 168.511 83.2643 132.525 16.312 131.575Z" stroke="white" stroke-width="2.1066" stroke-miterlimit="22.9256"/>
<path fill-rule="evenodd" clip-rule="evenodd" d="M137.323 191.789C141.108 155.091 179.198 124.568 225.213 118.036C215.276 133.951 206.878 156.16 202.028 175.519C198.834 188.583 189.252 195.59 180.381 201.647C165.476 211.861 156.486 202.835 144.775 223.381C137.086 240.602 138.388 254.617 141.818 267.918C138.151 270.294 134.484 272.669 130.817 275.044C125.612 248.084 129.398 233.239 137.441 221.956C155.421 197.49 173.402 173.143 191.382 148.677C173.402 162.929 155.303 177.3 137.323 191.789Z" fill="#8DBB1E"/>
<path d="M137.323 191.789C141.108 155.091 179.198 124.568 225.213 118.036C215.276 133.951 206.878 156.16 202.028 175.519C198.834 188.583 189.252 195.59 180.381 201.647C165.476 211.861 156.486 202.835 144.775 223.381C137.086 240.602 138.388 254.617 141.818 267.918C138.151 270.294 134.484 272.669 130.817 275.044C125.612 248.084 129.398 233.239 137.441 221.956C155.421 197.49 173.402 173.143 191.382 148.677C173.402 162.929 155.303 177.3 137.323 191.789Z" stroke="white" stroke-width="2.1066" stroke-miterlimit="22.9256"/>
<path fill-rule="evenodd" clip-rule="evenodd" d="M75.457 267.443L208.77 256.636L214.448 296.897H75.457V267.443Z" fill="#492483"/>
<path fill-rule="evenodd" clip-rule="evenodd" d="M106.686 275.519C106.686 275.282 106.804 275.163 107.041 275.163H110.116C110.353 275.163 110.471 275.282 110.471 275.519V280.626C110.471 280.864 110.353 280.983 110.116 280.983H107.041C106.804 280.983 106.686 280.745 106.686 280.626V275.519ZM102.191 273.5V282.645C102.191 283.714 103.019 284.546 104.084 284.546H113.074C114.138 284.546 114.966 283.714 114.966 282.645V273.5C114.966 272.431 114.138 271.6 113.074 271.6H104.084C103.019 271.6 102.191 272.55 102.191 273.5Z" fill="#EEEEEE"/>
<path fill-rule="evenodd" clip-rule="evenodd" d="M129.279 284.546H133.774V271.6H131.763C130.462 271.6 129.043 272.194 128.096 273.263L125.612 276.588H125.494L121.59 271.719H116.149L117.45 275.282V284.664H121.827V277.182H121.945L125.494 281.814H125.612L129.161 277.182H129.279V284.546Z" fill="#EEEEEE"/>
<path fill-rule="evenodd" clip-rule="evenodd" d="M136.495 275.163V284.546H147.851L147.023 282.17C146.786 281.458 146.195 281.339 145.958 281.339H141.108V279.439H141.227H141.582H142.173H144.657C145.012 279.439 145.485 279.32 145.604 278.845L146.432 276.707H141.227V274.926H146.195C146.668 274.926 146.905 274.688 147.141 274.332L148.088 271.719H135.549L136.495 275.163Z" fill="#EEEEEE"/>
<path fill-rule="evenodd" clip-rule="evenodd" d="M154.12 281.22V274.926H157.196C157.669 274.926 158.024 275.282 158.024 275.757V280.508C158.024 280.983 157.669 281.339 157.196 281.339H154.12V281.22ZM148.324 271.6L149.625 275.163V284.546H159.68C161.454 284.546 162.401 283.002 162.401 281.933V274.332C162.401 273.263 161.454 271.6 159.68 271.6H148.324Z" fill="#EEEEEE"/>
<path fill-rule="evenodd" clip-rule="evenodd" d="M163.82 271.6L165.122 275.163V284.546H169.498V271.6H163.82Z" fill="#EEEEEE"/>
<path fill-rule="evenodd" clip-rule="evenodd" d="M177.423 274.926H178.606L179.553 279.914H176.359L177.423 274.926ZM175.412 284.546L175.767 282.645H178.133C178.725 282.645 179.671 282.645 179.671 282.645H179.907H180.026L180.381 284.546H184.876L182.273 271.6H171.627L172.928 275.163L171.036 284.546H175.412Z" fill="#EEEEEE"/>
<path fill-rule="evenodd" clip-rule="evenodd" d="M185.23 266.968L186.413 270.294V279.201C186.413 279.201 188.069 279.201 189.134 279.201C190.199 279.201 190.554 279.201 190.554 279.201V266.968H185.23ZM186.532 280.389V284.546H190.672V280.389H186.532Z" fill="#EEEEEE"/>
<path fill-rule="evenodd" clip-rule="evenodd" d="M102.309 287.158C102.427 287.515 102.546 287.752 102.782 287.871V291.196H103.729V288.94H103.847C103.847 289.059 104.083 289.415 104.202 289.415H106.213V291.196H107.159V287.158H106.213V288.821H103.729V287.158H102.309Z" fill="#EEEEEE"/>
<path fill-rule="evenodd" clip-rule="evenodd" d="M109.407 290.721C109.17 290.721 109.052 290.603 109.052 290.484V289.653C109.052 289.534 109.17 289.415 109.407 289.415H111.536V290.721H109.407ZM108.46 287.515C108.46 287.634 108.697 287.752 108.815 287.752H111.063C111.417 287.752 111.536 287.99 111.536 288.227V288.702H109.17C108.697 288.702 108.224 288.94 108.224 289.415V290.484C108.224 290.959 108.697 291.196 109.17 291.196H111.063C111.299 291.196 111.536 290.959 111.654 290.721H111.772V291.196H112.719V287.99C112.719 287.515 112.246 287.158 111.772 287.158H108.579L108.46 287.515Z" fill="#EEEEEE"/>
<path fill-rule="evenodd" clip-rule="evenodd" d="M116.977 288.94C117.096 288.94 117.332 288.821 117.332 288.584V287.158H114.73C114.138 287.158 113.547 287.396 113.547 287.99V290.128C113.547 290.721 113.902 291.196 114.611 291.196H116.977C117.214 291.196 117.332 290.721 117.45 290.484H114.966C114.73 290.484 114.493 290.246 114.493 290.009V288.227C114.493 287.99 114.73 287.752 114.966 287.752H116.622V288.94H116.977Z" fill="#EEEEEE"/>
<path fill-rule="evenodd" clip-rule="evenodd" d="M117.923 287.158C118.042 287.396 118.16 287.871 118.278 287.871H119.579V291.196H120.526V287.871H122.182V287.158H117.923Z" fill="#EEEEEE"/>
<path fill-rule="evenodd" clip-rule="evenodd" d="M123.956 288.227C123.956 287.99 124.074 287.871 124.311 287.871H125.967C126.204 287.871 126.322 288.109 126.322 288.227V290.246C126.322 290.484 126.204 290.603 125.967 290.603H124.311C124.074 290.603 123.956 290.365 123.956 290.246V288.227ZM123.01 287.99V290.365C123.01 290.84 123.365 291.196 123.838 291.196H126.44C126.913 291.196 127.268 290.84 127.268 290.365V287.99C127.268 287.515 126.913 287.158 126.44 287.158H123.838C123.365 287.158 123.01 287.515 123.01 287.99Z" fill="#EEEEEE"/>
<path fill-rule="evenodd" clip-rule="evenodd" d="M129.161 287.99C129.161 287.871 129.161 287.752 129.28 287.752H131.409V289.296H129.516C129.398 289.296 129.28 289.296 129.28 289.177L129.161 287.99ZM132.355 287.158H128.57C128.333 287.158 128.215 287.396 128.215 287.752L128.452 289.415C128.452 289.653 128.688 290.009 128.925 290.009H129.516C129.398 290.009 129.28 290.128 129.161 290.246L128.097 291.434H128.806C129.043 291.434 129.28 291.315 129.398 291.196L130.462 290.009H131.054C131.291 290.009 131.409 289.771 131.409 289.534V291.315H132.355V287.158Z" fill="#EEEEEE"/>
<path fill-rule="evenodd" clip-rule="evenodd" d="M139.571 292.622C139.807 292.622 140.399 292.384 140.399 292.147V290.484H139.807V287.158H138.861V290.484H137.086V287.158H136.14V290.484H134.366V287.158H132.946C133.065 287.396 133.183 287.871 133.419 287.871V291.196H139.571V292.622Z" fill="#EEEEEE"/>
<path fill-rule="evenodd" clip-rule="evenodd" d="M145.13 287.159C144.894 287.159 144.302 287.634 144.066 287.871L142.055 289.89V287.04H140.635C140.754 287.396 140.872 287.634 141.108 287.752V291.078H141.345C141.7 291.078 142.173 290.603 142.528 290.365L144.539 288.346V291.197H145.485V287.159H145.13Z" fill="#EEEEEE"/>
<path fill-rule="evenodd" clip-rule="evenodd" d="M147.496 288.94V288.109C147.496 287.871 147.733 287.634 147.969 287.634H149.625C149.862 287.634 150.099 287.871 150.099 288.109V288.94H147.496ZM147.496 291.196H150.335C150.572 291.196 150.69 290.84 150.808 290.603H147.969C147.733 290.603 147.496 290.365 147.496 290.128V289.059C147.496 289.177 147.614 289.534 147.851 289.534H150.808V288.109C150.808 287.515 150.453 287.158 149.744 287.158H147.614C147.023 287.158 146.55 287.515 146.55 288.109V290.128C146.55 290.721 146.905 291.196 147.496 291.196Z" fill="#EEEEEE"/>
<path d="M94.3839 278.845L92.2546 282.289V284.546H91.5449V282.289L89.4157 278.845H90.2437L91.8998 281.576L93.5558 278.845H94.3839ZM87.2865 283.833C87.523 283.833 87.7596 283.714 87.9962 283.595C88.2328 283.358 88.2328 283.239 88.2328 282.883C88.2328 282.645 88.1145 282.408 87.9962 282.17C87.7596 281.933 87.523 281.933 87.2865 281.933H85.7487V283.833H87.2865ZM88.1145 280.389C88.1145 280.27 88.1145 280.033 87.9962 279.914C87.8779 279.795 87.7596 279.676 87.6413 279.557C87.523 279.439 87.4047 279.439 87.1682 279.439H85.6304V281.22H87.1682C87.4047 281.22 87.6413 281.101 87.7596 280.983C88.1145 280.864 88.1145 280.626 88.1145 280.389ZM88.2328 281.576C88.4694 281.695 88.7059 281.933 88.8242 282.17C88.9425 282.408 89.0608 282.645 89.0608 283.002C89.0608 283.477 88.9425 283.833 88.5876 284.189C88.2328 284.546 87.8779 284.664 87.4047 284.664H85.1572V278.964H87.4047C87.8779 278.964 88.2328 279.082 88.5876 279.439C88.9425 279.676 89.0608 280.033 89.0608 280.508C89.0608 280.745 88.9425 280.983 88.8242 281.22C88.5876 281.22 88.3511 281.458 88.2328 281.576Z" fill="white"/>
</g>
<defs>
<linearGradient id="paint0_linear_54_4113" x1="73.0783" y1="251.632" x2="210.231" y2="120.114" gradientUnits="userSpaceOnUse">
<stop stop-color="#3C2583"/>
<stop offset="1" stop-color="#632584"/>
</linearGradient>
<clipPath id="clip0_54_4113">
<rect width="238" height="281" fill="white" transform="translate(13 83)"/>
</clipPath>
</defs>
</svg>
