<svg width="290" height="405" viewBox="0 0 290 405" fill="none" xmlns="http://www.w3.org/2000/svg">
<mask id="mask0_54_4350" style="mask-type:luminance" maskUnits="userSpaceOnUse" x="45" y="82" width="200" height="200">
<path d="M45.4434 181.874C45.4434 236.973 89.9997 281.749 145.126 281.749C200.119 281.749 244.81 237.107 244.81 181.874C244.81 126.776 200.253 82 145.126 82C89.9997 82 45.4434 126.642 45.4434 181.874Z" fill="white"/>
</mask>
<g mask="url(#mask0_54_4350)">
<path d="M244.676 82H45.4434V281.615H244.676V82Z" fill="url(#paint0_linear_54_4350)"/>
</g>
<path d="M165.598 147.421V232.951H178.577L179.38 185.494C175.633 184.422 168.408 179.059 170.014 165.385C171.485 152.649 178.042 148.359 181.788 147.555C182.324 147.421 182.725 147.421 183.26 147.555C186.605 148.494 192.493 153.052 193.429 165.251C194.5 178.255 187.542 184.153 184.063 185.36L184.866 231.879L198.647 230.538V127.982L165.598 147.421Z" stroke="white" stroke-width="1.4173" stroke-miterlimit="22.9256"/>
<mask id="mask1_54_4350" style="mask-type:luminance" maskUnits="userSpaceOnUse" x="165" y="127" width="34" height="106">
<path d="M165.598 147.421V232.951H178.577L179.38 185.494C175.633 184.422 168.408 179.059 170.014 165.385C171.485 152.649 178.042 148.359 181.788 147.555C182.324 147.421 182.725 147.421 183.26 147.555C186.605 148.494 192.493 153.052 193.429 165.251C194.5 178.255 187.542 184.153 184.063 185.36L184.866 231.879L198.647 230.538V127.982L165.598 147.421Z" fill="white"/>
</mask>
<g mask="url(#mask1_54_4350)">
<path d="M198.38 127.982H165.598V232.951H198.38V127.982Z" fill="url(#paint1_linear_54_4350)"/>
</g>
<path d="M159.711 233.219V127.982L126.662 147.689V231.879L141.915 233.219L142.45 194.878C140.042 194.61 135.493 190.722 135.894 177.316C136.295 164.581 141.112 153.454 143.788 148.896C144.056 148.494 144.457 147.957 144.993 147.823C145.929 147.421 147.133 147.421 147.267 149.566C147.535 152.247 147.401 206.541 147.267 233.353H159.711V233.219Z" stroke="white" stroke-width="1.4173" stroke-miterlimit="22.9256"/>
<mask id="mask2_54_4350" style="mask-type:luminance" maskUnits="userSpaceOnUse" x="126" y="127" width="34" height="107">
<path d="M159.711 233.219V127.982L126.662 147.689V231.879L141.915 233.219L142.45 194.878C140.042 194.61 135.493 190.722 135.894 177.316C136.295 164.581 141.112 153.454 143.788 148.896C144.056 148.494 144.457 147.957 144.993 147.823C145.929 147.421 147.133 147.421 147.267 149.566C147.535 152.247 147.401 206.541 147.267 233.353H159.711V233.219Z" fill="white"/>
</mask>
<g mask="url(#mask2_54_4350)">
<path d="M159.711 127.982H126.662V233.085H159.711V127.982Z" fill="url(#paint2_linear_54_4350)"/>
</g>
<path d="M121.845 231.611V127.982L88.5278 147.689V227.321L102.31 229.6L102.845 184.958C100.971 183.885 97.7602 180.802 97.225 177.316C96.8236 173.831 99.3659 146.349 99.4997 147.421C99.2321 155.062 99.0983 170.479 100.704 170.479C102.31 170.479 102.979 146.751 102.979 147.555C103.112 155.062 103.648 170.479 105.119 170.479C106.591 170.479 106.859 146.349 106.859 147.555C107.126 155.062 107.929 170.479 109.133 170.479C110.338 170.479 110.338 146.885 110.471 147.555C111.542 155.867 113.415 173.295 112.746 177.45C112.077 181.472 109 184.287 107.394 185.092L107.929 230.27C113.281 230.806 116.359 231.074 121.845 231.611Z" stroke="white" stroke-width="1.4173" stroke-miterlimit="22.9256"/>
<mask id="mask3_54_4350" style="mask-type:luminance" maskUnits="userSpaceOnUse" x="88" y="127" width="34" height="105">
<path d="M121.845 231.611V127.982L88.5278 147.689V227.321L102.31 229.6L102.845 184.958C100.971 183.885 97.7602 180.802 97.225 177.316C96.8236 173.831 99.3659 146.349 99.4997 147.421C99.2321 155.062 99.0983 170.479 100.704 170.479C102.31 170.479 102.979 146.751 102.979 147.555C103.112 155.062 103.648 170.479 105.119 170.479C106.591 170.479 106.859 146.349 106.859 147.555C107.126 155.062 107.929 170.479 109.133 170.479C110.338 170.479 110.338 146.885 110.471 147.555C111.542 155.867 113.415 173.295 112.746 177.45C112.077 181.472 109 184.287 107.394 185.092L107.929 230.27C113.281 230.806 116.359 231.074 121.845 231.611Z" fill="white"/>
</mask>
<g mask="url(#mask3_54_4350)">
<path d="M121.845 127.982H88.5278V231.611H121.845V127.982Z" fill="url(#paint3_linear_54_4350)"/>
</g>
<path d="M279.465 206.81C168.944 251.183 53.4718 223.165 14 202.922C50.1268 233.085 174.831 266.868 279.465 206.81Z" stroke="white" stroke-width="1.4173" stroke-miterlimit="22.9256"/>
<mask id="mask4_54_4350" style="mask-type:luminance" maskUnits="userSpaceOnUse" x="14" y="202" width="266" height="39">
<path d="M279.465 206.81C168.944 251.183 53.4718 223.165 14 202.922C50.1268 233.085 174.831 266.868 279.465 206.81Z" fill="white"/>
</mask>
<g mask="url(#mask4_54_4350)">
<path d="M279.331 203.056H13.8662V266.868H279.331V203.056Z" fill="url(#paint4_linear_54_4350)"/>
</g>
<path fill-rule="evenodd" clip-rule="evenodd" d="M76.4858 267.807L211.091 256.948L216.711 297.434H76.4858V267.807Z" fill="#492483"/>
<path fill-rule="evenodd" clip-rule="evenodd" d="M107.929 275.985C107.929 275.716 108.063 275.582 108.331 275.582H111.408C111.676 275.582 111.809 275.716 111.809 275.985V281.079C111.809 281.347 111.676 281.481 111.408 281.481H108.331C108.063 281.481 107.929 281.347 107.929 281.079V275.985ZM103.514 273.974V283.09C103.514 284.162 104.316 284.967 105.387 284.967H114.352C115.422 284.967 116.225 284.028 116.225 283.09V273.974C116.225 272.901 115.422 272.097 114.352 272.097H105.387C104.316 271.963 103.514 272.901 103.514 273.974Z" fill="#EEEEEE"/>
<path fill-rule="evenodd" clip-rule="evenodd" d="M130.809 284.966H135.225V271.962H133.218C131.88 271.962 130.408 272.633 129.471 273.571L126.929 276.923H126.795L122.781 271.962H117.295L118.633 275.582V285.1H123.183V277.593H123.317L126.929 282.151H127.063L130.676 277.593H130.809V284.966Z" fill="#EEEEEE"/>
<path fill-rule="evenodd" clip-rule="evenodd" d="M138.035 275.582V284.966H149.408L148.605 282.553C148.338 281.883 147.802 281.749 147.535 281.749H142.584V279.738H142.718H142.986H143.521H146.063C146.464 279.738 146.866 279.604 147 279.202L147.802 277.057H142.45V275.314H147.535C147.936 275.314 148.338 275.046 148.471 274.778L149.408 272.097H136.697L138.035 275.582Z" fill="#EEEEEE"/>
<path fill-rule="evenodd" clip-rule="evenodd" d="M155.831 281.749V275.314H158.908C159.31 275.314 159.711 275.716 159.711 276.118V280.944C159.711 281.347 159.31 281.749 158.908 281.749H155.831ZM150.077 271.962L151.415 275.582V284.966H161.584C163.457 284.966 164.26 283.357 164.26 282.419V274.778C164.26 273.705 163.324 271.962 161.584 271.962H150.077Z" fill="#EEEEEE"/>
<path fill-rule="evenodd" clip-rule="evenodd" d="M165.598 271.962L166.936 275.582V284.966H171.352V271.962H165.598Z" fill="#EEEEEE"/>
<path fill-rule="evenodd" clip-rule="evenodd" d="M179.38 275.314H180.584L181.521 280.274H178.31L179.38 275.314ZM177.373 284.966L177.774 283.089H180.183C180.718 283.089 181.788 283.089 181.788 283.089H182.056H182.19L182.591 284.966H187.141L184.598 271.962H173.76L175.098 275.582L173.225 284.966H177.373Z" fill="#EEEEEE"/>
<path fill-rule="evenodd" clip-rule="evenodd" d="M187.274 267.271L188.479 270.622V279.604C188.479 279.604 190.218 279.604 191.288 279.604C192.359 279.604 192.627 279.604 192.627 279.604V267.271H187.274ZM188.479 280.811V285.1H192.627V280.811H188.479Z" fill="#EEEEEE"/>
<path fill-rule="evenodd" clip-rule="evenodd" d="M103.647 287.647C103.781 287.916 103.781 288.184 104.183 288.318V291.669H105.119V289.39H105.253C105.253 289.524 105.521 289.926 105.655 289.926H107.662V291.669H108.464V287.647H107.528V289.39H105.119V287.647H103.647Z" fill="#EEEEEE"/>
<path fill-rule="evenodd" clip-rule="evenodd" d="M110.739 291.133C110.606 291.133 110.472 290.999 110.472 290.865V290.061C110.472 289.927 110.606 289.793 110.739 289.793H112.88V291.133H110.739ZM109.669 288.05C109.669 288.184 109.803 288.318 110.07 288.318H112.345C112.746 288.318 112.88 288.586 112.88 288.854V289.256H110.472C109.937 289.256 109.535 289.525 109.535 289.927V290.999C109.535 291.535 110.07 291.67 110.472 291.67H112.345C112.613 291.67 112.746 291.401 112.88 291.267V291.67H113.817V288.452C113.817 287.916 113.415 287.514 112.88 287.514H109.669V288.05Z" fill="#EEEEEE"/>
<path fill-rule="evenodd" clip-rule="evenodd" d="M118.366 289.39C118.5 289.39 118.767 289.256 118.767 288.988V287.514H116.091C115.556 287.514 114.887 287.782 114.887 288.452V290.597C114.887 291.267 115.289 291.67 115.958 291.67H118.232C118.5 291.67 118.634 291.267 118.767 290.999H116.225C115.958 290.999 115.824 290.731 115.824 290.597V288.854C115.824 288.586 116.091 288.452 116.225 288.452H117.831V289.659L118.366 289.39Z" fill="#EEEEEE"/>
<path fill-rule="evenodd" clip-rule="evenodd" d="M119.303 287.647C119.437 287.916 119.57 288.318 119.704 288.318H121.042V291.669H121.979V288.318H123.584V287.647H119.303Z" fill="#EEEEEE"/>
<path fill-rule="evenodd" clip-rule="evenodd" d="M125.324 288.72C125.324 288.452 125.458 288.318 125.725 288.318H127.465C127.732 288.318 127.866 288.452 127.866 288.72V290.731C127.866 290.999 127.732 291.133 127.465 291.133H125.725C125.458 291.133 125.324 290.999 125.324 290.731V288.72ZM124.387 288.452V290.865C124.387 291.267 124.789 291.669 125.324 291.669H127.866C128.401 291.669 128.803 291.267 128.803 290.865V288.452C128.803 288.05 128.401 287.647 127.866 287.647H125.324C124.789 287.647 124.387 288.05 124.387 288.452Z" fill="#EEEEEE"/>
<path fill-rule="evenodd" clip-rule="evenodd" d="M130.676 288.452C130.676 288.318 130.676 288.184 130.81 288.184H132.951V289.792H130.944C130.81 289.792 130.676 289.792 130.676 289.658V288.452ZM133.887 287.647H130.007C129.739 287.647 129.605 287.916 129.605 288.184L129.873 289.792C129.873 290.061 130.141 290.329 130.408 290.329H130.944C130.81 290.329 130.676 290.463 130.542 290.597L129.472 291.803H130.275C130.542 291.803 130.676 291.669 130.81 291.535L131.88 290.329H132.415C132.683 290.329 132.817 290.061 132.817 289.926V291.669H133.887V287.647Z" fill="#EEEEEE"/>
<path fill-rule="evenodd" clip-rule="evenodd" d="M141.112 293.144C141.38 293.144 142.049 293.01 142.049 292.608V290.999H141.38V287.647H140.443V290.999H138.704V287.647H137.767V290.999H136.028V287.647H134.556C134.69 287.916 134.69 288.318 135.091 288.318V291.669H141.246V293.144H141.112Z" fill="#EEEEEE"/>
<path fill-rule="evenodd" clip-rule="evenodd" d="M146.866 287.647C146.598 287.647 146.063 288.184 145.795 288.452L143.654 290.597V287.782H142.183C142.316 288.05 142.316 288.318 142.718 288.452V291.803H142.985C143.387 291.803 143.788 291.401 144.19 290.999L146.331 288.854V291.669H147.267V287.647H146.866Z" fill="#EEEEEE"/>
<path fill-rule="evenodd" clip-rule="evenodd" d="M149.141 289.524V288.72C149.141 288.452 149.408 288.318 149.542 288.318H151.148C151.415 288.318 151.549 288.452 151.549 288.72V289.524H149.141ZM149.141 291.669H151.951C152.218 291.669 152.352 291.267 152.486 290.999H149.542C149.275 290.999 149.141 290.865 149.141 290.597V289.524C149.141 289.658 149.275 289.927 149.542 289.927H152.486V288.452C152.486 287.916 152.084 287.379 151.415 287.379H149.275C148.606 287.379 148.204 287.782 148.204 288.452V290.463C148.204 291.267 148.606 291.669 149.141 291.669Z" fill="#EEEEEE"/>
<path d="M95.6196 279.202L93.4788 282.687V284.966H92.6759V282.687L90.5351 279.202H91.3379L93.0774 282.017L94.8168 279.202H95.6196ZM88.3943 284.296C88.6619 284.296 88.9295 284.162 89.0633 284.028C89.1971 283.894 89.3309 283.626 89.3309 283.358C89.3309 283.09 89.1971 282.822 89.0633 282.687C88.9295 282.553 88.6619 282.419 88.3943 282.419H86.7886V284.296H88.3943ZM89.3309 280.811C89.3309 280.677 89.3309 280.543 89.1971 280.408C89.0633 280.274 89.0633 280.14 88.9295 280.14C88.7957 280.006 88.6619 280.006 88.5281 280.006H86.9224V281.749H88.3943C88.6619 281.749 88.7957 281.615 89.0633 281.481C89.1971 281.213 89.3309 281.079 89.3309 280.811ZM89.3309 282.017C89.5985 282.151 89.8661 282.285 89.9999 282.553C90.1337 282.822 90.2675 283.09 90.2675 283.358C90.2675 283.76 90.1337 284.162 89.7323 284.43C89.3309 284.698 88.9295 284.832 88.5281 284.832H86.2534V279.068H88.3943C88.9295 279.068 89.1971 279.202 89.5985 279.47C89.8661 279.738 89.9999 280.14 89.9999 280.543C89.9999 280.811 89.9999 281.079 89.8661 281.347C89.7323 281.749 89.4647 281.883 89.3309 282.017Z" fill="white"/>
<path d="M183.528 317.409H184.464V324.916H183.662L179.38 319.152V324.916H178.443V317.409H179.246L183.394 323.174V317.409H183.528ZM173.493 323.978H176.838V324.916H172.556V317.409H176.838V318.347H173.493V320.626H176.57V321.431H173.493V323.978ZM169.612 317.409H170.549V324.916H169.612V321.565H165.732V324.916H164.795V317.409H165.732V320.626H169.612V317.409ZM159.845 325.05C158.774 325.05 157.838 324.648 157.169 323.978C156.5 323.308 156.098 322.369 156.098 321.163C156.098 320.09 156.5 319.152 157.169 318.347C157.838 317.677 158.774 317.275 159.845 317.275C160.38 317.275 160.915 317.409 161.45 317.543C161.985 317.811 162.387 318.079 162.655 318.481C163.056 318.884 163.19 319.286 163.324 319.822H162.387C162.253 319.286 161.852 318.884 161.45 318.615C161.049 318.347 160.514 318.213 159.845 318.213C159.042 318.213 158.373 318.481 157.838 319.018C157.302 319.554 157.035 320.224 157.035 321.163C157.035 321.967 157.302 322.771 157.838 323.308C158.373 323.844 159.042 324.112 159.845 324.112C160.514 324.112 161.049 323.978 161.45 323.576C161.852 323.308 162.253 322.771 162.387 322.235H163.324C163.056 323.039 162.655 323.71 161.986 324.246C161.45 324.782 160.781 325.05 159.845 325.05ZM155.697 317.409V318.347H153.422V324.916H152.486V318.347H150.211V317.409H155.697ZM148.07 324.916V317.409H149.007V324.916H148.07ZM145.795 324.916L143.119 321.431H142.183V324.916H141.246V317.409H142.183V320.626H143.119L145.528 317.409H146.732L144.056 321.029L147 324.916H145.795ZM133.753 324.246C134.422 324.246 134.824 324.112 135.359 323.71C134.556 322.771 133.887 322.101 133.485 321.565C133.084 321.833 132.816 321.967 132.683 322.235C132.549 322.503 132.415 322.771 132.415 323.039C132.415 323.442 132.549 323.71 132.816 323.844C133.084 324.112 133.352 324.246 133.753 324.246ZM134.021 318.079C133.753 318.079 133.486 318.213 133.218 318.347C133.084 318.481 132.95 318.75 132.95 319.018C132.95 319.42 133.218 319.822 133.619 320.492C134.021 320.224 134.422 319.956 134.69 319.688C134.957 319.42 135.091 319.152 135.091 318.884C135.091 318.615 134.957 318.481 134.824 318.213C134.556 318.079 134.288 318.079 134.021 318.079ZM137.633 324.916H136.563C136.295 324.648 136.162 324.514 135.894 324.246C135.359 324.782 134.556 325.05 133.753 325.05C133.084 325.05 132.549 324.916 132.147 324.514C131.746 324.112 131.478 323.71 131.478 323.039C131.478 322.905 131.478 322.637 131.478 322.503C131.478 322.369 131.612 322.235 131.612 322.101C131.746 321.967 131.746 321.833 131.88 321.699C132.014 321.565 132.014 321.431 132.147 321.431C132.281 321.297 132.415 321.297 132.549 321.163C132.683 321.029 132.816 321.029 132.95 320.895C132.683 320.492 132.415 320.09 132.281 319.822C132.147 319.554 132.147 319.286 132.147 319.018C132.147 318.481 132.281 318.079 132.683 317.811C133.084 317.543 133.486 317.409 134.021 317.409C134.556 317.409 134.957 317.543 135.359 317.811C135.76 318.079 135.894 318.481 135.894 318.884C135.894 319.152 135.894 319.286 135.76 319.42C135.626 319.554 135.626 319.822 135.493 319.956C135.359 320.09 135.225 320.224 135.091 320.358C134.957 320.492 134.824 320.626 134.69 320.76C134.556 320.895 134.422 320.895 134.155 321.029C134.556 321.565 135.091 322.235 135.894 323.039C136.162 322.637 136.295 322.101 136.295 321.565H137.098C137.098 322.369 136.964 323.039 136.563 323.71C136.831 323.978 137.232 324.38 137.633 324.916ZM123.316 318.347V321.163H125.19C125.591 321.163 125.993 321.029 126.26 320.76C126.528 320.492 126.662 320.224 126.662 319.822C126.662 319.42 126.528 319.018 126.26 318.884C125.993 318.615 125.591 318.481 125.19 318.481H123.316V318.347ZM126.662 324.916L124.922 321.967H123.183V324.916H122.246V317.409H125.056C125.725 317.409 126.394 317.677 126.795 318.079C127.197 318.481 127.464 319.018 127.464 319.688C127.464 320.224 127.331 320.626 127.063 321.029C126.795 321.431 126.394 321.699 125.859 321.833L127.598 324.916H126.662ZM117.563 318.75L116.091 322.235H118.901L117.563 318.75ZM120.105 324.916L119.302 323.174H115.69L115.021 324.916H114.084L117.162 317.409H118.098L121.176 324.916H120.105ZM111.14 323.978C111.542 323.978 111.809 323.844 112.077 323.576C112.345 323.308 112.478 323.039 112.478 322.637C112.478 322.235 112.345 321.967 112.077 321.699C111.809 321.431 111.542 321.297 111.14 321.297H109.133V323.71H111.14V323.978ZM112.345 319.42C112.345 319.152 112.345 319.018 112.211 318.884C112.077 318.75 111.943 318.615 111.809 318.481C111.676 318.347 111.408 318.347 111.274 318.347H109.267V320.626H111.14C111.408 320.626 111.676 320.492 111.943 320.358C112.211 320.09 112.345 319.822 112.345 319.42ZM112.345 321.029C112.746 321.163 113.014 321.431 113.147 321.699C113.281 321.967 113.415 322.369 113.415 322.771C113.415 323.308 113.147 323.844 112.746 324.246C112.345 324.648 111.809 324.782 111.14 324.782H108.197V317.275H111.14C111.809 317.275 112.211 317.409 112.612 317.811C113.014 318.213 113.147 318.615 113.147 319.152C113.147 319.42 113.014 319.822 112.88 320.09C112.88 320.626 112.612 320.895 112.345 321.029Z" fill="#100E0A"/>
<path d="M246.549 348.377H248.69L250.429 356.956H244.943L246.549 348.377ZM243.07 365L243.739 361.649H248.021C248.958 361.649 250.162 361.112 250.429 360.308L250.831 359.235L252.035 364.866H260.063L255.514 342.478H236.781L239.056 348.645L235.711 364.866H243.07V365ZM224.873 350.79H218.183V342.612H208.148L210.422 348.779V365H218.183V353.605H218.317L218.45 354.677C218.584 355.884 218.986 356.822 220.19 356.822H224.739V365H232.5V342.612H224.873V350.79ZM195.436 358.833C195.035 358.833 194.634 358.431 194.634 358.029V348.779C194.634 348.377 194.901 347.974 195.436 347.974H198.915V352.935L205.204 350.924C206.007 350.522 206.676 349.449 206.676 348.645V342.612H190.084C188.345 342.612 186.873 344.087 186.873 345.83V361.917C186.873 363.659 188.345 365.134 190.084 365.134H202.796C204 365.134 205.204 364.062 205.605 362.855L206.81 358.967H195.436V358.833ZM162.387 346.768C163.056 348.913 164.528 349.315 166 349.449H169.211V365H176.972V349.449H183.528V342.612H160.915L162.387 346.768ZM148.338 342.612L150.612 348.779V365H158.373V342.612H148.338ZM139.105 342.612C136.965 342.612 135.493 344.221 134.69 345.561L131.211 352.667H130.943V342.612H120.908L123.183 348.779V365H130.943V354.677H131.211L131.345 355.214C131.479 355.884 131.88 356.554 132.683 356.554H135.359C135.76 356.554 136.162 356.956 136.296 357.359L138.57 365H147.267L143.789 354.812C143.12 353.069 141.514 351.728 139.373 351.728H138.035L139.373 349.449C139.507 349.047 139.908 348.913 140.443 348.913H144.19L146.465 342.746H139.105V342.612ZM88.7956 348.779V365H108.598L107.127 360.844C106.725 359.638 105.789 359.37 105.12 359.37H96.5561V354.543H96.6899L97.3589 355.348C97.6266 355.616 98.028 356.018 98.2956 356.018H102.711C103.38 356.018 104.183 355.75 104.451 355.08L105.789 351.326H96.5561V348.243H105.253C105.922 348.243 106.591 347.84 106.859 347.17L108.465 342.612H86.5209L88.7956 348.779ZM76.0843 350.79H69.3942V342.612H59.3589L61.6336 348.779V365H69.3942V353.605H69.6618L69.7956 354.677C69.9294 355.884 70.3308 356.822 71.535 356.822H76.0843V365H83.8449V342.612H76.0843V350.79ZM36.3449 346.768C37.0139 348.913 38.4857 349.315 39.9575 349.449H43.1688V365H50.9294V349.449H57.6195V342.612H35.0068L36.3449 346.768Z" fill="#100E0A"/>
<defs>
<linearGradient id="paint0_linear_54_4350" x1="208.252" y1="109.961" x2="52.8394" y2="286.115" gradientUnits="userSpaceOnUse">
<stop stop-color="#422583"/>
<stop offset="0.11" stop-color="#422583"/>
<stop offset="0.3276" stop-color="#512584"/>
<stop offset="0.5926" stop-color="#5D2584"/>
<stop offset="0.81" stop-color="#612584"/>
<stop offset="1" stop-color="#612584"/>
</linearGradient>
<linearGradient id="paint1_linear_54_4350" x1="181.979" y1="296.586" x2="181.979" y2="130.901" gradientUnits="userSpaceOnUse">
<stop stop-color="#5D2583"/>
<stop offset="0.0464194" stop-color="#542383"/>
<stop offset="0.1" stop-color="#522383"/>
<stop offset="0.1647" stop-color="#5E2885"/>
<stop offset="0.2909" stop-color="#7E388D"/>
<stop offset="0.39" stop-color="#9A4A96"/>
<stop offset="0.58" stop-color="#EB5599"/>
<stop offset="0.6554" stop-color="#EE76A5"/>
<stop offset="0.7437" stop-color="#F192AF"/>
<stop offset="0.8315" stop-color="#F3A4B4"/>
<stop offset="0.9176" stop-color="#F5AEB6"/>
<stop offset="1" stop-color="#F5B1B7"/>
</linearGradient>
<linearGradient id="paint2_linear_54_4350" x1="143.207" y1="310.568" x2="143.207" y2="126.946" gradientUnits="userSpaceOnUse">
<stop stop-color="#5D2583"/>
<stop offset="0.0464194" stop-color="#542383"/>
<stop offset="0.1" stop-color="#522383"/>
<stop offset="0.1647" stop-color="#5E2885"/>
<stop offset="0.2909" stop-color="#7E388D"/>
<stop offset="0.39" stop-color="#9A4A96"/>
<stop offset="0.58" stop-color="#EB5599"/>
<stop offset="0.6554" stop-color="#EE76A5"/>
<stop offset="0.7437" stop-color="#F192AF"/>
<stop offset="0.8315" stop-color="#F3A4B4"/>
<stop offset="0.9176" stop-color="#F5AEB6"/>
<stop offset="1" stop-color="#F5B1B7"/>
</linearGradient>
<linearGradient id="paint3_linear_54_4350" x1="105.199" y1="351.483" x2="105.199" y2="104.894" gradientUnits="userSpaceOnUse">
<stop stop-color="#5D2583"/>
<stop offset="0.0464194" stop-color="#542383"/>
<stop offset="0.1" stop-color="#522383"/>
<stop offset="0.1647" stop-color="#5E2885"/>
<stop offset="0.2909" stop-color="#7E388D"/>
<stop offset="0.39" stop-color="#9A4A96"/>
<stop offset="0.58" stop-color="#EB5599"/>
<stop offset="0.6554" stop-color="#EE76A5"/>
<stop offset="0.7437" stop-color="#F192AF"/>
<stop offset="0.8315" stop-color="#F3A4B4"/>
<stop offset="0.9176" stop-color="#F5AEB6"/>
<stop offset="1" stop-color="#F5B1B7"/>
</linearGradient>
<linearGradient id="paint4_linear_54_4350" x1="-70.3922" y1="234.919" x2="278.726" y2="234.919" gradientUnits="userSpaceOnUse">
<stop stop-color="#5D2583"/>
<stop offset="0.0464194" stop-color="#542383"/>
<stop offset="0.1" stop-color="#522383"/>
<stop offset="0.1647" stop-color="#5E2885"/>
<stop offset="0.2909" stop-color="#7E388D"/>
<stop offset="0.39" stop-color="#9A4A96"/>
<stop offset="0.58" stop-color="#EB5599"/>
<stop offset="0.6554" stop-color="#EE76A5"/>
<stop offset="0.7437" stop-color="#F192AF"/>
<stop offset="0.8315" stop-color="#F3A4B4"/>
<stop offset="0.9176" stop-color="#F5AEB6"/>
<stop offset="1" stop-color="#F5B1B7"/>
</linearGradient>
</defs>
</svg>
