<svg width="290" height="405" viewBox="0 0 290 405" fill="none" xmlns="http://www.w3.org/2000/svg">
<g clip-path="url(#clip0_54_4405)">
<mask id="mask0_54_4405" style="mask-type:luminance" maskUnits="userSpaceOnUse" x="46" y="84" width="199" height="199">
<path d="M46.0806 183.629C46.0806 238.528 90.5362 282.984 145.435 282.984C200.335 282.984 244.79 238.528 244.79 183.629C244.79 128.73 200.335 84.2742 145.435 84.2742C90.5362 84.2742 46.0806 128.73 46.0806 183.629Z" fill="white"/>
</mask>
<g mask="url(#mask0_54_4405)">
<path d="M244.931 84.1331H46.0806V282.984H244.931V84.1331Z" fill="url(#paint0_linear_54_4405)"/>
</g>
<mask id="mask1_54_4405" style="mask-type:luminance" maskUnits="userSpaceOnUse" x="77" y="64" width="36" height="32">
<path d="M78.2581 78.629C78.5404 81.1694 79.246 83.4274 79.6694 85.121C80.2339 87.2379 80.3751 91.6129 80.2339 92.3186C80.0928 92.8831 80.7984 94.7178 81.2218 95.5645L84.8912 92.8831C84.8912 92.8831 93.0767 87.9436 99.0041 86.9557C104.085 85.9678 106.907 84.6976 111.988 85.5444C112.27 85.5444 112.552 85.5444 112.552 85.5444C112.552 84.5565 110.294 82.7218 107.331 83.004C103.661 83.2863 87.5726 71.1492 84.6089 67.9032C81.6452 64.6573 81.363 64.2339 78.9638 64.2339C77.2702 64.2339 77.5525 73.125 78.2581 78.629Z" fill="white"/>
</mask>
<g mask="url(#mask1_54_4405)">
<path d="M112.411 64.2339H77.27V95.5645H112.411V64.2339Z" fill="url(#paint1_linear_54_4405)"/>
</g>
<path d="M84.7498 92.6008L81.0805 95.2823L81.3628 95.7057L85.0321 93.0242L84.7498 92.6008ZM99.0039 86.6734C96.0402 87.2379 92.5119 88.7904 89.6894 90.0605C88.2781 90.7662 87.0079 91.3307 86.1611 91.8952C85.7377 92.1775 85.3144 92.3186 85.1732 92.4597C85.0321 92.4597 85.0321 92.6008 84.891 92.6008C84.891 92.6008 84.891 92.6008 84.7498 92.6008L84.891 92.8831L85.0321 93.1654C85.0321 93.1654 85.1732 93.0242 85.3144 93.0242C85.5966 92.8831 85.8789 92.742 86.3023 92.4597C87.149 92.0363 88.4192 91.3307 89.8305 90.625C92.6531 89.2137 96.1813 87.8025 99.0039 87.2379V86.6734ZM111.988 85.2621C106.907 84.4154 104.085 85.6855 99.0039 86.6734L99.145 87.2379C104.367 86.25 107.048 84.9799 111.988 85.8266V85.2621ZM112.411 85.5444L112.27 85.2621C112.27 85.2621 112.129 85.2621 111.988 85.2621L111.847 85.6855C111.988 85.6855 112.129 85.6855 112.27 85.6855H112.411V85.5444ZM107.33 83.1452C108.742 83.0041 110.012 83.4275 110.859 83.8508C111.282 84.1331 111.705 84.4154 111.847 84.6976C112.129 84.9799 112.129 85.2621 112.129 85.4033H112.693C112.693 85.121 112.552 84.6976 112.27 84.4154C111.988 84.1331 111.564 83.7097 111.141 83.4275C110.153 82.8629 108.883 82.4395 107.33 82.5807V83.1452ZM84.3265 68.0444C85.8789 69.7379 90.6773 73.5484 95.4757 76.9355C97.8748 78.6291 100.415 80.1815 102.391 81.3105C103.379 81.875 104.367 82.2984 105.214 82.7218C106.06 83.0041 106.766 83.1452 107.189 83.1452V82.5807C106.766 82.5807 106.201 82.4395 105.355 82.1573C104.508 81.875 103.661 81.4516 102.673 80.8871C100.556 79.7581 98.1571 78.2057 95.7579 76.5121C90.8184 73.125 86.1611 69.3145 84.7498 67.621L84.3265 68.0444ZM78.9636 64.5162C80.0926 64.5162 80.7982 64.6573 81.3628 65.0807C81.645 65.3629 82.0684 65.6452 82.4918 66.0686C82.9152 66.492 83.4797 67.1976 84.1853 68.0444L84.6087 67.7621C83.9031 66.9154 83.3386 66.3508 82.9152 65.7863C82.4918 65.3629 82.0684 64.9395 81.645 64.6573C80.7982 64.0928 80.0926 64.0928 78.9636 64.0928V64.5162ZM78.5402 78.6291C78.2579 75.9476 77.9757 72.2783 77.9757 69.4557C77.9757 68.0444 78.1168 66.7742 78.2579 65.9275C78.399 65.5041 78.5402 65.0807 78.5402 64.9395C78.6813 64.6573 78.8224 64.6573 78.8224 64.6573V64.0928C78.5402 64.0928 78.2579 64.375 78.1168 64.6573C77.9756 64.9395 77.8345 65.3629 77.6934 65.7863C77.5523 66.7742 77.4111 68.0444 77.4111 69.4557C77.4111 72.4194 77.6934 75.9476 77.9757 78.7702L78.5402 78.6291ZM79.9515 85.121C79.5281 83.4275 78.9636 81.1694 78.5402 78.6291H77.9757C78.2579 81.1694 78.9636 83.5686 79.3869 85.121H79.9515ZM80.516 92.4597C80.516 92.3186 80.516 92.1775 80.516 92.0363C80.516 91.8952 80.516 91.6129 80.516 91.3307C80.516 90.7662 80.516 90.0605 80.516 89.3549C80.3748 87.9436 80.2337 86.25 79.9515 85.2621L79.5281 85.4033C79.8103 86.3912 79.9515 87.9436 80.0926 89.496C80.0926 90.2016 80.0926 90.9073 80.0926 91.4718C80.0926 91.7541 80.0926 92.0363 80.0926 92.1775C80.0926 92.3186 80.0926 92.4597 80.0926 92.6008L80.516 92.4597ZM81.5039 95.4234C81.3627 95 81.0805 94.2944 80.7982 93.7299C80.6571 93.4476 80.6571 93.1654 80.516 92.8831C80.516 92.6008 80.516 92.4597 80.516 92.3186L80.0926 92.1775C80.0926 92.3186 80.0926 92.6008 80.0926 92.8831C80.0926 93.1654 80.2337 93.4476 80.3748 93.871C80.6571 94.5766 80.9394 95.1412 81.0805 95.5646L81.5039 95.4234ZM99.0039 86.8145V86.5323ZM111.988 85.5444V85.8266ZM112.411 85.5444L112.552 85.8266H112.693V85.6855H112.411V85.5444ZM107.33 83.0041V82.7218ZM84.4676 67.9033L84.3265 68.0444ZM78.9636 64.2339V64.0928ZM78.2579 78.6291H77.9757ZM79.6692 85.121H79.3869ZM80.2337 92.3186H80.516ZM81.2216 95.5646L80.9394 95.7057L81.0805 95.9879L81.3628 95.8468L81.2216 95.5646Z" fill="white"/>
<mask id="mask2_54_4405" style="mask-type:luminance" maskUnits="userSpaceOnUse" x="88" y="79" width="25" height="12">
<path d="M94.6291 79.6169C94.488 79.6169 94.488 79.6169 94.6291 79.6169C94.488 79.7581 94.9114 81.0282 95.0525 81.7339L95.617 84.2742L91.9477 85.121L88.2783 88.3669V90.7661L91.1009 89.6371L95.8993 87.5202L99.7098 86.6734C99.7098 86.6734 103.661 85.4032 107.613 85.2621C108.46 85.2621 111 85.121 111.706 85.4032C112.27 85.5444 112.411 85.4032 112.411 85.4032C112.27 84.5565 111.141 83.7097 106.343 84.2742C105.778 84.5565 104.226 84.5565 101.968 82.7218C99.5686 80.746 95.1936 79.6169 94.6291 79.6169Z" fill="white"/>
</mask>
<g mask="url(#mask2_54_4405)">
<path d="M112.411 79.6169H88.2783V90.7661H112.411V79.6169Z" fill="url(#paint2_linear_54_4405)"/>
</g>
<path fill-rule="evenodd" clip-rule="evenodd" d="M168.298 140.302C168.157 140.161 168.016 140.02 167.734 140.02C168.016 140.161 168.157 140.302 168.298 140.302ZM58.6409 143.407C59.6288 143.548 60.6167 142.702 57.7942 138.75C57.3708 137.903 56.524 135.786 56.524 134.093C56.524 132.399 54.1248 130.282 52.8547 129.294C52.2901 133.81 52.5724 142.56 58.6409 143.407ZM132.31 68.4677C124.972 80.0403 121.161 83.2863 120.032 83.5685C118.197 84.4153 114.246 85.5443 113.681 85.6855C113.54 85.6855 113.117 85.6855 112.27 85.5443C107.613 85.2621 92.5119 84.9798 77.6934 98.3871C77.6934 98.8105 77.4111 99.7984 76.9877 100.222C75.8587 101.351 73.7417 103.75 73.8829 105.161V106.149C73.3184 107.137 72.7538 109.677 74.7297 111.23C74.024 113.206 68.3788 118.145 51.8667 121.814C51.02 122.802 50.0321 125.343 51.8667 127.883C52.4313 128.024 53.278 128.024 52.8547 126.189C52.2901 123.931 52.8547 123.508 53.1369 123.367C53.278 123.226 60.7579 121.532 61.7458 124.778C62.4514 126.895 63.0159 128.589 60.0522 130.141C59.2055 130.564 57.653 133.81 57.9353 135.222C58.2176 136.774 59.4877 139.314 60.1934 140.302C61.8869 142.278 68.2377 145.524 74.024 145.665C77.8345 145.806 80.5159 143.972 83.4797 143.831C85.5966 143.689 90.395 143.972 91.3829 146.23C91.8063 147.218 91.9474 148.911 88.9837 149.194C87.2901 149.194 86.3022 148.488 84.8909 148.206C83.7619 147.923 81.7861 147.782 79.9514 147.782C79.1047 147.782 76.8466 148.206 75.0119 147.641C74.4474 147.5 72.6127 147.218 69.3667 147.641C68.2377 147.641 67.5321 147.359 64.9917 144.819C64.0038 143.972 61.8869 143.266 61.7458 146.935C61.6046 150.605 65.9796 152.863 68.0966 153.569C70.2135 154.274 75.7176 153.569 75.7176 153.569C76.2821 154.556 78.399 156.673 82.774 157.097V161.895C82.6329 161.895 82.2095 161.895 81.2216 161.331C80.2337 160.766 81.9272 164.012 82.9151 165.847C82.774 169.939 80.3748 178.266 72.1893 179.677C73.6006 179.677 76.7055 179.677 77.5522 179.395C78.399 178.972 76.2821 182.782 75.153 184.758C73.8829 186.452 70.6369 189.98 68.0966 190.403C69.0845 191.109 72.1893 191.25 77.4111 186.169C77.27 190.968 75.7176 201.835 70.4958 207.339C71.7659 206.492 74.7297 204.375 76.8466 202.54C77.4111 210.302 72.3305 239.375 72.3305 239.375C72.3305 239.375 73.1772 249.536 75.8587 252.923C81.7861 260.968 95.6167 271.976 116.08 277.621C129.064 281.29 129.347 276.492 131.605 270.706C133.722 265.484 136.968 260.403 139.508 258.851C141.766 257.439 152.351 252.359 152.351 252.359C157.008 247.419 158.701 243.044 161.383 234.577C158.56 234.577 158.984 236.835 155.455 228.508C151.786 227.238 143.742 222.863 140.637 215.665C137.532 208.468 138.52 210.302 137.814 206.633C136.968 202.399 136.403 198.306 137.25 195.907V190.403C134.992 188.851 130.758 184.052 131.322 178.125C127.653 173.327 121.302 162.177 125.677 156.532C126.524 155.685 133.016 155.685 152.915 163.589C153.48 162.883 156.584 162.601 163.641 166.835H170.839C171.826 165.988 174.79 164.012 178.459 162.883L171.544 150.04V149.194C171.968 149.194 172.955 149.052 173.379 148.488C172.391 148.064 170.415 146.794 169.992 144.677C170.839 144.96 172.814 145.665 173.379 145.383C173.943 145.383 174.508 145.242 171.544 143.689C169.992 143.266 166.746 141.714 165.334 139.456C165.758 139.314 166.746 139.314 167.734 139.879C166.04 138.75 163.359 136.069 162.935 131.835C162.512 130.564 161.101 127.46 158.56 125.202C159.83 125.766 162.512 126.895 162.794 127.46C161.806 125.625 159.548 121.673 158.56 119.98C159.548 120.262 161.383 121.109 161.524 121.109C161.101 120.403 159.83 118.427 158.137 116.31C158.56 116.31 159.548 116.169 160.536 115.323C158.843 115.04 155.314 113.347 154.609 109.536C154.891 106.29 154.326 98.6693 150.516 94.4354C148.681 85.5443 144.589 67.4798 144.024 66.4919C143.601 64.0927 142.189 61.4113 139.931 61.4113C138.097 61.5524 135.556 63.3871 132.31 68.4677Z" fill="#9A3089"/>
<path fill-rule="evenodd" clip-rule="evenodd" d="M168.298 140.302C168.157 140.161 168.016 140.02 167.734 140.02C168.016 140.161 168.157 140.302 168.298 140.302ZM58.6409 143.407C59.6288 143.548 60.6167 142.702 57.7942 138.75C57.3708 137.903 56.524 135.786 56.524 134.093C56.524 132.399 54.1248 130.282 52.8547 129.294C52.2901 133.81 52.5724 142.56 58.6409 143.407ZM132.31 68.4677C124.972 80.0403 121.161 83.2863 120.032 83.5685C118.197 84.4153 114.246 85.5443 113.681 85.6855C113.54 85.6855 113.117 85.6855 112.27 85.5443C107.613 85.2621 92.5119 84.9798 77.6934 98.3871C77.6934 98.8105 77.4111 99.7984 76.9877 100.222C75.8587 101.351 73.7417 103.75 73.8829 105.161V106.149C73.3184 107.137 72.7538 109.677 74.7297 111.23C74.024 113.206 68.3788 118.145 51.8667 121.814C51.02 122.802 50.0321 125.343 51.8667 127.883C52.4313 128.024 53.278 128.024 52.8547 126.189C52.2901 123.931 52.8547 123.508 53.1369 123.367C53.278 123.226 60.7579 121.532 61.7458 124.778C62.4514 126.895 63.0159 128.589 60.0522 130.141C59.2055 130.564 57.653 133.81 57.9353 135.222C58.2176 136.774 59.4877 139.314 60.1934 140.302C61.8869 142.278 68.2377 145.524 74.024 145.665C77.8345 145.806 80.5159 143.972 83.4797 143.831C85.5966 143.689 90.395 143.972 91.3829 146.23C91.8063 147.218 91.9474 148.911 88.9837 149.194C87.2901 149.194 86.3022 148.488 84.8909 148.206C83.7619 147.923 81.7861 147.782 79.9514 147.782C79.1047 147.782 76.8466 148.206 75.0119 147.641C74.4474 147.5 72.6127 147.218 69.3667 147.641C68.2377 147.641 67.5321 147.359 64.9917 144.819C64.0038 143.972 61.8869 143.266 61.7458 146.935C61.6046 150.605 65.9796 152.863 68.0966 153.569C70.2135 154.274 75.7176 153.569 75.7176 153.569C76.2821 154.556 78.399 156.673 82.774 157.097V161.895C82.6329 161.895 82.2095 161.895 81.2216 161.331C80.2337 160.766 81.9272 164.012 82.9151 165.847C82.774 169.939 80.3748 178.266 72.1893 179.677C73.6006 179.677 76.7055 179.677 77.5522 179.395C78.399 178.972 76.2821 182.782 75.153 184.758C73.8829 186.452 70.6369 189.98 68.0966 190.403C69.0845 191.109 72.1893 191.25 77.4111 186.169C77.27 190.968 75.7176 201.835 70.4958 207.339C71.7659 206.492 74.7297 204.375 76.8466 202.54C77.4111 210.302 72.3305 239.375 72.3305 239.375C72.3305 239.375 73.1772 249.536 75.8587 252.923C81.7861 260.968 95.6167 271.976 116.08 277.621C129.064 281.29 129.347 276.492 131.605 270.706C133.722 265.484 136.968 260.403 139.508 258.851C141.766 257.439 152.351 252.359 152.351 252.359C157.008 247.419 158.701 243.044 161.383 234.577C158.56 234.577 158.984 236.835 155.455 228.508C151.786 227.238 143.742 222.863 140.637 215.665C137.532 208.468 138.52 210.302 137.814 206.633C136.968 202.399 136.403 198.306 137.25 195.907V190.403C134.992 188.851 130.758 184.052 131.322 178.125C127.653 173.327 121.302 162.177 125.677 156.532C126.524 155.685 133.016 155.685 152.915 163.589C153.48 162.883 156.584 162.601 163.641 166.835H170.839C171.826 165.988 174.79 164.012 178.459 162.883L171.544 150.04V149.194C171.968 149.194 172.955 149.052 173.379 148.488C172.391 148.064 170.415 146.794 169.992 144.677C170.839 144.96 172.814 145.665 173.379 145.383C173.943 145.383 174.508 145.242 171.544 143.689C169.992 143.266 166.746 141.714 165.334 139.456C165.758 139.314 166.746 139.314 167.734 139.879C166.04 138.75 163.359 136.069 162.935 131.835C162.512 130.564 161.101 127.46 158.56 125.202C159.83 125.766 162.512 126.895 162.794 127.46C161.806 125.625 159.548 121.673 158.56 119.98C159.548 120.262 161.383 121.109 161.524 121.109C161.101 120.403 159.83 118.427 158.137 116.31C158.56 116.31 159.548 116.169 160.536 115.323C158.843 115.04 155.314 113.347 154.609 109.536C154.891 106.29 154.326 98.6693 150.516 94.4354C148.681 85.5443 144.589 67.4798 144.024 66.4919C143.601 64.0927 142.189 61.4113 139.931 61.4113C138.097 61.5524 135.556 63.3871 132.31 68.4677Z" fill="#6CB3E4"/>
<path fill-rule="evenodd" clip-rule="evenodd" d="M168.298 140.302C168.157 140.161 168.016 140.02 167.734 140.02C168.016 140.161 168.157 140.302 168.298 140.302ZM58.6409 143.407C59.6288 143.548 60.6167 142.702 57.7942 138.75C57.3708 137.903 56.524 135.786 56.524 134.093C56.524 132.399 54.1248 130.282 52.8547 129.294C52.2901 133.81 52.5724 142.56 58.6409 143.407ZM132.31 68.4677C124.972 80.0403 121.161 83.2863 120.032 83.5685C118.197 84.4153 114.246 85.5443 113.681 85.6855C113.54 85.6855 113.117 85.6855 112.27 85.5443C107.613 85.2621 92.5119 84.9798 77.6934 98.3871C77.6934 98.8105 77.4111 99.7984 76.9877 100.222C75.8587 101.351 73.7417 103.75 73.8829 105.161V106.149C73.3184 107.137 72.7538 109.677 74.7297 111.23C74.024 113.206 68.3788 118.145 51.8667 121.814C51.02 122.802 50.0321 125.343 51.8667 127.883C52.4313 128.024 53.278 128.024 52.8547 126.189C52.2901 123.931 52.8547 123.508 53.1369 123.367C53.278 123.226 60.7579 121.532 61.7458 124.778C62.4514 126.895 63.0159 128.589 60.0522 130.141C59.2055 130.564 57.653 133.81 57.9353 135.222C58.2176 136.774 59.4877 139.314 60.1934 140.302C61.8869 142.278 68.2377 145.524 74.024 145.665C77.8345 145.806 80.5159 143.972 83.4797 143.831C85.5966 143.689 90.395 143.972 91.3829 146.23C91.8063 147.218 91.9474 148.911 88.9837 149.194C87.2901 149.194 86.3022 148.488 84.8909 148.206C83.7619 147.923 81.7861 147.782 79.9514 147.782C79.1047 147.782 76.8466 148.206 75.0119 147.641C74.4474 147.5 72.6127 147.218 69.3667 147.641C68.2377 147.641 67.5321 147.359 64.9917 144.819C64.0038 143.972 61.8869 143.266 61.7458 146.935C61.6046 150.605 65.9796 152.863 68.0966 153.569C70.2135 154.274 75.7176 153.569 75.7176 153.569C76.2821 154.556 78.399 156.673 82.774 157.097V161.895C82.6329 161.895 82.2095 161.895 81.2216 161.331C80.2337 160.766 81.9272 164.012 82.9151 165.847C82.774 169.939 80.3748 178.266 72.1893 179.677C73.6006 179.677 76.7055 179.677 77.5522 179.395C78.399 178.972 76.2821 182.782 75.153 184.758C73.8829 186.452 70.6369 189.98 68.0966 190.403C69.0845 191.109 72.1893 191.25 77.4111 186.169C77.27 190.968 75.7176 201.835 70.4958 207.339C71.7659 206.492 74.7297 204.375 76.8466 202.54C77.4111 210.302 72.3305 239.375 72.3305 239.375C72.3305 239.375 73.1772 249.536 75.8587 252.923C81.7861 260.968 95.6167 271.976 116.08 277.621C129.064 281.29 129.347 276.492 131.605 270.706C133.722 265.484 136.968 260.403 139.508 258.851C141.766 257.439 152.351 252.359 152.351 252.359C157.008 247.419 158.701 243.044 161.383 234.577C158.56 234.577 158.984 236.835 155.455 228.508C151.786 227.238 143.742 222.863 140.637 215.665C137.532 208.468 138.52 210.302 137.814 206.633C136.968 202.399 136.403 198.306 137.25 195.907V190.403C134.992 188.851 130.758 184.052 131.322 178.125C127.653 173.327 121.302 162.177 125.677 156.532C126.524 155.685 133.016 155.685 152.915 163.589C153.48 162.883 156.584 162.601 163.641 166.835H170.839C171.826 165.988 174.79 164.012 178.459 162.883L171.544 150.04V149.194C171.968 149.194 172.955 149.052 173.379 148.488C172.391 148.064 170.415 146.794 169.992 144.677C170.839 144.96 172.814 145.665 173.379 145.383C173.943 145.383 174.508 145.242 171.544 143.689C169.992 143.266 166.746 141.714 165.334 139.456C165.758 139.314 166.746 139.314 167.734 139.879C166.04 138.75 163.359 136.069 162.935 131.835C162.512 130.564 161.101 127.46 158.56 125.202C159.83 125.766 162.512 126.895 162.794 127.46C161.806 125.625 159.548 121.673 158.56 119.98C159.548 120.262 161.383 121.109 161.524 121.109C161.101 120.403 159.83 118.427 158.137 116.31C158.56 116.31 159.548 116.169 160.536 115.323C158.843 115.04 155.314 113.347 154.609 109.536C154.891 106.29 154.326 98.6693 150.516 94.4354C148.681 85.5443 144.589 67.4798 144.024 66.4919C143.601 64.0927 142.189 61.4113 139.931 61.4113C138.097 61.5524 135.556 63.3871 132.31 68.4677Z" fill="#4C70B5"/>
<mask id="mask3_54_4405" style="mask-type:luminance" maskUnits="userSpaceOnUse" x="50" y="60" width="130" height="108">
<path d="M135.697 63.5283C134.568 63.9517 122.572 82.1573 120.597 83.2863C119.891 83.7097 115.939 84.9799 113.822 85.5444C97.1692 83.7097 84.3264 92.1775 80.7982 95.9879C77.6934 97.6815 77.1288 99.2339 77.27 99.9396C74.4474 102.198 73.7417 104.738 73.7417 105.726C72.1893 107.843 73.8829 110.383 74.5885 111.512C70.0724 117.016 57.7942 120.686 51.8667 121.673C50.5966 121.956 50.3143 124.919 50.7377 126.613C51.3022 128.73 52.2901 128.165 52.5724 128.024C52.8547 127.742 52.4313 125.343 52.4313 123.79C52.4313 122.238 61.8869 122.238 71.6248 116.734C79.3869 112.359 78.1167 106.996 76.4232 104.879C82.774 90.2017 103.661 87.3791 113.681 87.0968C116.222 86.8146 121.584 85.5444 122.855 83.7097C124.125 81.7339 133.157 70.867 137.532 65.6452C142.33 60 144.589 76.9355 146.847 87.3791C146.847 90.0605 147.411 95.8468 148.964 96.5525C150.516 97.3992 150.093 100.504 149.669 102.198L147.552 105.585C148.399 112.782 149.528 128.871 147.27 133.387C144.871 137.903 144.871 141.714 145.012 142.984C149.669 148.347 145.294 151.593 142.472 152.722C140.919 152.722 140.637 157.097 140.778 159.355L142.33 159.919L150.375 162.883C150.375 162.883 157.996 166.835 164.347 167.117C168.58 167.399 174.226 165.706 174.226 165.706L179.73 164.153L172.532 150.464C173.661 149.899 175.072 148.488 174.084 148.347C173.097 148.206 171.826 147.218 171.121 146.23C173.52 146.371 176.766 146.936 174.084 145.101C172.109 143.831 168.157 141.855 166.605 140.444C168.298 141.008 171.544 141.29 169.851 140.444C167.593 139.456 163.641 134.657 163.641 132.54C163.641 130.847 162.371 127.742 160.113 126.19C161.524 127.036 163.641 128.589 163.641 128.165C163.641 127.742 161.101 123.508 159.689 121.109C160.113 120.827 161.806 121.673 162.512 122.238C162.653 121.25 159.972 117.863 158.701 116.593C160.113 116.734 161.101 115.323 161.524 114.899C157.29 114.194 155.455 111.089 155.173 109.395C156.443 99.0928 151.645 94.8589 151.222 94.2944C150.798 93.7299 147.834 75.5242 144.73 65.7863C143.459 61.9758 141.766 60.7057 140.214 60.7057C138.238 60.9879 136.685 62.3992 135.697 63.5283Z" fill="white"/>
</mask>
<g mask="url(#mask3_54_4405)">
<path d="M179.589 60H50.4556V167.258H179.589V60Z" fill="url(#paint3_linear_54_4405)"/>
</g>
<path d="M75.7179 106.431C74.4477 105.161 73.8832 106.149 73.601 106.714C72.7542 109.395 73.8832 111.23 74.5889 111.653L75.859 110.665C76.4236 109.677 76.9881 107.561 75.7179 106.431Z" fill="#07316B"/>
<path d="M88.1369 109.677C87.9958 104.456 90.1127 101.915 91.2417 101.351C89.2659 106.431 92.2296 108.266 94.0643 108.548C96.7458 108.548 101.968 111.089 104.226 112.359C101.262 117.016 97.4514 118.569 95.7579 118.71C93.3587 118.427 90.6772 117.157 89.5482 116.452C87.8546 116.452 85.7377 118.004 84.8909 118.71C84.1853 114.758 86.7256 111.089 88.1369 109.677Z" fill="#07316B"/>
<mask id="mask4_54_4405" style="mask-type:luminance" maskUnits="userSpaceOnUse" x="74" y="107" width="2" height="4">
<path d="M74.5888 107.419C74.3066 108.407 73.742 108.266 74.1654 109.254C74.3066 109.677 74.3066 110.101 74.5888 110.665C75.7178 110.665 75.859 109.819 75.7178 108.972C75.5767 108.125 75.1533 107.278 74.7299 107.278C74.7299 107.137 74.5888 107.278 74.5888 107.419Z" fill="white"/>
</mask>
<g mask="url(#mask4_54_4405)">
<path d="M75.8591 107.137H73.7422V110.665H75.8591V107.137Z" fill="url(#paint4_linear_54_4405)"/>
</g>
<mask id="mask5_54_4405" style="mask-type:luminance" maskUnits="userSpaceOnUse" x="92" y="109" width="4" height="6">
<path d="M94.3467 114.052C95.3346 113.488 96.4636 111.794 94.2056 109.113C92.6531 109.96 90.5362 112.218 94.3467 114.052Z" fill="white"/>
</mask>
<g mask="url(#mask5_54_4405)">
<path d="M96.6047 109.113H90.5361V114.052H96.6047V109.113Z" fill="url(#paint5_linear_54_4405)"/>
</g>
<mask id="mask6_54_4405" style="mask-type:luminance" maskUnits="userSpaceOnUse" x="98" y="110" width="5" height="5">
<path d="M98.2983 110.948C98.8629 111.653 99.8508 113.206 99.9919 113.911C100.133 114.617 101.827 113.488 102.532 112.923C101.685 112.077 100.133 110.806 98.8629 110.806C98.7217 110.806 98.5806 110.806 98.2983 110.948Z" fill="white"/>
</mask>
<g mask="url(#mask6_54_4405)">
<path d="M102.673 110.806H98.2983V114.617H102.673V110.806Z" fill="url(#paint6_linear_54_4405)"/>
</g>
<mask id="mask7_54_4405" style="mask-type:luminance" maskUnits="userSpaceOnUse" x="136" y="66" width="15" height="41">
<path d="M141.484 66.3508C141.343 66.3508 141.343 66.492 141.202 66.6331C138.097 69.3145 138.238 83.0041 138.661 89.6371C135.698 91.6129 136.262 94.2944 136.827 95.4234C141.202 99.6573 139.932 99.6573 139.932 99.9395C132.875 104.315 136.968 105.867 139.932 106.149C145.436 107.843 147.694 106.431 147.976 105.444C148.399 104.597 149.246 103.044 149.528 102.903C149.811 102.762 150.94 97.5403 149.246 96.6936C147.835 95.9879 147.552 90.4839 147.552 87.8024L146.141 82.2984C143.742 69.4557 142.19 66.3508 141.484 66.3508Z" fill="white"/>
</mask>
<g mask="url(#mask7_54_4405)">
<path d="M150.94 66.3508H132.875V107.702H150.94V66.3508Z" fill="url(#paint7_linear_54_4405)"/>
</g>
<mask id="mask8_54_4405" style="mask-type:luminance" maskUnits="userSpaceOnUse" x="105" y="116" width="37" height="29">
<path d="M133.157 116.593C131.182 118.145 124.407 118.145 121.303 118.004C121.02 118.851 119.891 120.544 117.21 120.121C114.387 119.557 114.105 122.379 114.246 123.932C116.928 124.919 116.363 126.613 115.798 127.319C107.613 130.282 105.778 136.915 105.778 139.738C106.343 141.149 107.895 143.548 109.024 141.432C110.153 139.315 117.633 142.278 121.303 143.972C121.585 144.254 122.573 144.678 124.125 144.819C125.678 144.96 126.524 143.972 126.665 143.407C128.077 142.137 131.887 140.444 136.121 143.407C140.355 146.371 138.803 140.867 137.532 137.762C137.673 136.633 139.932 137.48 140.919 138.044C142.048 134.516 137.25 130.565 134.71 129.012C139.367 124.919 134.992 122.238 134.428 121.956C133.722 121.815 130.335 121.25 130.053 119.839C129.911 118.71 131.887 118.851 132.875 118.992C133.581 117.863 134.569 116.028 134.004 116.028C133.863 116.169 133.581 116.311 133.157 116.593Z" fill="white"/>
</mask>
<g mask="url(#mask8_54_4405)">
<path d="M141.907 116.169H105.637V146.512H141.907V116.169Z" fill="url(#paint8_linear_54_4405)"/>
</g>
<path opacity="0.5" fill-rule="evenodd" clip-rule="evenodd" d="M122.714 150.464C117.21 150.464 106.202 153.286 105.073 158.79C104.085 161.331 102.532 166.976 103.238 169.798C101.827 172.198 99.992 176.855 103.944 176.572C103.379 178.548 101.403 180.947 98.5807 175.161C95.617 178.266 92.5122 184.193 103.238 183.206C104.508 183.064 106.061 184.335 102.25 191.109C99.992 194.072 95.8993 201.129 97.0283 204.798C98.2985 208.468 98.0162 209.314 97.7339 209.314C97.4517 208.327 96.8872 206.351 96.0404 206.915C95.1936 207.48 94.2057 211.008 93.7823 212.702C93.7823 210.443 92.371 205.504 87.5727 203.952C82.7743 202.399 84.8912 196.331 86.5847 193.508C84.3267 193.508 80.2339 196.048 81.6452 207.197C82.9154 209.314 85.1735 213.831 84.8912 215.242C84.6089 216.935 82.0686 221.593 83.4799 226.673C84.6089 230.766 88.2783 235.847 89.9718 237.964C91.9477 235.706 96.0404 230.484 96.0404 227.379C96.0404 224.274 97.1694 229.778 97.7339 233.024C97.3106 236.129 97.5928 243.468 102.25 247.56C103.097 244.032 105.355 236.129 107.895 233.73C110.577 231.331 111 224.415 111 221.31C108.46 216.089 102.532 205.645 99.2864 204.939C96.0404 204.234 100.557 202.117 103.238 201.129C104.367 201.552 106.625 203.669 106.625 208.609C106.625 213.548 109.307 210.726 110.577 208.609C111.423 206.774 113.399 205.504 115.093 214.395C116.786 223.286 119.186 227.097 120.315 227.943C120.315 228.79 119.327 231.048 115.093 233.024C111 235.141 113.399 241.068 115.093 243.75C116.645 247.419 121.444 255.181 128.5 257.439C135.557 259.697 128.359 249.254 123.843 243.75C122.996 236.976 122.714 222.722 127.794 220.181C126.665 223.145 126.948 229.355 136.968 231.472C139.226 230.907 144.165 230.343 145.859 231.754C143.883 232.46 140.214 234.718 141.202 237.54C136.686 238.246 129.065 241.633 134.427 249.677C139.79 257.722 143.601 255.322 146.423 256.452C148.54 255.887 150.375 254.758 152.069 252.923C154.044 251.512 155.597 248.831 158.984 242.339C159.266 240.363 162.089 235.706 161.524 234.577C161.524 234.294 161.383 234.294 160.96 234.294C159.972 234.294 157.573 234.294 155.173 228.649C151.222 227.661 142.048 222.016 138.097 209.879C137.815 205.786 135.839 199.153 129.206 202.822C126.383 200.564 122.996 194.072 132.875 186.169C132.028 185.181 130.617 182.218 131.323 178.407C130.052 176.855 127.371 173.327 126.383 170.504C125.254 170.645 122.432 170.222 120.173 167.964C119.186 171.21 118.762 178.689 125.395 183.064C126.242 186.593 125.536 193.931 115.94 194.355C112.27 194.355 106.484 191.391 113.117 180.383C114.105 179.113 115.234 175.161 112.27 169.657C112.411 165.564 113.399 158.931 115.94 164.859C118.198 162.883 121.585 158.367 117.492 155.403C119.468 153.992 123.702 151.593 125.395 152.439C127.089 153.427 125.96 151.452 125.395 150.887C124.972 150.605 123.984 150.464 122.714 150.464Z" fill="#8684BF"/>
<mask id="mask9_54_4405" style="mask-type:luminance" maskUnits="userSpaceOnUse" x="189" y="203" width="42" height="16">
<path d="M229.972 203.669C203.863 202.399 189.891 217.5 189.468 217.5L190.315 218.206C204.004 206.21 223.056 203.952 230.96 204.234L229.972 203.669Z" fill="white"/>
</mask>
<g mask="url(#mask9_54_4405)">
<path d="M230.96 202.54H189.468V218.206H230.96V202.54Z" fill="url(#paint9_linear_54_4405)"/>
</g>
<mask id="mask10_54_4405" style="mask-type:luminance" maskUnits="userSpaceOnUse" x="187" y="208" width="44" height="15">
<path d="M229.549 208.75C212.754 206.915 193.984 215.948 187.774 220.605L188.057 222.016C204.992 211.149 224.186 209.032 230.537 209.456L229.549 208.75Z" fill="white"/>
</mask>
<g mask="url(#mask10_54_4405)">
<path d="M230.678 206.915H187.774V221.875H230.678V206.915Z" fill="url(#paint10_linear_54_4405)"/>
</g>
<mask id="mask11_54_4405" style="mask-type:luminance" maskUnits="userSpaceOnUse" x="187" y="219" width="23" height="5">
<path d="M187.916 222.863V223.71C193.137 221.028 205.416 220.323 209.649 220.323C202.17 218.065 191.303 221.169 187.916 222.863Z" fill="white"/>
</mask>
<g mask="url(#mask11_54_4405)">
<path d="M209.649 218.065H187.916V223.71H209.649V218.065Z" fill="url(#paint11_linear_54_4405)"/>
</g>
<mask id="mask12_54_4405" style="mask-type:luminance" maskUnits="userSpaceOnUse" x="187" y="224" width="35" height="6">
<path d="M221.363 227.944C213.318 222.581 195.113 224.133 187.915 225.403L187.351 226.956C204.004 223.428 217.411 226.815 220.939 229.214L221.363 227.944Z" fill="white"/>
</mask>
<g mask="url(#mask12_54_4405)">
<path d="M221.504 222.44H187.492V229.073H221.504V222.44Z" fill="url(#paint12_linear_54_4405)"/>
</g>
<mask id="mask13_54_4405" style="mask-type:luminance" maskUnits="userSpaceOnUse" x="187" y="227" width="29" height="11">
<path d="M215.294 236.835C210.072 229.637 193.701 227.379 187.351 227.097L187.209 228.367C197.653 227.661 210.496 234.294 214.447 237.681L215.294 236.835Z" fill="white"/>
</mask>
<g mask="url(#mask13_54_4405)">
<path d="M215.294 227.097H187.209V237.681H215.294V227.097Z" fill="url(#paint13_linear_54_4405)"/>
</g>
<mask id="mask14_54_4405" style="mask-type:luminance" maskUnits="userSpaceOnUse" x="186" y="229" width="20" height="19">
<path d="M205.839 246.573C201.887 230.484 187.068 229.637 186.927 229.637L186.645 230.343C198.076 233.165 204.286 243.044 205.133 247.561L205.839 246.573Z" fill="white"/>
</mask>
<g mask="url(#mask14_54_4405)">
<path d="M205.839 229.496H186.504V247.419H205.839V229.496Z" fill="url(#paint14_linear_54_4405)"/>
</g>
<mask id="mask15_54_4405" style="mask-type:luminance" maskUnits="userSpaceOnUse" x="185" y="231" width="14" height="18">
<path d="M198.782 248.689C197.794 238.669 185.798 232.318 185.375 232.177L186.081 231.189C195.395 234.718 198.923 244.456 198.782 248.689Z" fill="white"/>
</mask>
<g mask="url(#mask15_54_4405)">
<path d="M198.923 231.189H185.516V248.689H198.923V231.189Z" fill="url(#paint15_linear_54_4405)"/>
</g>
<path d="M189.327 160.907C191.585 160.484 197.512 159.214 199.064 160.766L205.98 150.605C208.52 147.218 213.036 141.149 215.435 140.444C219.952 142.137 225.456 165.988 223.48 170.927C225.879 175.302 225.456 181.653 225.032 184.194C228.984 185.464 236.887 191.956 236.04 207.48C235.193 222.016 231.665 234.718 221.363 247.419C219.387 250.101 218.117 251.23 218.964 250.242C219.81 249.254 220.516 248.407 221.363 247.419C225.738 241.492 234.206 227.802 235.335 209.315C235.335 204.94 234.911 201.27 234.347 198.448C231.665 186.311 224.468 185.746 224.468 184.617C224.468 183.065 224.609 176.855 224.044 174.597C223.48 172.339 222.915 171.492 222.351 170.786C223.48 169.798 222.915 164.859 223.056 162.742C221.786 156.532 218.54 143.266 216.141 141.714C213.46 140.161 199.206 161.472 192.714 171.633C194.125 167.964 197.653 163.73 199.064 161.331C198.077 160.202 195.677 160.766 194.407 160.766C185.375 161.19 173.661 166.835 170.415 167.117C167.875 167.399 164.629 166.27 160.395 165.988C158.56 165.847 153.48 164.436 156.161 166.552C156.585 166.976 157.29 167.54 156.302 167.54C153.762 162.319 130.476 155.544 125.254 156.391C129.064 157.802 138.661 164.294 144.165 170.363C145.435 171.774 145.859 172.198 147.27 173.891C139.931 165.423 128.782 158.932 124.831 157.097C120.597 157.379 128.5 176.432 130.899 178.266C130.335 184.899 133.157 188.851 137.109 191.109C136.685 193.226 135.98 199.718 136.403 203.528C136.544 204.657 137.109 207.057 137.391 208.468C137.814 219.476 145.859 223.427 149.669 226.25C152.068 227.802 153.903 228.508 155.173 229.355C159.266 238.811 170.839 237.964 173.661 235.847C186.222 238.387 188.056 226.391 187.492 220.464C187.351 219.899 187.351 218.629 189.044 217.5C190.738 216.512 191.02 216.936 191.02 217.5L190.173 218.347L188.198 219.335C188.339 220.04 188.198 220.746 188.198 221.593C196.383 222.298 221.927 208.186 221.927 187.581C223.339 207.903 196.806 223.286 188.198 222.722C188.056 224.274 187.915 225.686 187.915 225.686C187.915 225.686 187.633 227.238 187.068 228.932C186.363 231.048 185.093 233.589 183.258 234.718C179.165 237.117 175.637 236.835 173.802 236.129C171.544 237.258 170.556 237.399 169.568 237.399C168.439 237.399 168.016 237.54 167.028 237.399C162.512 236.835 161.665 236.129 159.407 235C159.831 235.565 159.548 238.246 159.548 238.811C159.548 239.94 155.173 248.831 153.339 251.23C151.927 253.206 150.516 256.169 143.318 257.44C138.238 258.286 134.286 263.367 129.488 273.387C128.923 275.081 129.206 276.915 126.524 278.327C123.56 280.02 107.895 277.339 117.068 278.327C125.254 279.173 127.794 277.621 128.359 276.069C129.206 271.694 136.403 257.157 143.318 256.734C151.927 256.028 156.161 245.302 157.996 241.774C159.407 239.093 159.548 235.565 158.278 234.294L158.137 234.153C156.02 232.319 154.609 230.343 154.75 229.496C136.121 220.746 137.532 211.714 136.827 208.327C134.992 200.706 135.98 195.343 136.403 190.968C130.193 187.581 130.052 181.089 130.476 178.266C128.5 175.585 126.665 172.339 125.254 168.387C121.726 158.508 123.419 157.379 124.689 156.391C126.524 154.98 139.508 158.649 145.859 160.907C147.129 161.331 150.093 162.601 152.774 163.871C156.585 165.706 167.169 166.411 170.415 166.129C171.827 165.988 187.633 161.19 189.327 160.907Z" fill="white"/>
<path d="M215.718 156.814C210.637 158.79 196.524 161.189 199.911 174.314C197.794 169.657 197.794 159.637 215.718 156.814Z" fill="white"/>
<path d="M166.181 181.653C165.617 179.677 166.464 172.903 168.298 172.621C166.181 170.504 165.193 181.936 166.181 182.5C167.028 182.782 166.322 182.077 166.181 181.653Z" fill="white"/>
<path d="M184.81 206.633C179.306 206.351 180.576 199.577 181.988 196.331C174.508 197.177 180.294 211.008 180.012 210.443C179.871 210.02 181.141 208.75 181.706 208.185C183.258 208.75 185.375 208.75 187.492 208.044C191.726 206.633 194.689 199.012 193.984 198.73C191.302 197.601 189.891 198.165 189.326 198.73C190.032 201.552 190.314 206.915 184.81 206.633Z" fill="white"/>
<path d="M156.726 208.891C151.222 208.891 151.363 203.528 152.069 200.988C149.952 200.988 146.565 201.411 148.117 201.835C149.952 202.258 150.657 208.891 154.468 210.302C157.573 211.431 159.408 210.867 159.831 210.302L161.524 211.431C164.065 202.964 159.831 200.564 157.291 200.423C159.407 203.246 162.089 208.891 156.726 208.891Z" fill="white"/>
<path d="M161.806 223.427C164.347 220.464 172.532 220.887 172.814 222.298C173.379 224.556 170.556 225.968 169.286 226.956C168.298 227.661 169.427 230.202 169.145 230.343C168.439 230.484 167.169 230.766 167.31 230.202C167.452 229.637 166.464 227.944 165.899 227.097C161.665 226.109 161.101 224.415 161.806 223.427Z" fill="white"/>
<path fill-rule="evenodd" clip-rule="evenodd" d="M75.5767 269.294L209.79 258.427L215.577 298.79H75.5767V269.294Z" fill="#492483"/>
<path fill-rule="evenodd" clip-rule="evenodd" d="M106.907 277.339C106.907 277.198 107.048 276.915 107.331 276.915H110.435C110.718 276.915 110.859 277.057 110.859 277.339V282.419C110.859 282.561 110.718 282.843 110.435 282.843H107.331C107.048 282.843 106.907 282.702 106.907 282.419V277.339ZM102.532 275.363V284.536C102.532 285.524 103.379 286.512 104.367 286.512H113.399C114.387 286.512 115.234 285.665 115.234 284.536V275.363C115.234 274.375 114.387 273.387 113.399 273.387H104.367C103.379 273.387 102.532 274.234 102.532 275.363Z" fill="#EEEEEE"/>
<path fill-rule="evenodd" clip-rule="evenodd" d="M129.77 286.371H134.286V273.387H132.31C131.04 273.387 129.488 273.952 128.641 275.081L126.101 278.327H125.96L122.008 273.387H116.504L117.774 276.915V286.371H122.29V278.891H122.431L126.101 283.548H125.96L129.629 278.891H129.77V286.371Z" fill="#EEEEEE"/>
<path fill-rule="evenodd" clip-rule="evenodd" d="M136.968 277.057V286.512H148.399L147.553 284.113C147.27 283.407 146.706 283.266 146.424 283.266H141.484V281.29H141.766H142.331H144.871C145.295 281.29 145.718 281.149 145.859 280.726L146.706 278.609H141.484V276.774H146.565C146.988 276.774 147.27 276.492 147.553 276.21L148.54 273.528H135.839L136.968 277.057Z" fill="#EEEEEE"/>
<path fill-rule="evenodd" clip-rule="evenodd" d="M154.75 283.125V276.774H157.855C158.278 276.774 158.702 277.057 158.702 277.621V282.419C158.702 282.843 158.278 283.266 157.855 283.266H154.75V283.125ZM148.964 273.387L150.234 276.915V286.371H160.254C162.089 286.371 162.936 284.819 162.936 283.831V276.21C162.936 275.222 161.948 273.387 160.254 273.387H148.964Z" fill="#EEEEEE"/>
<path fill-rule="evenodd" clip-rule="evenodd" d="M164.488 273.387L165.758 277.057V286.371H170.274V273.387H164.488Z" fill="#EEEEEE"/>
<path fill-rule="evenodd" clip-rule="evenodd" d="M178.177 276.774H179.306L180.294 281.714H177.19L178.177 276.774ZM176.202 286.371L176.625 284.395H179.024C179.589 284.395 180.577 284.395 180.577 284.395H180.859H181L181.423 286.371H185.94L183.399 273.387H172.532L173.802 276.915L171.968 286.371H176.202Z" fill="#EEEEEE"/>
<path fill-rule="evenodd" clip-rule="evenodd" d="M186.081 268.73L187.351 272.117V281.008C187.351 281.008 189.044 281.008 190.173 281.008C191.161 281.008 191.585 281.008 191.585 281.008V268.73H186.081ZM187.351 282.137V286.371H191.443V282.137H187.351Z" fill="#EEEEEE"/>
<path fill-rule="evenodd" clip-rule="evenodd" d="M102.673 289.052C102.814 289.335 102.814 289.617 103.097 289.758V293.145H104.085V290.887H104.226C104.226 291.028 104.508 291.452 104.649 291.452H106.625V293.145H107.613V289.052H106.625V290.746H104.226V289.052H102.673Z" fill="#EEEEEE"/>
<path fill-rule="evenodd" clip-rule="evenodd" d="M109.73 292.581C109.589 292.581 109.447 292.44 109.447 292.298V291.452C109.447 291.311 109.589 291.169 109.73 291.169H111.847V292.44H109.73V292.581ZM108.742 289.476C108.742 289.617 108.883 289.758 109.024 289.758H111.282C111.705 289.758 111.847 290.04 111.847 290.182V290.605H109.447C108.883 290.605 108.459 290.887 108.459 291.311V292.298C108.459 292.863 109.024 293.004 109.447 293.004H111.282C111.564 293.004 111.705 292.722 111.847 292.581V293.004H112.834V289.758C112.834 289.335 112.411 288.911 111.847 288.911H108.601L108.742 289.476Z" fill="#EEEEEE"/>
<path fill-rule="evenodd" clip-rule="evenodd" d="M117.351 290.746C117.492 290.746 117.774 290.605 117.774 290.464V289.052H115.093C114.528 289.052 113.964 289.335 113.964 289.899V292.016C113.964 292.581 114.246 293.004 114.952 293.004H117.351C117.633 293.004 117.774 292.581 117.774 292.298H115.234C114.952 292.298 114.811 292.157 114.811 291.875V290.04C114.811 289.758 114.952 289.617 115.234 289.617H116.786V290.887L117.351 290.746Z" fill="#EEEEEE"/>
<path fill-rule="evenodd" clip-rule="evenodd" d="M118.198 289.052C118.339 289.335 118.339 289.758 118.621 289.758H120.032V293.145H121.02V289.758H122.714V289.052H118.198Z" fill="#EEEEEE"/>
<path fill-rule="evenodd" clip-rule="evenodd" d="M124.407 290.04C124.407 289.758 124.548 289.617 124.831 289.617H126.524C126.807 289.617 126.948 289.758 126.948 290.04V292.016C126.948 292.298 126.807 292.44 126.524 292.44H124.831C124.548 292.44 124.407 292.298 124.407 292.016V290.04ZM123.419 289.899V292.298C123.419 292.722 123.843 293.145 124.266 293.145H126.807C127.23 293.145 127.653 292.722 127.653 292.298V289.899C127.653 289.476 127.23 289.052 126.807 289.052H124.266C123.843 289.052 123.419 289.335 123.419 289.899Z" fill="#EEEEEE"/>
<path fill-rule="evenodd" clip-rule="evenodd" d="M129.629 289.899C129.629 289.758 129.629 289.617 129.77 289.617H131.887V291.169H129.911C129.77 291.169 129.77 291.169 129.629 291.028V289.899ZM132.875 289.052H129.064C128.782 289.052 128.641 289.335 128.641 289.617L128.923 291.169C128.923 291.452 129.206 291.734 129.488 291.734H130.052C129.911 291.734 129.77 291.875 129.77 292.016L128.641 293.145H129.347C129.629 293.145 129.77 293.004 129.911 293.004L131.04 291.875H131.605C131.887 291.875 132.028 291.593 132.028 291.452V293.286H133.016V289.052H132.875Z" fill="#EEEEEE"/>
<path fill-rule="evenodd" clip-rule="evenodd" d="M140.073 294.557C140.355 294.557 140.919 294.415 140.919 293.992V292.298H140.214V288.911H139.226V292.298H137.391V288.911H136.403V292.298H134.569V288.911H133.157C133.298 289.194 133.298 289.617 133.581 289.617V293.004H140.073V294.557Z" fill="#EEEEEE"/>
<path fill-rule="evenodd" clip-rule="evenodd" d="M145.718 289.052C145.436 289.052 144.871 289.617 144.589 289.758L142.472 291.875V289.052H141.061C141.202 289.335 141.202 289.617 141.484 289.758V293.145H141.766C142.19 293.145 142.613 292.722 142.895 292.44L145.012 290.323V293.145H146V289.052H145.718Z" fill="#EEEEEE"/>
<path fill-rule="evenodd" clip-rule="evenodd" d="M148.117 290.887V290.04C148.117 289.758 148.258 289.617 148.54 289.617H150.093C150.375 289.617 150.516 289.758 150.516 290.04V290.887H148.117ZM148.117 293.145H150.939C151.222 293.145 151.363 292.722 151.363 292.581H148.54C148.258 292.581 148.117 292.44 148.117 292.157V291.028C148.117 291.169 148.258 291.452 148.54 291.452H151.504V290.04C151.504 289.476 151.222 289.052 150.375 289.052H148.117C147.411 289.052 146.988 289.335 146.988 290.04V292.016C147.129 292.581 147.552 293.145 148.117 293.145Z" fill="#EEEEEE"/>
<path d="M94.629 280.585L92.5121 284.113V286.371H91.8064V284.113L89.6895 280.585H90.5363L92.2298 283.407L93.9234 280.585H94.629ZM87.4314 285.665C87.7137 285.665 87.9959 285.524 88.1371 285.383C88.2782 285.242 88.4193 284.96 88.4193 284.677C88.4193 284.395 88.2782 284.113 88.1371 283.972C87.9959 283.831 87.7137 283.69 87.4314 283.69H85.879V285.524H87.4314V285.665ZM88.2782 282.137C88.2782 281.996 88.2782 281.855 88.1371 281.714C87.9959 281.573 87.9959 281.431 87.8548 281.431C87.7137 281.29 87.5726 281.29 87.4314 281.29H85.879V282.984H87.4314C87.7137 282.984 87.8548 282.843 88.1371 282.702C88.2782 282.702 88.2782 282.419 88.2782 282.137ZM88.2782 283.407C88.5605 283.548 88.7016 283.69 88.8427 283.972C88.9838 284.254 89.125 284.536 89.125 284.819C89.125 285.242 88.9838 285.665 88.5605 285.948C88.2782 286.23 87.8548 286.371 87.2903 286.371H85.0322V280.585H87.2903C87.7137 280.585 88.1371 280.726 88.4193 281.008C88.7016 281.29 88.8427 281.573 88.8427 281.996C88.8427 282.278 88.8427 282.561 88.7016 282.702C88.7016 283.125 88.5605 283.266 88.2782 283.407Z" fill="white"/>
<path d="M278.944 322.359H280.778V319.536H278.944C278.661 319.536 278.379 319.536 278.097 319.677C277.815 319.819 277.674 319.96 277.532 320.242C277.391 320.524 277.391 320.665 277.391 320.948C277.391 321.23 277.391 321.512 277.532 321.653C277.674 321.935 277.815 322.077 278.097 322.218C278.379 322.218 278.661 322.359 278.944 322.359ZM278.944 318.689H281.766V326.169H280.778V323.347H279.085L277.391 326.169H276.262L278.097 323.206C277.815 323.064 277.391 322.923 277.25 322.782C276.968 322.641 276.827 322.359 276.686 322.077C276.545 321.794 276.403 321.512 276.403 321.089C276.403 320.383 276.686 319.96 277.109 319.395C277.674 318.831 278.238 318.689 278.944 318.689ZM274.287 318.689H274.992V326.169H274.004V320.524L269.77 326.169H269.065V318.689H270.053V324.335L274.287 318.689ZM266.807 325.181H267.512V327.581H266.666V326.028H261.444V318.548H262.432V325.181H265.96V318.548H266.948V325.181H266.807ZM256.786 319.96L255.375 323.488H258.198L256.786 319.96ZM259.327 326.169L258.621 324.335H255.093L254.387 326.169H253.399L256.504 318.689H257.351L260.456 326.169H259.327ZM251.565 322.218C251.847 322.359 252.129 322.641 252.27 322.923C252.412 323.206 252.553 323.629 252.553 324.052C252.553 324.758 252.27 325.181 251.847 325.605C251.424 326.028 250.718 326.169 250.012 326.169C249.307 326.169 248.742 326.028 248.319 325.605C247.895 325.181 247.613 324.617 247.613 324.052H248.46C248.46 324.476 248.601 324.758 249.024 325.04C249.307 325.323 249.73 325.464 250.153 325.464C250.436 325.464 250.718 325.464 251 325.323C251.282 325.181 251.424 325.04 251.565 324.899C251.706 324.758 251.706 324.476 251.706 324.194C251.706 323.77 251.565 323.488 251.282 323.206C251 322.923 250.718 322.782 250.295 322.782H249.448V321.935H250.295C250.718 321.935 251 321.794 251.141 321.653C251.424 321.371 251.565 321.089 251.565 320.806C251.565 320.383 251.424 320.101 251.141 319.96C250.859 319.677 250.577 319.677 250.012 319.677C249.589 319.677 249.307 319.819 249.024 319.96C248.742 320.242 248.601 320.524 248.46 320.806H247.613C247.613 320.242 247.895 319.677 248.319 319.395C248.742 318.972 249.307 318.831 250.012 318.831C250.718 318.831 251.282 318.972 251.706 319.395C252.129 319.819 252.412 320.242 252.412 320.806C252.412 321.089 252.412 321.23 252.27 321.512C252.129 321.653 252.129 321.935 251.988 322.077C251.988 321.935 251.706 322.077 251.565 322.218ZM245.496 318.689H246.202V326.169H245.214V320.524L240.98 326.169H240.274V318.689H241.262V324.335L245.496 318.689ZM237.311 318.689H238.299V326.169H237.311V322.782H233.5V326.169H232.512V318.689H233.5V321.794H237.311V318.689ZM227.855 319.96L226.444 323.488H229.266L227.855 319.96ZM230.395 326.169L229.69 324.335H226.162L225.456 326.169H224.468L227.573 318.689H228.42L231.524 326.169H230.395ZM224.75 318.689V319.536H221.645V326.169H220.657V318.689H224.75ZM216.847 322.5C217.27 322.5 217.694 322.359 217.976 322.077C218.258 321.794 218.399 321.512 218.399 321.089C218.399 320.665 218.258 320.242 217.976 320.101C217.694 319.819 217.27 319.677 216.847 319.677H215.153V322.641H216.847V322.5ZM216.988 318.689C217.694 318.689 218.258 318.972 218.682 319.395C219.105 319.819 219.387 320.383 219.387 321.089C219.387 321.794 219.105 322.359 218.682 322.782C218.258 323.206 217.694 323.488 216.988 323.488H215.295V326.169H214.307V318.689H216.988ZM206.686 324.476C207.25 325.04 207.956 325.323 208.803 325.323C209.649 325.323 210.355 325.04 210.92 324.476C211.484 323.911 211.766 323.206 211.766 322.359C211.766 321.512 211.484 320.806 210.92 320.242C210.355 319.677 209.649 319.395 208.803 319.395C207.956 319.395 207.25 319.677 206.686 320.242C206.121 320.806 205.839 321.512 205.839 322.359C205.98 323.206 206.262 323.911 206.686 324.476ZM211.625 325.181C210.92 325.887 209.932 326.31 208.803 326.31C207.674 326.31 206.686 325.887 205.98 325.181C205.274 324.476 204.851 323.488 204.851 322.5C204.851 321.512 205.274 320.524 205.98 319.819C206.686 319.113 207.674 318.689 208.803 318.689C209.932 318.689 210.92 319.113 211.625 319.819C212.331 320.524 212.754 321.512 212.754 322.641C212.754 323.488 212.331 324.476 211.625 325.181ZM197.795 322.359H199.629V319.536H197.795C197.512 319.536 197.23 319.536 196.948 319.677C196.666 319.819 196.524 319.96 196.383 320.242C196.242 320.524 196.242 320.665 196.242 320.948C196.242 321.23 196.242 321.512 196.383 321.653C196.524 321.935 196.666 322.077 196.948 322.218C197.23 322.218 197.512 322.359 197.795 322.359ZM197.795 318.689H200.617V326.169H199.629V323.347H197.936L196.242 326.169H195.113L196.948 323.206C196.666 323.064 196.242 322.923 196.101 322.782C195.819 322.641 195.678 322.359 195.537 322.077C195.395 321.794 195.254 321.512 195.254 321.089C195.254 320.383 195.537 319.96 195.96 319.395C196.524 318.831 197.089 318.689 197.795 318.689ZM191.161 319.96L189.75 323.488H192.573L191.161 319.96ZM193.702 326.169L192.996 324.335H189.468L188.762 326.169H187.774L190.879 318.689H191.726L194.831 326.169H193.702ZM185.516 318.689H186.504V326.169H185.516V322.782H181.706V326.169H180.718V318.689H181.706V321.794H185.516V318.689ZM177.754 318.689H178.742V326.169H177.754V322.782H173.944V326.169H172.956V318.689H173.944V321.794H177.754V318.689ZM168.016 325.181H171.403V326.028H167.028V318.548H171.262V319.395H168.016V321.653H170.98V322.5H168.016V325.181ZM163.218 325.181C163.641 325.181 163.924 325.04 164.206 324.899C164.488 324.617 164.629 324.335 164.629 324.052C164.629 323.77 164.488 323.347 164.206 323.206C163.924 322.923 163.641 322.923 163.218 322.923H161.101V325.323H163.218V325.181ZM164.347 320.665C164.347 320.383 164.347 320.242 164.206 320.101C164.065 319.96 163.924 319.819 163.782 319.677C163.641 319.536 163.359 319.536 163.218 319.536H161.242V321.794H163.218C163.5 321.794 163.782 321.653 164.065 321.512C164.206 321.23 164.347 320.948 164.347 320.665ZM164.347 322.218C164.629 322.359 164.911 322.641 165.194 322.923C165.335 323.206 165.476 323.629 165.476 324.052C165.476 324.617 165.194 325.181 164.77 325.464C164.347 325.887 163.782 326.028 163.218 326.028H160.254V318.548H163.218C163.782 318.548 164.347 318.689 164.77 319.113C165.194 319.536 165.335 319.96 165.335 320.524C165.335 320.806 165.194 321.23 165.053 321.512C164.911 321.794 164.629 322.077 164.347 322.218ZM158.984 318.689V319.536H156.726V326.169H155.738V319.536H153.48V318.689H158.984ZM149.528 326.169C148.399 326.169 147.553 325.746 146.847 325.04C146.141 324.335 145.718 323.347 145.718 322.359C145.718 321.23 146.141 320.383 146.847 319.536C147.553 318.831 148.541 318.407 149.528 318.407C150.093 318.407 150.657 318.548 151.081 318.689C151.504 318.972 151.928 319.254 152.351 319.677C152.633 320.101 152.916 320.524 153.057 321.089H152.069C151.928 320.524 151.504 320.101 151.081 319.819C150.657 319.536 150.093 319.395 149.528 319.395C148.682 319.395 147.976 319.677 147.411 320.242C146.847 320.806 146.565 321.512 146.565 322.359C146.565 323.206 146.847 323.911 147.411 324.476C147.976 325.04 148.682 325.323 149.528 325.323C150.093 325.323 150.657 325.181 151.222 324.899C151.645 324.617 152.069 324.194 152.21 323.488H153.198C152.916 324.335 152.492 325.04 151.928 325.464C151.222 326.028 150.375 326.169 149.528 326.169ZM141.343 325.181H144.73V326.028H140.355V318.548H144.589V319.395H141.343V321.653H144.307V322.5H141.343V325.181ZM138.238 325.181H139.085V327.581H138.238V326.028H130.053V318.548H131.041V325.181H133.722V318.548H134.569V325.181H137.391V318.548H138.379V325.181H138.238ZM126.101 325.181C126.524 325.181 126.948 325.04 127.23 324.758C127.512 324.476 127.653 324.194 127.653 323.77C127.653 323.347 127.512 323.064 127.23 322.782C126.948 322.5 126.524 322.359 126.101 322.359H124.407V325.181H126.101ZM126.101 321.512C126.807 321.512 127.371 321.794 127.795 322.218C128.218 322.641 128.5 323.206 128.5 323.911C128.5 324.617 128.218 325.181 127.795 325.605C127.371 326.028 126.807 326.31 126.101 326.31H123.42V318.831H127.936V319.677H124.266V321.653H126.101V321.512ZM115.94 324.476C116.504 325.04 117.21 325.323 118.057 325.323C118.903 325.323 119.609 325.04 120.174 324.476C120.738 323.911 121.02 323.206 121.02 322.359C121.02 321.512 120.738 320.806 120.174 320.242C119.609 319.677 118.903 319.395 118.057 319.395C117.21 319.395 116.504 319.677 115.94 320.242C115.375 320.806 115.093 321.512 115.093 322.359C115.093 323.206 115.375 323.911 115.94 324.476ZM120.738 325.181C120.032 325.887 119.045 326.31 117.916 326.31C116.786 326.31 115.799 325.887 115.093 325.181C114.387 324.476 113.964 323.488 113.964 322.5C113.964 321.512 114.387 320.524 115.093 319.819C115.799 319.113 116.786 318.689 117.916 318.689C119.045 318.689 120.032 319.113 120.738 319.819C121.444 320.524 121.867 321.512 121.867 322.641C121.867 323.488 121.585 324.476 120.738 325.181ZM106.907 322.359H108.742V319.536H106.907C106.625 319.536 106.343 319.536 106.061 319.677C105.778 319.819 105.637 319.96 105.496 320.242C105.355 320.524 105.355 320.665 105.355 320.948C105.355 321.23 105.355 321.512 105.496 321.653C105.637 321.935 105.778 322.077 106.061 322.218C106.343 322.218 106.625 322.359 106.907 322.359ZM106.907 318.689H109.73V326.169H108.742V323.347H107.049L105.355 326.169H104.226L106.061 323.206C105.778 323.064 105.355 322.923 105.214 322.782C104.932 322.641 104.791 322.359 104.649 322.077C104.508 321.794 104.367 321.512 104.367 321.089C104.367 320.383 104.649 319.96 105.073 319.395C105.637 318.831 106.202 318.689 106.907 318.689ZM100.274 319.96L98.8631 323.488H101.686L100.274 319.96ZM102.815 326.169L102.109 324.335H98.5808L97.8752 326.169H96.8873L99.9921 318.689H100.839L103.944 326.169H102.815ZM95.3349 326.169L92.6534 322.782H91.6655V326.169H90.6776V318.689H91.6655V321.794H92.6534L95.0526 318.689H96.3228L93.6413 322.218L96.605 326.028H95.3349V326.169ZM85.8792 326.169C84.7502 326.169 83.9034 325.746 83.1978 325.04C82.4921 324.335 82.0687 323.347 82.0687 322.359C82.0687 321.23 82.4921 320.383 83.1978 319.536C83.9034 318.831 84.8913 318.407 85.8792 318.407C86.4437 318.407 87.0083 318.548 87.4316 318.689C87.855 318.972 88.2784 319.254 88.7018 319.677C88.9841 320.101 89.2663 320.524 89.4074 321.089H88.4195C88.2784 320.524 87.855 320.101 87.4316 319.819C87.0083 319.536 86.4437 319.395 85.8792 319.395C85.0324 319.395 84.3268 319.677 83.7623 320.242C83.1978 320.806 82.9155 321.512 82.9155 322.359C82.9155 323.206 83.1978 323.911 83.7623 324.476C84.3268 325.04 85.0324 325.323 85.8792 325.323C86.4437 325.323 87.0083 325.181 87.5728 324.899C87.9962 324.617 88.4195 324.194 88.5607 323.488H89.5486C89.2663 324.335 88.8429 325.04 88.2784 325.464C87.5728 326.028 86.8671 326.169 85.8792 326.169ZM77.8349 325.181H81.222V326.028H76.847V318.548H81.0808V319.395H77.8349V321.653H80.7986V322.5H77.8349V325.181ZM73.8833 318.689H74.8712V326.169H73.8833V323.206C73.3187 323.488 72.7542 323.488 72.1897 323.488C71.3429 323.488 70.7784 323.206 70.355 322.782C69.9316 322.359 69.6494 321.653 69.6494 320.806V318.689H70.6373V320.806C70.6373 321.371 70.7784 321.794 71.0607 322.077C71.3429 322.359 71.7663 322.5 72.3308 322.5C72.7542 322.5 73.3187 322.359 74.0244 322.077V318.689H73.8833ZM66.2623 322.5C66.6857 322.5 67.1091 322.359 67.3913 322.077C67.6736 321.794 67.8147 321.512 67.8147 321.089C67.8147 320.665 67.6736 320.242 67.3913 320.101C67.1091 319.819 66.6857 319.677 66.2623 319.677H64.5687V322.641H66.2623V322.5ZM66.2623 318.689C66.9679 318.689 67.5325 318.972 67.9558 319.395C68.3792 319.819 68.6615 320.383 68.6615 321.089C68.6615 321.794 68.3792 322.359 67.9558 322.782C67.5325 323.206 66.9679 323.488 66.2623 323.488H64.5687V326.169H63.5808V318.689H66.2623ZM58.6413 325.181H62.0284V326.028H57.6534V318.548H61.8873V319.395H58.6413V321.653H61.605V322.5H58.6413V325.181ZM56.2421 326.169H55.2542L54.2663 320.383L51.726 326.028H51.4437L48.9034 320.383L47.9155 326.169H46.9276L48.1978 318.689H49.0445L51.4437 324.194L53.8429 318.689H54.6897L56.2421 326.169ZM46.0808 326.169H45.0929L44.105 320.383L41.5647 326.028H41.2824L38.7421 320.383L37.7542 326.169H36.7663L38.0365 318.689H38.8833L41.2824 324.194L43.6816 318.689H44.5284L46.0808 326.169ZM29.9921 324.476C30.5566 325.04 31.2623 325.323 32.1091 325.323C32.9558 325.323 33.6615 325.04 34.226 324.476C34.7905 323.911 35.0728 323.206 35.0728 322.359C35.0728 321.512 34.7905 320.806 34.226 320.242C33.6615 319.677 32.9558 319.395 32.1091 319.395C31.2623 319.395 30.5566 319.677 29.9921 320.242C29.4276 320.806 29.1454 321.512 29.1454 322.359C29.1454 323.206 29.4276 323.911 29.9921 324.476ZM34.7905 325.181C34.0849 325.887 33.097 326.31 31.9679 326.31C30.8389 326.31 29.851 325.887 29.1454 325.181C28.4397 324.476 28.0163 323.488 28.0163 322.5C28.0163 321.512 28.4397 320.524 29.1454 319.819C29.851 319.113 30.8389 318.689 31.9679 318.689C33.097 318.689 34.0849 319.113 34.7905 319.819C35.4962 320.524 35.9195 321.512 35.9195 322.641C35.9195 323.488 35.4962 324.476 34.7905 325.181ZM26.7462 326.169L24.0647 322.782H23.0768V326.169H22.0889V318.689H23.0768V321.794H24.0647L26.4639 318.689H27.5929L24.9115 322.218L27.8752 326.028H26.7462V326.169ZM17.2905 325.181H20.6776V326.028H16.4437V318.548H20.6776V319.395H17.2905V321.653H20.2542V322.5H17.2905V325.181ZM13.48 318.689H14.4679V326.169H13.48V322.782H9.52841V326.169H8.68164V318.689H9.66954V321.794H13.48V318.689Z" fill="#100E0A"/>
<path d="M264.548 343.811L266.806 350.02V366.25H274.569V350.02H278.379V354.254L284.589 352.278C285.435 351.855 286 350.867 286 350.02V343.952H264.548V343.811ZM240.556 366.109H254.952C257.492 366.109 259.891 363.286 260.173 360.746L262.29 343.811H254.528L253.399 351.855H249.73C249.165 351.855 248.601 351.432 248.46 351.008L246.625 343.811H237.875L240.133 350.02L241.403 355.101C241.686 356.371 243.238 357.5 244.508 357.5H250.577C251.565 357.5 252.129 356.936 252.552 355.948L252.835 355.383H253.117L252.552 358.629C252.411 359.335 251.565 360.182 250.859 360.182H245.778C244.367 360.182 242.532 361.028 242.109 362.298L240.556 366.109ZM223.621 355.665V348.891H228.137C228.278 348.891 228.419 349.032 228.419 349.173L227.714 355.383C227.714 355.524 227.573 355.665 227.431 355.665H223.621ZM215.718 349.879V366.109H223.48V358.77H223.621L224.044 360.04C224.185 360.605 225.032 361.028 225.597 361.028H232.23C233.5 361.028 234.911 359.758 235.052 358.629L236.887 346.492C237.028 345.363 235.617 343.952 234.488 343.952H213.601L215.718 349.879ZM194.972 359.899L196.948 349.173H201.746V359.899H194.972ZM191.585 369.778C192.431 369.355 192.996 368.367 192.996 367.52V366.109H204.851V371.895L211.061 369.919C211.907 369.496 212.472 368.508 212.472 367.661V360.182H209.649V343.952H187.915L190.173 350.161L188.339 360.182H185.375V372.036L191.585 369.778ZM164.206 340.565C165.194 340.565 166.181 339.577 166.181 338.589V334.637H162.23V336.331C162.23 336.613 161.948 336.754 161.806 336.754H155.879C155.597 336.754 155.456 336.472 155.456 336.331V334.637H151.504V338.589C151.504 339.436 152.492 340.565 153.48 340.565H164.206ZM153.48 366.109C155.173 366.109 157.008 364.698 157.855 363.145L163.5 353.69V366.109H171.262V343.811H165.617C163.359 343.811 161.948 345.222 161.101 346.774L155.456 356.23V343.811H145.435L147.694 350.02V366.25H153.48V366.109ZM132.875 343.811L135.133 350.02V366.25H142.895V343.952H132.875V343.811ZM123.278 355.101C123.419 355.101 123.419 355.383 123.419 355.383L122.996 359.476C122.996 359.617 122.855 359.758 122.714 359.758H117.492V354.96H123.278V355.101ZM107.331 343.811L109.589 350.02V366.25H127.371C128.641 366.25 130.194 364.98 130.335 363.569L131.887 352.137C131.887 350.726 131.04 350.02 130.052 350.02H119.609C119.044 350.02 118.198 350.303 118.056 351.008L117.492 352.702V343.952H107.331V343.811ZM97.0282 351.855H90.3952V343.811H80.375L82.6331 350.02V366.25H90.3952V354.96H90.5363L90.6774 355.948C90.8186 357.218 91.1008 358.065 92.371 358.065H97.0282V366.109H104.79V343.811H97.0282V351.855ZM65.8387 355.665V348.891H70.3548C70.496 348.891 70.6371 349.032 70.6371 349.173L69.9315 355.383C69.9315 355.524 69.7903 355.665 69.6492 355.665H65.8387ZM57.9355 349.879V366.109H65.6976V358.77H65.8387L66.2621 360.04C66.4032 360.605 67.25 361.028 67.8145 361.028H74.4476C75.7177 361.028 77.129 359.758 77.2702 358.629L79.1048 346.492C79.246 345.363 77.8347 343.952 76.7056 343.952H55.8186L57.9355 349.879ZM34.7903 349.879V366.109H54.5484L52.996 362.016C52.5726 360.887 51.5847 360.605 51.0202 360.605H42.4113V355.807L42.9758 356.653C43.2581 356.936 43.6815 357.359 43.9637 357.359H48.4798C49.1855 357.359 49.8911 357.077 50.1734 356.371L51.5847 352.561H42.4113V349.315H51.1613C51.8669 349.315 52.4315 348.891 52.8548 348.327L54.5484 343.811H32.5323L34.7903 349.879ZM16.0202 352.419V348.891H20.9597C21.1008 348.891 21.1008 349.032 21.1008 349.173L20.5363 351.996C20.5363 352.137 20.3952 352.278 20.254 352.278H16.0202V352.419ZM16.0202 355.101C16.1613 355.242 16.4435 356.089 16.7258 356.23C17.1492 356.512 17.5726 356.794 18.1371 356.794H22.9355C23.0766 356.794 23.0766 356.936 23.0766 357.077L22.6532 360.323C22.6532 360.464 22.5121 360.605 22.371 360.605H16.0202V355.101ZM8.25806 348.75V366.109H26.6048C27.875 366.109 29.4274 364.839 29.5686 363.569L30.8387 355.807C30.8387 354.395 29.9919 353.69 29.004 353.69H26.0403C26.8871 353.407 28.1573 352.419 28.2984 351.573L29.5686 345.928C29.5686 344.516 28.7218 343.811 27.7339 343.811H6L8.25806 348.75Z" fill="#100E0A"/>
</g>
<defs>
<linearGradient id="paint0_linear_54_4405" x1="200.938" y1="101.054" x2="89.4456" y2="267.233" gradientUnits="userSpaceOnUse">
<stop stop-color="#FAE5CE"/>
<stop offset="0.17" stop-color="#F3A1AC"/>
<stop offset="0.41" stop-color="#E23B86"/>
<stop offset="0.54" stop-color="#944091"/>
<stop offset="0.81" stop-color="#514194"/>
<stop offset="1" stop-color="#326FB6"/>
</linearGradient>
<linearGradient id="paint1_linear_54_4405" x1="95.4158" y1="63.2763" x2="94.3291" y2="96.2582" gradientUnits="userSpaceOnUse">
<stop stop-color="#FAF7EF"/>
<stop offset="1" stop-color="#E6488F"/>
</linearGradient>
<linearGradient id="paint2_linear_54_4405" x1="100.419" y1="78.7913" x2="100.348" y2="91.987" gradientUnits="userSpaceOnUse">
<stop stop-color="#F3A0A2"/>
<stop offset="1" stop-color="#CF4592"/>
</linearGradient>
<linearGradient id="paint3_linear_54_4405" x1="101.205" y1="100.509" x2="190.215" y2="184.904" gradientUnits="userSpaceOnUse">
<stop stop-color="#D2EBFB"/>
<stop offset="1" stop-color="white"/>
</linearGradient>
<linearGradient id="paint4_linear_54_4405" x1="70.7817" y1="103.824" x2="78.6144" y2="113.83" gradientUnits="userSpaceOnUse">
<stop stop-color="#FFFBE2"/>
<stop offset="1" stop-color="white"/>
</linearGradient>
<linearGradient id="paint5_linear_54_4405" x1="91.8021" y1="105.725" x2="95.7396" y2="119.245" gradientUnits="userSpaceOnUse">
<stop stop-color="#FFFBE2"/>
<stop offset="1" stop-color="white"/>
</linearGradient>
<linearGradient id="paint6_linear_54_4405" x1="99.0686" y1="104.147" x2="101.143" y2="116.764" gradientUnits="userSpaceOnUse">
<stop stop-color="#FFFBE2"/>
<stop offset="1" stop-color="white"/>
</linearGradient>
<linearGradient id="paint7_linear_54_4405" x1="138.479" y1="87.0728" x2="161.779" y2="86.466" gradientUnits="userSpaceOnUse">
<stop stop-color="#5EB9E0"/>
<stop offset="1" stop-color="#772B87"/>
</linearGradient>
<linearGradient id="paint8_linear_54_4405" x1="118.254" y1="122.02" x2="137.603" y2="154.352" gradientUnits="userSpaceOnUse">
<stop stop-color="#77AEDF"/>
<stop offset="1" stop-color="#493B90"/>
</linearGradient>
<linearGradient id="paint9_linear_54_4405" x1="214.513" y1="225.951" x2="218.182" y2="239.231" gradientUnits="userSpaceOnUse">
<stop stop-color="#FFFDF2"/>
<stop offset="1" stop-color="white"/>
</linearGradient>
<linearGradient id="paint10_linear_54_4405" x1="212.16" y1="227.356" x2="215.011" y2="239.761" gradientUnits="userSpaceOnUse">
<stop stop-color="#FFFDF2"/>
<stop offset="1" stop-color="white"/>
</linearGradient>
<linearGradient id="paint11_linear_54_4405" x1="199.807" y1="229.716" x2="200.766" y2="238.777" gradientUnits="userSpaceOnUse">
<stop stop-color="#FFFDF2"/>
<stop offset="1" stop-color="white"/>
</linearGradient>
<linearGradient id="paint12_linear_54_4405" x1="204.757" y1="231.053" x2="205.265" y2="239.45" gradientUnits="userSpaceOnUse">
<stop stop-color="#FFFDF2"/>
<stop offset="1" stop-color="white"/>
</linearGradient>
<linearGradient id="paint13_linear_54_4405" x1="200.751" y1="230.679" x2="204.9" y2="244.792" gradientUnits="userSpaceOnUse">
<stop stop-color="#FFFDF2"/>
<stop offset="1" stop-color="white"/>
</linearGradient>
<linearGradient id="paint14_linear_54_4405" x1="192.511" y1="236.427" x2="211.676" y2="247.124" gradientUnits="userSpaceOnUse">
<stop stop-color="#FFFDF2"/>
<stop offset="1" stop-color="white"/>
</linearGradient>
<linearGradient id="paint15_linear_54_4405" x1="192.58" y1="240.083" x2="213.368" y2="245.841" gradientUnits="userSpaceOnUse">
<stop stop-color="#FFFDF2"/>
<stop offset="1" stop-color="white"/>
</linearGradient>
<clipPath id="clip0_54_4405">
<rect width="280" height="311.754" fill="white" transform="translate(6 60)"/>
</clipPath>
</defs>
</svg>
