<svg xmlns="http://www.w3.org/2000/svg" viewBox="0 0 83.94 57.1"><defs><style>.cls-1{fill:#df6c3f;}.cls-2{fill:#ef954d;}.cls-3{fill:#f2ab51;}</style></defs><g id="Слой_2" data-name="Слой 2"><g id="Слой_1-2" data-name="Слой 1"><path class="cls-1" d="M73.76,1.3l10.18,40C80.21,44.53,63.72,58,39.28,57.05A65.43,65.43,0,0,1,0,41.71,65.56,65.56,0,0,1,26.9,9.25C47.89-3.48,68.94.31,73.76,1.3Z"/><path class="cls-2" d="M74.66,5.93l7.8,30.66C79.6,39,67,49.34,48.26,48.62A50,50,0,0,1,18.18,36.87,50.17,50.17,0,0,1,38.78,12C54.85,2.27,71,5.17,74.66,5.93Z"/><path class="cls-3" d="M76.46,11.68,81.26,32a33.35,33.35,0,0,1-22.72,7.57,33.13,33.13,0,0,1-19.74-8.1A33.11,33.11,0,0,1,52.69,15.29,33.42,33.42,0,0,1,76.46,11.68Z"/></g></g></svg>