<svg xmlns="http://www.w3.org/2000/svg" xmlns:xlink="http://www.w3.org/1999/xlink" viewBox="0 0 432.5 318.42"><defs><style>.cls-1{fill:none;}.cls-2{clip-path:url(#clip-path);}.cls-3{fill:#410099;}</style><clipPath id="clip-path" transform="translate(-19.69 -72.04)"><rect class="cls-1" width="463" height="463"/></clipPath></defs><g id="Слой_2" data-name="Слой 2"><g id="Слой_1-2" data-name="Слой 1"><g class="cls-2"><path class="cls-3" d="M230,83.46c-60.1,0-109,39.7-109,88.5,0,46.06,43.57,84,99,88.12V246c-47.7-3.93-85-35.65-85-74.08,0-41.08,42.62-74.5,95-74.5s95,33.42,95,74.5c0,38.43-37.3,70.15-85,74.08v14C295.45,256,339,218,339,172,339,123.16,290.12,83.46,230,83.46Z" transform="translate(-19.69 -72.04)"/><path class="cls-3" d="M215,257.46a4,4,0,0,1-4-4V235.59h-4.83a4,4,0,0,1-4-4V207.42a4,4,0,0,1,4-4H253a4,4,0,0,1,4,4v24a4,4,0,0,1-4,4h-4.87v17a4,4,0,1,1-8,0v-21a4,4,0,0,1,4-4H249v-16H210.19v16.17H215a4,4,0,0,1,4,4v21.87A4,4,0,0,1,215,257.46Z" transform="translate(-19.69 -72.04)"/><path class="cls-3" d="M259,195a19.5,19.5,0,1,1,19.5-19.5A19.53,19.53,0,0,1,259,195Zm0-31a11.5,11.5,0,1,0,11.5,11.5A11.51,11.51,0,0,0,259,164Z" transform="translate(-19.69 -72.04)"/><path class="cls-3" d="M201,195a19.5,19.5,0,1,1,19.5-19.5A19.53,19.53,0,0,1,201,195Zm0-31a11.5,11.5,0,1,0,11.5,11.5A11.51,11.51,0,0,0,201,164Z" transform="translate(-19.69 -72.04)"/><path class="cls-3" d="M332.07,122.18,294.78,88.45l1.82-3.15A26.49,26.49,0,1,1,335,120.05ZM306.49,86.9l25.95,23.48A17.5,17.5,0,1,0,306.49,86.9Z" transform="translate(-19.69 -72.04)"/><path class="cls-3" d="M128,122.18l-3-2.13A26.49,26.49,0,1,1,163.44,85.3l1.82,3.15ZM140.47,81a17.51,17.51,0,0,0-12.87,29.34l26-23.48a17.41,17.41,0,0,0-12.19-5.83Q140.92,81,140.47,81Z" transform="translate(-19.69 -72.04)"/><path class="cls-3" d="M310.19,390.46H151a4,4,0,0,1-3.93-4.76l24-124a4,4,0,0,1,5.8-2.78A117.4,117.4,0,0,0,231,272.46h.45a117.68,117.68,0,0,0,52.73-12.57,4,4,0,0,1,5.72,2.8l24.2,123a4,4,0,0,1-3.93,4.77Zm-154.34-8H305.33L283.07,269.29a125.59,125.59,0,0,1-51.61,11.17H231a125.54,125.54,0,0,1-53-12.07Z" transform="translate(-19.69 -72.04)"/><path class="cls-3" d="M340,286.29a117.48,117.48,0,0,1-27-4.55,7,7,0,0,0-3.66-.07l2.93,14.38A131.65,131.65,0,0,0,340,300.3Z" transform="translate(-19.69 -72.04)"/><path class="cls-3" d="M424.64,265.31a7,7,0,0,0-9.78-1.49,117.25,117.25,0,0,1-48.12,20.75c-3,.54-5.89.95-8.74,1.25v14.06q5.65-.53,11.26-1.54a131.25,131.25,0,0,0,53.88-23.24A7,7,0,0,0,424.64,265.31Z" transform="translate(-19.69 -72.04)"/><path class="cls-3" d="M123,286.29a117.48,117.48,0,0,0,27-4.55,7,7,0,0,1,3.66-.07l-2.93,14.38A131.65,131.65,0,0,1,123,300.3Z" transform="translate(-19.69 -72.04)"/><path class="cls-3" d="M38.36,265.31a7,7,0,0,1,9.78-1.49,117.25,117.25,0,0,0,48.12,20.75c3,.54,5.89.95,8.74,1.25v14.06q-5.66-.53-11.26-1.54A131.25,131.25,0,0,1,39.86,275.1,7,7,0,0,1,38.36,265.31Z" transform="translate(-19.69 -72.04)"/><path class="cls-3" d="M40.19,215.23a7,7,0,0,1-4.95-2l-13.5-13.5a7,7,0,0,1,9.9-9.9l13.5,13.5a7,7,0,0,1-5,11.95Z" transform="translate(-19.69 -72.04)"/><path class="cls-3" d="M73.19,247.23a7,7,0,0,1-5-2l-13.5-13.5a7,7,0,0,1,9.9-9.9l13.5,13.5a7,7,0,0,1-5,11.95Z" transform="translate(-19.69 -72.04)"/><path class="cls-3" d="M59.19,214.73a7,7,0,0,1-4.95-11.95l13.5-13.5a7,7,0,0,1,9.9,9.9l-13.5,13.5A7,7,0,0,1,59.19,214.73Z" transform="translate(-19.69 -72.04)"/><path class="cls-3" d="M27.19,247.73a7,7,0,0,1-5-11.95l13.5-13.5a7,7,0,0,1,9.9,9.9l-13.5,13.5A7,7,0,0,1,27.19,247.73Z" transform="translate(-19.69 -72.04)"/><path class="cls-3" d="M412.19,215.23a7,7,0,0,1-4.95-2l-13.5-13.5a7,7,0,0,1,9.9-9.9l13.5,13.5a7,7,0,0,1-4.95,11.95Z" transform="translate(-19.69 -72.04)"/><path class="cls-3" d="M445.19,247.23a7,7,0,0,1-4.95-2l-13.5-13.5a7,7,0,0,1,9.9-9.9l13.5,13.5a7,7,0,0,1-4.95,11.95Z" transform="translate(-19.69 -72.04)"/><path class="cls-3" d="M431.19,214.73a7,7,0,0,1-4.95-11.95l13.5-13.5a7,7,0,0,1,9.9,9.9l-13.5,13.5A7,7,0,0,1,431.19,214.73Z" transform="translate(-19.69 -72.04)"/><path class="cls-3" d="M399.19,247.73a7,7,0,0,1-4.95-11.95l13.5-13.5a7,7,0,0,1,9.9,9.9l-13.5,13.5A7,7,0,0,1,399.19,247.73Z" transform="translate(-19.69 -72.04)"/></g></g></g></svg>