<svg xmlns="http://www.w3.org/2000/svg" xmlns:xlink="http://www.w3.org/1999/xlink" viewBox="0 0 260.01 234.01"><defs><style>.cls-1{fill:none;}.cls-2{clip-path:url(#clip-path);}.cls-3{fill:#410099;}</style><clipPath id="clip-path" transform="translate(-101.49 -114.49)"><rect class="cls-1" width="463" height="463"/></clipPath></defs><g id="Слой_2" data-name="Слой 2"><g id="Слой_1-2" data-name="Слой 1"><g class="cls-2"><path class="cls-3" d="M361.49,253.76a32.56,32.56,0,0,0-26-30.51V206.49a7,7,0,0,0-.06-.91,105.13,105.13,0,0,0-103.85-91.09h-.05a105.11,105.11,0,0,0-103.9,91.09,7,7,0,0,0-.06.91v16.76a32.19,32.19,0,0,0,0,63.19v2.69a2,2,0,0,0,0,.25,48.28,48.28,0,0,0,2.34,13.29c3.87,11.86,11.4,18.85,16.89,23.95,12.05,11.19,25.69,18.18,40.56,20.77a75.47,75.47,0,0,0,12.92,1.12l1.35,0h58.07a84.68,84.68,0,0,0,12-1.09,86.75,86.75,0,0,0,44.65-21.79c4.88-4.55,11.58-10.8,15.75-21.59a51,51,0,0,0,3.38-16.29c0-.1,0-.2,0-.3v-1A32.59,32.59,0,0,0,361.49,253.76Zm-246,.47a18.41,18.41,0,0,1,12-16.46v34.15A18.45,18.45,0,0,1,115.5,254.23Zm206,33A37.18,37.18,0,0,1,319,299c-3,7.8-7.92,12.37-12.24,16.41a72.56,72.56,0,0,1-37.35,18.2,69.31,69.31,0,0,1-9.95.91H201.41a61.42,61.42,0,0,1-11.66-.9c-12.16-2.12-23.41-7.92-33.44-17.24-4.86-4.5-10.36-9.62-13.11-18a34.6,34.6,0,0,1-1.66-9.32V207a91.13,91.13,0,0,1,63.53-74.49l.24,0c4.5.15,18.3,2.16,28,9.56,5.19,4,17.08,14.6,15.32,27.5a22.92,22.92,0,0,1-9.11,15.23,21.52,21.52,0,0,1-9.11,3.65l-.23,0a13.54,13.54,0,0,1-15.75-10.35,13,13,0,0,1,2.19-10.05,13.46,13.46,0,0,1,9-5.66,7,7,0,1,0-2.15-13.83,27.65,27.65,0,0,0-18.34,11.47,27.07,27.07,0,0,0,22.42,42.68,27.74,27.74,0,0,0,5.17-.49,35.26,35.26,0,0,0,14.86-6,36.9,36.9,0,0,0,14.9-24.77c2.75-20.18-13.55-35.05-20.69-40.51-1-.75-2-1.45-3-2.13A91.11,91.11,0,0,1,321.46,207Zm14-15.35V237.77a18.12,18.12,0,0,1,0,34.15Z" transform="translate(-101.49 -114.49)"/><path class="cls-3" d="M252.36,272.15a30.26,30.26,0,0,1-41.72,0,6,6,0,0,0-8.28,8.69,42.27,42.27,0,0,0,58.28,0,6,6,0,0,0-8.28-8.69Z" transform="translate(-101.49 -114.49)"/><circle class="cls-3" cx="76.51" cy="144" r="10.5"/><circle class="cls-3" cx="183.51" cy="144" r="10.5"/></g></g></g></svg>