<svg xmlns="http://www.w3.org/2000/svg" xmlns:xlink="http://www.w3.org/1999/xlink" viewBox="0 0 334.18 342.92"><defs><style>.cls-1{fill:none;}.cls-2{clip-path:url(#clip-path);}.cls-3{fill:#410099;}</style><clipPath id="clip-path" transform="translate(-64.41 -60.04)"><rect class="cls-1" width="463" height="463"/></clipPath></defs><g id="Слой_2" data-name="Слой 2"><g id="Слой_1-2" data-name="Слой 1"><g class="cls-2"><path class="cls-3" d="M242.11,326.22A20.84,20.84,0,0,0,212,299.13,7.47,7.47,0,0,0,211,300l-10.43,10.43,17.24-83.06c0-.14,0-.28.07-.43a20.37,20.37,0,0,0-13.06-22.08,19.77,19.77,0,0,0-11.92-.44,20.4,20.4,0,0,0-11.55-17.34c-9.22-4.2-20.52-.35-26.09,8.75a19.94,19.94,0,0,0-2.64-1.63c-9.68-4.9-22.23-1-28.57,9a7,7,0,0,0-.93,2.23l-1.38,6.11a19.75,19.75,0,0,0-4.45-1.83A20.37,20.37,0,0,0,95.12,218a7,7,0,0,0-.94,2L91,231.17c-5.83,20.34-10.24,35.73-15.31,53.35l-.11.38c-6.64,23.11-11,38.37-11.16,59.52A161.18,161.18,0,0,0,67,374.21,7,7,0,0,0,80.8,371.7a147.1,147.1,0,0,1-2.39-27.2c.11-19.21,4.07-33,10.62-55.73l.11-.38c5.07-17.63,9.48-33,15.31-53.36l2.82-9.86a6.39,6.39,0,0,1,6.3-2,6.26,6.26,0,0,1,4.15,3.9l-10.65,49.37a7,7,0,0,0,13.67,3l15.7-69.66c2.82-3.61,7.15-4.48,9.81-3.14a7.54,7.54,0,0,1,3.59,5.83l-15.77,74a7,7,0,0,0,13.67,3l19.73-86.85c2.11-3,5.73-3.88,8-2.83a6.48,6.48,0,0,1,3.38,5.54l-16.84,84.21a7,7,0,0,0,13.68,3L192.53,221A6.13,6.13,0,0,1,204,224.79L182.06,330.53a7,7,0,0,0,11.8,6.38l26.43-26.43a6.82,6.82,0,0,1,9.72,8.6l-61.37,70.27a7,7,0,1,0,10.54,9.21l62-71A7.29,7.29,0,0,0,242.11,326.22Z" transform="translate(-64.41 -60.04)"/><path class="cls-3" d="M396.83,321.88c-2.84-18.3-8.47-30.95-23.52-64.77-7.09-15.92-14.35-32.18-21-47.07-4.68-10.21-16.46-14.9-26.26-10.46a18.56,18.56,0,0,0-5.8,4.14l-1.84-4.44a7.56,7.56,0,0,0-.73-1.34,20.53,20.53,0,0,0-24.42-7.45,19.43,19.43,0,0,0-5.86,3.79c-4.71-8.23-14.39-12.52-23.31-10.07a20.25,20.25,0,0,0-12.36,10,21.59,21.59,0,0,0-2.2,13.88A19.75,19.75,0,0,0,238.26,211,20.13,20.13,0,0,0,229,230.89a7.32,7.32,0,0,0,.36,1.45l33.5,92.34a7,7,0,0,0-1.72,11.37,109,109,0,0,0,11.76,9.63c5.14,3.62,8.53,6,13.54,7.11a25.16,25.16,0,0,0,5.43.59,30.61,30.61,0,0,0,13.05-3.09,7,7,0,0,0-6-12.67c-4.29,2-7.54,1.93-9.52,1.5s-3.77-1.57-8.46-4.88c-.4-.28-.79-.58-1.19-.87a7,7,0,0,0-.27-3.8L242.8,228.41a5.83,5.83,0,0,1,9.29-5.19l28.34,69.38a7,7,0,0,0,13.05-5.07l-30-80.87a7.44,7.44,0,0,1,.53-5.8,6.19,6.19,0,0,1,3.71-3.15,6.92,6.92,0,0,1,7.7,4l31.91,83.76a7,7,0,0,0,13.15-4.81L295,208.09a6.24,6.24,0,0,1,3.56-4.67,6.46,6.46,0,0,1,7.2,2.05l28.65,69.17a7,7,0,0,0,13.05-5.09l-18.73-51.26a6,6,0,0,1,3-6c2.4-1.09,6.17.1,7.72,3.49,6.66,14.83,13.92,31.08,21,47C376,297.55,380.55,308.27,383,324a136.6,136.6,0,0,1,.95,34.25,7,7,0,0,0,6.3,7.64,5.17,5.17,0,0,0,.68,0,7,7,0,0,0,7-6.33A151.68,151.68,0,0,0,396.83,321.88Z" transform="translate(-64.41 -60.04)"/><path class="cls-3" d="M347.06,333.22c-9.66-10.5-12.82-13.12-16.65-15.33-7.4-4.26-16.05-6.26-25.74-5.93a7,7,0,0,0,.24,14h.24c7-.25,13.17,1.13,18.26,4.07,2.1,1.21,4.28,2.82,13.35,12.68,5,5.45,10,11.1,14.81,16.78a7,7,0,0,0,10.69-9C357.33,344.61,352.22,338.82,347.06,333.22Z" transform="translate(-64.41 -60.04)"/><path class="cls-3" d="M289.1,376.25a165.15,165.15,0,0,0-38.64-31.33,7,7,0,0,0-7.1,12.07,149.17,149.17,0,0,1,46.83,43,7,7,0,0,0,11.45-8.05A165,165,0,0,0,289.1,376.25Z" transform="translate(-64.41 -60.04)"/><path class="cls-3" d="M236.93,156.46a7,7,0,0,0,7,6.5l.51,0a7,7,0,0,0,6.48-7.48l-6.37-88.92a7,7,0,0,0-14,1Z" transform="translate(-64.41 -60.04)"/><path class="cls-3" d="M281.31,169.46a7,7,0,0,0,9.1-3.9l12-30a7,7,0,1,0-13-5.2l-12,30A7,7,0,0,0,281.31,169.46Z" transform="translate(-64.41 -60.04)"/><path class="cls-3" d="M199.62,172a7,7,0,0,0,12.58-6.14l-20-41A7,7,0,1,0,179.62,131Z" transform="translate(-64.41 -60.04)"/></g></g></g></svg>