<svg xmlns="http://www.w3.org/2000/svg" xmlns:xlink="http://www.w3.org/1999/xlink" viewBox="0 0 235 262.09"><defs><style>.cls-1{fill:none;}.cls-2{clip-path:url(#clip-path);}.cls-3{fill:#410099;}</style><clipPath id="clip-path" transform="translate(-114 -100.45)"><rect class="cls-1" width="463" height="463"/></clipPath></defs><g id="Слой_2" data-name="Слой 2"><g id="Слой_1-2" data-name="Слой 1"><g class="cls-2"><path class="cls-3" d="M349,257a8,8,0,0,0,0-1,31.28,31.28,0,0,0-6.45-16.74A31.93,31.93,0,0,0,325,228V145.52a6.19,6.19,0,0,0-.08-1.05c-.41-2.68-3.13-16.45-16.51-24a33.86,33.86,0,0,0-27.1-2.51c-52.23-24.8-104.26-23.11-133.19,4.54a75.5,75.5,0,0,0-18.74,29.66l-9,23.95a7,7,0,0,0,9.53,8.79l7-3.31v46.73a31.83,31.83,0,0,0-16.53,10.95A31.28,31.28,0,0,0,114,256a8,8,0,0,0,0,1,31.81,31.81,0,0,0,24,29.12,96.15,96.15,0,0,0,30.17,52.37,94.52,94.52,0,0,0,60.61,24.08c.71,0,1.41,0,2.12,0a94.42,94.42,0,0,0,61.17-22.7,96,96,0,0,0,31.8-53.53A31.85,31.85,0,0,0,349,257ZM301.55,132.61c7.18,4.08,9.09,11.46,9.49,13.52v65.5a23.66,23.66,0,0,1-12-3.26C287.09,201.21,287,185.13,287,185V130.88A19.88,19.88,0,0,1,301.55,132.61ZM208.68,114.5c20.84-.26,43.71,5.23,66.32,15.92v23.64a7.49,7.49,0,0,0-.68.7c-7.38,9.19-20.18,21.51-39.28,28.09-36.5,12.59-71.83-7.73-85.32-17l-.32-.22a6.73,6.73,0,0,0-1.18-.63l-.47-.34a7,7,0,0,0-6.73-.42l-1.42.67,2.25-6a46.4,46.4,0,0,1,17-3.34h.1c6.53,0,11.46,1.51,16.24,3,4.31,1.3,8.72,2.63,13.73,2.63a27.9,27.9,0,0,0,6.42-.74c7.52-1.76,14.36-6.52,20.35-14.14a6,6,0,0,0-9.44-7.41c-4.26,5.42-8.85,8.74-13.65,9.86s-8.58-.07-13.94-1.69c-5.08-1.53-11.39-3.44-19.67-3.47a57.79,57.79,0,0,0-10.63,1,57.31,57.31,0,0,1,9.45-11.94C169.92,121,187.5,114.78,208.68,114.5ZM128,256.59a17.28,17.28,0,0,1,3.51-8.77,16.67,16.67,0,0,1,5.47-4.56v27.45a17.92,17.92,0,0,1-4-3.06A18.5,18.5,0,0,1,128,256.59Zm101.14,91.94c-38.81-.89-72.33-30.74-78.16-69.52V180.86c13.51,8,35.25,18,59.85,18A85.83,85.83,0,0,0,239,194.2a97.27,97.27,0,0,0,36-22.4v13.13c0,.94.14,23.11,17.92,33.74a35.61,35.61,0,0,0,18.12,5V279C304.92,319.61,269.82,349.46,229.16,348.53ZM330,267.65A17.58,17.58,0,0,1,325,271.2V242.79a17,17,0,0,1,6.43,5,17.28,17.28,0,0,1,3.51,8.77A18.5,18.5,0,0,1,330,267.65Z" transform="translate(-114 -100.45)"/><path class="cls-3" d="M279.41,294.29c-4.76,4.78-22.21,20.24-48.59,20.24h-.75c-26-.28-43.17-15.55-47.82-20.23a6,6,0,1,0-8.5,8.47c7,7,26.49,23.43,56.18,23.76h.89c31,0,51.51-18.16,57.09-23.77a6,6,0,1,0-8.5-8.47Z" transform="translate(-114 -100.45)"/><path class="cls-3" d="M180.88,252a8.52,8.52,0,0,1,5.63,2.41,5.5,5.5,0,1,0,7.74-7.81,19.23,19.23,0,0,0-27.12,0,5.5,5.5,0,1,0,7.74,7.81A8.68,8.68,0,0,1,180.88,252Z" transform="translate(-114 -100.45)"/><path class="cls-3" d="M281.12,241a19.33,19.33,0,0,0-14,5.59,5.5,5.5,0,1,0,7.74,7.81,8.65,8.65,0,0,1,6-2.41,8.52,8.52,0,0,1,5.63,2.41,5.5,5.5,0,1,0,7.74-7.81A19.5,19.5,0,0,0,281.12,241Z" transform="translate(-114 -100.45)"/></g></g></g></svg>