<svg xmlns="http://www.w3.org/2000/svg" viewBox="0 0 262.17 223.56"><defs><style>.cls-1{opacity:0.2;}.cls-2{fill:#eb9122;}.cls-3{fill:#f2b13e;}.cls-4{fill:#ed9a2a;}.cls-5{fill:#fbdb63;}.cls-6{fill:#f6e1b6;}.cls-7{fill:#e9be7f;}.cls-8{fill:#efcf99;}</style></defs><g id="Слой_2" data-name="Слой 2"><g id="Слой_1-2" data-name="Слой 1"><path class="cls-1" d="M261.84,55.58a10,10,0,0,0-5.74-6.66l-.19-.07-22.5-9.6a9.57,9.57,0,0,0-2.12-.64l-5.58-2.51a9.89,9.89,0,0,0-1.47-.52L190.39,21a10.12,10.12,0,0,0-3.95-.81,9.83,9.83,0,0,0-3.05.48L146,30.41a160.5,160.5,0,0,1-30.8-3c-15.65-3.1-23.51-4.65-32.3-10.18C81,16,79.47,14.89,77.81,13.69A63.12,63.12,0,0,0,62.94,5.18,69.53,69.53,0,0,0,38.72,0h-.91A63.62,63.62,0,0,0,12.48,5.28,10,10,0,0,0,6.79,17L19.31,64A10,10,0,0,0,16,67.62L1.14,96.08a10,10,0,0,0-.83,7.11l10.51,41.16a10,10,0,0,0,4.27,5.93l25.84,16.64a10,10,0,0,0,5.41,1.59h.18l12.32,47.55a10,10,0,0,0,9.67,7.5,9.59,9.59,0,0,0,1.07-.06A63.45,63.45,0,0,0,95,215.18a69.28,69.28,0,0,0,18.54-16.41A63,63,0,0,0,122.32,184c.86-1.86,1.66-3.61,2.72-5.57,4.94-9.14,11-14.36,23.11-24.76a160.59,160.59,0,0,1,27-18.71l35.32-9.29a10,10,0,0,0,5.42-3.63l5-6.6,17.71-23.15c.27-.3.52-.61.76-.93l.55-.78,19.79-25.86.43-.56A10,10,0,0,0,261.84,55.58Z"/><path class="cls-2" d="M53.19,152.26,69,213.12a53.84,53.84,0,0,0,21.45-7,58.75,58.75,0,0,0,15.77-14c5.88-7.4,6.74-11.87,10.5-18.83,5.82-10.76,12.78-16.74,25.4-27.58a170.17,170.17,0,0,1,32.4-21.9Z"/><path class="cls-3" d="M60.19,150.45l13.06,50.41A44.52,44.52,0,0,0,91,195.06a48.62,48.62,0,0,0,13.06-11.61c4.88-6.13,5.59-9.83,8.71-15.59,4.82-8.92,10.58-13.87,21-22.86a141.62,141.62,0,0,1,26.84-18.13Z"/><path class="cls-2" d="M33.1,74.77,16.88,14A53.89,53.89,0,0,1,39,9.57,58.94,58.94,0,0,1,59.62,14C68.38,17.56,71.33,21,78,25.24c10.36,6.51,19.36,8.29,35.68,11.52a170.16,170.16,0,0,0,39,3.12Z"/><path class="cls-3" d="M40.09,72.91,26.65,22.59A44.52,44.52,0,0,1,45,18.9a48.54,48.54,0,0,1,17.08,3.68c7.26,2.93,9.7,5.81,15.25,9.29,8.59,5.39,16,6.87,29.56,9.55A140.76,140.76,0,0,0,139.16,44Z"/><polygon class="cls-4" points="10.43 100.28 20.94 141.44 46.77 158.08 208.34 115.61 252.13 57.84 186.88 29.79 25.32 71.83 10.43 100.28"/><polygon class="cls-5" points="249.13 61.84 252.13 57.84 187.02 29.99 25.46 72.02 10.57 100.48 17.45 127.43 249.13 61.84"/><polygon class="cls-3" points="10.44 100.31 20.94 141.44 21.02 141.49 222.63 87.9 231.64 85.16 251.13 57.84 222.04 44.8 10.44 100.31"/><polyline class="cls-6" points="208.32 115.6 252.13 57.84 186.87 29.78"/><polygon class="cls-7" points="197.09 70.33 208.38 115.48 252.18 58.25 197.09 70.33"/><polygon class="cls-8" points="192.42 52 233.27 62.39 202.49 92.72 192.42 52"/><polygon class="cls-3" points="229.92 48.01 236.95 78.15 252.6 57.69 229.92 48.01"/><polygon class="cls-4" points="233.27 62.39 236.95 78.15 252.6 57.69 252.42 57.61 233.27 62.39"/></g></g></svg>