<svg xmlns="http://www.w3.org/2000/svg" viewBox="0 0 1920 1080"><defs><style>.cls-1{fill:#410099;}.cls-2,.cls-3{fill:#a0cfa3;}.cls-3{opacity:0.5;}.cls-4{fill:#4d4d4d;}.cls-5{fill:gray;}.cls-6{fill:#eeec95;}.cls-7{fill:#6e8396;}.cls-8{fill:#5f5e42;}.cls-9{fill:#778aaa;}.cls-10{fill:#fff8e1;}</style></defs><g id="Слой_2" data-name="Слой 2"><g id="Слой_1-2" data-name="Слой 1"><rect class="cls-1" width="1920" height="1080"/><circle class="cls-2" cx="289.5" cy="188.5" r="18.5"/><circle class="cls-3" cx="242" cy="184" r="113"/><circle class="cls-2" cx="237" cy="212" r="113"/><circle class="cls-4" cx="291" cy="187" r="20"/><circle class="cls-5" cx="292.5" cy="185.5" r="18.5"/><circle class="cls-4" cx="262.5" cy="266.5" r="12.5"/><circle class="cls-5" cx="263.44" cy="265.56" r="11.56"/><circle class="cls-4" cx="193" cy="179" r="17"/><circle class="cls-5" cx="194.27" cy="177.73" r="15.72"/><circle class="cls-4" cx="202" cy="242" r="12"/><circle class="cls-5" cx="202.9" cy="241.1" r="11.1"/><circle class="cls-3" cx="1509.53" cy="291.6" r="43.6"/><circle class="cls-2" cx="1507.6" cy="302.4" r="43.6"/><circle class="cls-4" cx="1528.43" cy="292.76" r="7.72"/><circle class="cls-5" cx="1529.01" cy="292.18" r="7.14"/><circle class="cls-4" cx="1517.44" cy="323.43" r="4.82"/><circle class="cls-5" cx="1517.8" cy="323.07" r="4.46"/><circle class="cls-4" cx="1490.62" cy="289.67" r="6.56"/><circle class="cls-5" cx="1491.11" cy="289.18" r="6.07"/><circle class="cls-4" cx="1494.09" cy="313.98" r="4.63"/><circle class="cls-5" cx="1494.44" cy="313.63" r="4.28"/><circle class="cls-6" cx="1524.5" cy="625.5" r="127.5"/><path class="cls-7" d="M1557,545c33,12.6,63.61,32,91.81,52a127.53,127.53,0,0,0-194-78.28C1487,524,1521.28,531.36,1557,545Z"/><path class="cls-7" d="M1517,631c32,7.79,73.44,22,122.3,50q1.92-3.94,3.57-8A698.46,698.46,0,0,0,1413.34,563a126.65,126.65,0,0,0-14,37.92C1456.15,617.78,1497.18,626.18,1517,631Z"/><path class="cls-7" d="M1502,694c-29.9-14-63.2-19.16-95.71-20.66a127.56,127.56,0,0,0,178.84,64.34A935,935,0,0,0,1502,694Z"/><circle class="cls-8" cx="1509" cy="548" r="19"/><circle class="cls-9" cx="1505" cy="548" r="19"/><circle class="cls-8" cx="1441.43" cy="642.43" r="13.57"/><circle class="cls-9" cx="1438.57" cy="642.43" r="13.57"/><circle class="cls-6" cx="289.5" cy="893.5" r="44.5"/><path class="cls-7" d="M300.84,865.4c11.51,4.4,22.21,11.16,32.05,18.16a44.51,44.51,0,0,0-67.72-27.32A178.41,178.41,0,0,1,300.84,865.4Z"/><path class="cls-7" d="M286.88,895.42a163,163,0,0,1,42.69,17.45c.44-.92.86-1.86,1.24-2.81a244.12,244.12,0,0,0-80.11-38.37,44.38,44.38,0,0,0-4.87,13.24C265.64,890.81,280,893.74,286.88,895.42Z"/><path class="cls-7" d="M281.65,917.41c-10.44-4.9-22.06-6.69-33.41-7.21a44.52,44.52,0,0,0,62.42,22.45C302.45,927.74,292.92,922.7,281.65,917.41Z"/><circle class="cls-8" cx="284.09" cy="866.45" r="6.63"/><circle class="cls-9" cx="282.69" cy="866.45" r="6.63"/><circle class="cls-8" cx="260.51" cy="899.41" r="4.74"/><circle class="cls-9" cx="259.51" cy="899.41" r="4.74"/><circle class="cls-6" cx="1214" cy="106" r="65"/><path class="cls-7" d="M1255,122.57c-6.42,16.81-16.29,32.43-26.53,46.8a65,65,0,0,0,39.91-98.92C1265.75,86.9,1262,104.36,1255,122.57Z"/><path class="cls-7" d="M1211.2,102.18c-4,16.32-11.23,37.44-25.49,62.35,1.34.65,2.71,1.26,4.1,1.81a355.8,355.8,0,0,0,34.64-58.56,356.72,356.72,0,0,0,21.4-58.45,64.63,64.63,0,0,0-19.33-7.12C1217.93,71.15,1213.65,92.07,1211.2,102.18Z"/><path class="cls-7" d="M1179.08,94.53c7.15-15.24,9.77-32.22,10.53-48.79a65,65,0,0,0-32.8,91.17A475.35,475.35,0,0,0,1179.08,94.53Z"/><circle class="cls-8" cx="1253.51" cy="98.1" r="9.69"/><circle class="cls-9" cx="1253.51" cy="96.06" r="9.69"/><circle class="cls-8" cx="1205.37" cy="63.65" r="6.92"/><circle class="cls-9" cx="1205.37" cy="62.19" r="6.92"/><path class="cls-10" d="M1610.12,202.83l9.75,4.43a7.26,7.26,0,0,1,3.65,3.71l4,9.18a4.24,4.24,0,0,0,7.09,1.11l7.62-8.69a7.21,7.21,0,0,1,5.44-2.47h9.48a4.25,4.25,0,0,0,3.65-6.43l-4.78-8a7.23,7.23,0,0,1-.84-5.34l2.88-12.5a4.24,4.24,0,0,0-5.09-5.09l-12,2.77a7.27,7.27,0,0,1-6.06-1.34l-6.26-4.86a4.24,4.24,0,0,0-6.84,3l-.84,10.95a7.26,7.26,0,0,1-2.69,5.1l-9,7.23A4.24,4.24,0,0,0,1610.12,202.83Z"/><path class="cls-10" d="M265.87,710.07l9.83-21.63a16,16,0,0,1,8.22-8.08l20.38-8.84a9.42,9.42,0,0,0,2.46-15.73l-19.29-16.9A16.05,16.05,0,0,1,282,626.82V605.77a9.42,9.42,0,0,0-14.27-8.08l-17.65,10.59a16.07,16.07,0,0,1-11.87,1.88l-27.71-6.4a9.42,9.42,0,0,0-11.3,11.3l6.13,26.59a16,16,0,0,1-3,13.46L191.58,669a9.42,9.42,0,0,0,6.71,15.18l24.3,1.87a16.06,16.06,0,0,1,11.3,6l16,20A9.43,9.43,0,0,0,265.87,710.07Z"/><path class="cls-10" d="M1393,946.57l16.59-1.49a11.29,11.29,0,0,1,7.78,2.21l12.45,9.37a6.61,6.61,0,0,0,10.45-3.94l3.62-17.62a11.28,11.28,0,0,1,5.47-7.51l12.84-7.29a6.61,6.61,0,0,0,0-11.5l-12.57-7.1a11.28,11.28,0,0,1-5.25-6.59L1438.66,876a6.62,6.62,0,0,0-10.81-3l-14.09,13a11.27,11.27,0,0,1-9.24,2.85L1392.33,887a6.6,6.6,0,0,0-6.93,9.35l7.27,15.46a11.26,11.26,0,0,1,.26,9l-6.67,16.73A6.61,6.61,0,0,0,1393,946.57Z"/><path class="cls-10" d="M808.68,193.82l8.8-10.54A9.24,9.24,0,0,1,823.3,180L836,178.25a5.45,5.45,0,0,0,3.79-8.39l-8.15-12.38a9.28,9.28,0,0,1-1.2-7.57l3.23-11.72a5.45,5.45,0,0,0-6.71-6.7l-11.46,3.19a9.31,9.31,0,0,1-6.9-.78l-14.46-7.82a5.44,5.44,0,0,0-8,4.56l-.67,15.76a9.23,9.23,0,0,1-3.72,7l-8.14,6.07A5.45,5.45,0,0,0,775,169l13.25,4.78a9.28,9.28,0,0,1,5.38,5.06l5.85,13.64A5.45,5.45,0,0,0,808.68,193.82Z"/><path class="cls-10" d="M1757.22,505.71l13.67-1.23a9.22,9.22,0,0,1,6.41,1.83l10.26,7.72a5.45,5.45,0,0,0,8.61-3.26l3-14.51a9.29,9.29,0,0,1,4.5-6.2l10.58-6a5.45,5.45,0,0,0,0-9.48l-10.36-5.85a9.3,9.3,0,0,1-4.33-5.43l-4.69-15.75a5.44,5.44,0,0,0-8.9-2.46l-11.62,10.67a9.27,9.27,0,0,1-7.61,2.35l-10-1.47a5.45,5.45,0,0,0-5.71,7.71l6,12.75a9.29,9.29,0,0,1,.22,7.38l-5.5,13.78A5.45,5.45,0,0,0,1757.22,505.71Z"/><path class="cls-10" d="M497.68,993.82l8.8-10.54A9.24,9.24,0,0,1,512.3,980L525,978.25a5.45,5.45,0,0,0,3.79-8.39l-8.15-12.38a9.28,9.28,0,0,1-1.2-7.57l3.23-11.72a5.45,5.45,0,0,0-6.71-6.7l-11.46,3.19a9.31,9.31,0,0,1-6.9-.78l-14.46-7.82a5.44,5.44,0,0,0-8,4.56l-.67,15.76a9.23,9.23,0,0,1-3.72,7l-8.14,6.07A5.45,5.45,0,0,0,464,969l13.25,4.78a9.28,9.28,0,0,1,5.38,5.06l5.85,13.64A5.45,5.45,0,0,0,497.68,993.82Z"/></g></g></svg>